COMMENT %Z%%M%	%I%  %W% %G% %U%
COMMENT
COMMENT   COMPONENT_NAME: fontKJI
COMMENT
COMMENT   FUNCTIONS: none
COMMENT
COMMENT   ORIGINS: 27
COMMENT
COMMENT   IBM CONFIDENTIAL -- (IBM Confidential Restricted when
COMMENT   combined with the aggregated modules for this product)
COMMENT                    SOURCE MATERIALS
COMMENT
COMMENT   (C) COPYRIGHT International Business Machines Corp. 1989
COMMENT   All Rights Reserved
COMMENT   US Government Users Restricted Rights - Use, duplication or
COMMENT   disclosure restricted by GSA ADP Schedule Contract with IBM Corp.
COMMENT
STARTFONT 2.1
FONT -IBM_AIX-Gothic-Medium-R-Normal--19-120-100-100-M-180-JISX0208.1983-0
SIZE 120 100 100
FONTBOUNDINGBOX 18 19 0 0
STARTPROPERTIES 27
FONTNAME_REGISTRY "-"
FOUNDRY "IBM_AIX"
FAMILY_NAME "Gothic"
WEIGHT_NAME "Medium"
SLANT "R"
SETWIDTH_NAME "Normal"
ADD_STYLE_NAME ""
PIXEL_SIZE 19
POINT_SIZE 120
RESOLUTION_X 100
RESOLUTION_Y 100
SPACING "M"
AVERAGE_WIDTH 180
CHARSET_REGISTRY "JISX0208.1983"
CHARSET_ENCODING "0"
CAP_HEIGHT 19
CHARSET_COLLECTIONS ""
COPYRIGHT "Copyright 1989 by IBM."
_IBM_AIX_CODESET "AIXstdNLS"
_IBM_AIX_SINGLEBYTE_CODEPAGE_SHIFTS ""
WEIGHT 17704
RESOLUTION 138
X_HEIGHT 18
QUAD_WIDTH 18
FONT_DESCENT 1
FONT_ASCENT 18
DEFAULT_CHAR 8481
ENDPROPERTIES
CHARS 6879
STARTCHAR 2121
ENCODING 8481
SWIDTH	-8531 0
DWIDTH	18 0
BBX 18	19 0 -1
BITMAP
000000
000000
000000
000000
000000
000000
000000
000000
000000
000000
000000
000000
000000
000000
000000
000000
000000
000000
000000
ENDCHAR
STARTCHAR 2122
ENCODING 8482
SWIDTH	-8531 0
DWIDTH	18 0
BBX 18	19 0 -1
BITMAP
000000
000000
000000
000000
000000
000000
000000
000000
000000
000000
000000
000000
000000
300000
180000
0c0000
0c0000
000000
000000
ENDCHAR
STARTCHAR 2123
ENCODING 8483
SWIDTH	-8531 0
DWIDTH	18 0
BBX 18	19 0 -1
BITMAP
000000
000000
000000
000000
000000
000000
000000
000000
000000
000000
000000
000000
000000
180000
240000
240000
180000
000000
000000
ENDCHAR
STARTCHAR 2124
ENCODING 8484
SWIDTH	-8531 0
DWIDTH	18 0
BBX 18	19 0 -1
BITMAP
000000
000000
000000
000000
000000
000000
000000
000000
000000
000000
000000
000000
180000
180000
080000
100000
200000
000000
000000
ENDCHAR
STARTCHAR 2125
ENCODING 8485
SWIDTH	-8531 0
DWIDTH	18 0
BBX 18	19 0 -1
BITMAP
000000
000000
000000
000000
000000
000000
000000
000000
000000
000000
000000
000000
000000
000000
180000
180000
000000
000000
000000
ENDCHAR
STARTCHAR 2126
ENCODING 8486
SWIDTH	-8531 0
DWIDTH	18 0
BBX 18	19 0 -1
BITMAP
000000
000000
000000
000000
000000
000000
000000
000000
00c000
01e000
00c000
000000
000000
000000
000000
000000
000000
000000
000000
ENDCHAR
STARTCHAR 2127
ENCODING 8487
SWIDTH	-8531 0
DWIDTH	18 0
BBX 18	19 0 -1
BITMAP
000000
000000
000000
000000
000000
00c000
00c000
000000
000000
000000
000000
000000
00c000
00c000
000000
000000
000000
000000
000000
ENDCHAR
STARTCHAR 2128
ENCODING 8488
SWIDTH	-8531 0
DWIDTH	18 0
BBX 18	19 0 -1
BITMAP
000000
000000
000000
000000
000000
00c000
00c000
000000
000000
000000
000000
000000
00c000
00c000
004000
008000
000000
000000
000000
ENDCHAR
STARTCHAR 2129
ENCODING 8489
SWIDTH	-8531 0
DWIDTH	18 0
BBX 18	19 0 -1
BITMAP
000000
000000
03e000
041000
080800
080800
081000
002000
004000
008000
008000
008000
000000
008000
01c000
008000
000000
000000
000000
ENDCHAR
STARTCHAR 212a
ENCODING 8490
SWIDTH	-8531 0
DWIDTH	18 0
BBX 18	19 0 -1
BITMAP
000000
000000
008000
008000
008000
008000
008000
008000
008000
008000
008000
000000
000000
008000
01c000
008000
000000
000000
000000
ENDCHAR
STARTCHAR 212b
ENCODING 8491
SWIDTH	-8531 0
DWIDTH	18 0
BBX 18	19 0 -1
BITMAP
000000
120000
120000
120000
000000
000000
000000
000000
000000
000000
000000
000000
000000
000000
000000
000000
000000
000000
000000
ENDCHAR
STARTCHAR 212c
ENCODING 8492
SWIDTH	-8531 0
DWIDTH	18 0
BBX 18	19 0 -1
BITMAP
000000
0c0000
120000
120000
0c0000
000000
000000
000000
000000
000000
000000
000000
000000
000000
000000
000000
000000
000000
000000
ENDCHAR
STARTCHAR 212d
ENCODING 8493
SWIDTH	-8531 0
DWIDTH	18 0
BBX 18	19 0 -1
BITMAP
000000
002000
004000
008000
000000
000000
000000
000000
000000
000000
000000
000000
000000
000000
000000
000000
000000
000000
000000
ENDCHAR
STARTCHAR 212e
ENCODING 8494
SWIDTH	-8531 0
DWIDTH	18 0
BBX 18	19 0 -1
BITMAP
000000
010000
008000
004000
000000
000000
000000
000000
000000
000000
000000
000000
000000
000000
000000
000000
000000
000000
000000
ENDCHAR
STARTCHAR 212f
ENCODING 8495
SWIDTH	-8531 0
DWIDTH	18 0
BBX 18	19 0 -1
BITMAP
000000
033000
033000
000000
000000
000000
000000
000000
000000
000000
000000
000000
000000
000000
000000
000000
000000
000000
000000
ENDCHAR
STARTCHAR 2130
ENCODING 8496
SWIDTH	-8531 0
DWIDTH	18 0
BBX 18	19 0 -1
BITMAP
000000
00c000
012000
000000
000000
000000
000000
000000
000000
000000
000000
000000
000000
000000
000000
000000
000000
000000
000000
ENDCHAR
STARTCHAR 2131
ENCODING 8497
SWIDTH	-8531 0
DWIDTH	18 0
BBX 18	19 0 -1
BITMAP
000000
7fff80
000000
000000
000000
000000
000000
000000
000000
000000
000000
000000
000000
000000
000000
000000
000000
000000
000000
ENDCHAR
STARTCHAR 2132
ENCODING 8498
SWIDTH	-8531 0
DWIDTH	18 0
BBX 18	19 0 -1
BITMAP
000000
000000
000000
000000
000000
000000
000000
000000
000000
000000
000000
000000
000000
000000
000000
000000
7fff80
000000
000000
ENDCHAR
STARTCHAR 2133
ENCODING 8499
SWIDTH	-8531 0
DWIDTH	18 0
BBX 18	19 0 -1
BITMAP
000000
000000
000000
000000
180000
060000
018000
004000
002000
001000
000800
000400
000200
000200
000000
000000
000000
000000
000000
ENDCHAR
STARTCHAR 2134
ENCODING 8500
SWIDTH	-8531 0
DWIDTH	18 0
BBX 18	19 0 -1
BITMAP
000000
000000
000000
000400
181200
060800
018000
004000
002000
001000
000800
000400
000200
000200
000000
000000
000000
000000
000000
ENDCHAR
STARTCHAR 2135
ENCODING 8501
SWIDTH	-8531 0
DWIDTH	18 0
BBX 18	19 0 -1
BITMAP
000000
000000
000000
000000
060000
018000
004000
002000
001000
001000
000800
000800
000400
000400
01fc00
000000
000000
000000
000000
ENDCHAR
STARTCHAR 2136
ENCODING 8502
SWIDTH	-8531 0
DWIDTH	18 0
BBX 18	19 0 -1
BITMAP
000000
000000
000000
000400
061200
018800
004000
002000
001000
001000
000800
000800
000400
000400
01fc00
000000
000000
000000
000000
ENDCHAR
STARTCHAR 2137
ENCODING 8503
SWIDTH	-8531 0
DWIDTH	18 0
BBX 18	19 0 -1
BITMAP
000000
000000
000000
000000
000000
004000
008000
010400
020800
041000
082000
004000
008000
000000
000000
000000
000000
000000
000000
ENDCHAR
STARTCHAR 2138
ENCODING 8504
SWIDTH	-8531 0
DWIDTH	18 0
BBX 18	19 0 -1
BITMAP
000000
00c000
012000
021000
040800
080400
100200
2ffd00
408080
008000
008000
008000
008000
008000
008000
3fff00
000000
000000
000000
ENDCHAR
STARTCHAR 2139
ENCODING 8505
SWIDTH	-8531 0
DWIDTH	18 0
BBX 18	19 0 -1
BITMAP
000000
010000
010000
010000
03fe00
020200
040400
040400
080800
100800
219000
006000
001000
000800
000400
000400
000000
000000
000000
ENDCHAR
STARTCHAR 213a
ENCODING 8506
SWIDTH	-8531 0
DWIDTH	18 0
BBX 18	19 0 -1
BITMAP
000000
000000
000000
000400
000800
021000
011000
00a000
004000
004000
00a000
011000
110800
120000
0a0000
040000
000000
000000
000000
ENDCHAR
STARTCHAR 213b
ENCODING 8507
SWIDTH	-8531 0
DWIDTH	18 0
BBX 18	19 0 -1
BITMAP
000000
000000
000000
01e000
061800
080400
100200
200100
200100
200100
200100
100200
080400
061800
01e000
000000
000000
000000
000000
ENDCHAR
STARTCHAR 213c
ENCODING 8508
SWIDTH	-8531 0
DWIDTH	18 0
BBX 18	19 0 -1
BITMAP
000000
000000
000000
000000
000000
000000
000000
000000
000000
3fff00
000000
000000
000000
000000
000000
000000
000000
000000
000000
ENDCHAR
STARTCHAR 213d
ENCODING 8509
SWIDTH	-8531 0
DWIDTH	18 0
BBX 18	19 0 -1
BITMAP
000000
000000
000000
000000
000000
000000
000000
000000
0ffc00
000000
000000
000000
000000
000000
000000
000000
000000
000000
000000
ENDCHAR
STARTCHAR 213e
ENCODING 8510
SWIDTH	-8531 0
DWIDTH	18 0
BBX 18	19 0 -1
BITMAP
000000
000000
000000
000000
000000
000000
000000
000000
03f000
000000
000000
000000
000000
000000
000000
000000
000000
000000
000000
ENDCHAR
STARTCHAR 213f
ENCODING 8511
SWIDTH	-8531 0
DWIDTH	18 0
BBX 18	19 0 -1
BITMAP
000000
000080
000100
000200
000400
000800
001000
002000
004000
008000
010000
020000
040000
080000
100000
200000
400000
000000
000000
ENDCHAR
STARTCHAR 2140
ENCODING 8512
SWIDTH	-8531 0
DWIDTH	18 0
BBX 18	19 0 -1
BITMAP
000000
000000
200000
100000
080000
040000
020000
010000
008000
004000
002000
001000
000800
000400
000200
000100
000000
000000
000000
ENDCHAR
STARTCHAR 2141
ENCODING 8513
SWIDTH	-8531 0
DWIDTH	18 0
BBX 18	19 0 -1
BITMAP
000000
000000
000000
000000
000000
000000
0e0000
110000
208000
004100
002200
001c00
000000
000000
000000
000000
000000
000000
000000
ENDCHAR
STARTCHAR 2142
ENCODING 8514
SWIDTH	-8531 0
DWIDTH	18 0
BBX 18	19 0 -1
BITMAP
000000
000000
012000
012000
012000
012000
012000
012000
012000
012000
012000
012000
012000
012000
012000
012000
000000
000000
000000
ENDCHAR
STARTCHAR 2143
ENCODING 8515
SWIDTH	-8531 0
DWIDTH	18 0
BBX 18	19 0 -1
BITMAP
000000
008000
008000
008000
008000
008000
008000
008000
008000
008000
008000
008000
008000
008000
008000
008000
008000
000000
000000
ENDCHAR
STARTCHAR 2144
ENCODING 8516
SWIDTH	-8531 0
DWIDTH	18 0
BBX 18	19 0 -1
BITMAP
000000
000000
000000
000000
000000
000000
000000
000000
30c300
30c300
000000
000000
000000
000000
000000
000000
000000
000000
000000
ENDCHAR
STARTCHAR 2145
ENCODING 8517
SWIDTH	-8531 0
DWIDTH	18 0
BBX 18	19 0 -1
BITMAP
000000
000000
000000
000000
000000
000000
000000
000000
0c0c00
0c0c00
000000
000000
000000
000000
000000
000000
000000
000000
000000
ENDCHAR
STARTCHAR 2146
ENCODING 8518
SWIDTH	-8531 0
DWIDTH	18 0
BBX 18	19 0 -1
BITMAP
000000
000200
000400
000600
000600
000000
000000
000000
000000
000000
000000
000000
000000
000000
000000
000000
000000
000000
000000
ENDCHAR
STARTCHAR 2147
ENCODING 8519
SWIDTH	-8531 0
DWIDTH	18 0
BBX 18	19 0 -1
BITMAP
000000
300000
300000
100000
200000
000000
000000
000000
000000
000000
000000
000000
000000
000000
000000
000000
000000
000000
000000
ENDCHAR
STARTCHAR 2148
ENCODING 8520
SWIDTH	-8531 0
DWIDTH	18 0
BBX 18	19 0 -1
BITMAP
000000
000900
001200
001b00
001b00
000000
000000
000000
000000
000000
000000
000000
000000
000000
000000
000000
000000
000000
000000
ENDCHAR
STARTCHAR 2149
ENCODING 8521
SWIDTH	-8531 0
DWIDTH	18 0
BBX 18	19 0 -1
BITMAP
000000
360000
360000
120000
240000
000000
000000
000000
000000
000000
000000
000000
000000
000000
000000
000000
000000
000000
000000
ENDCHAR
STARTCHAR 214a
ENCODING 8522
SWIDTH	-8531 0
DWIDTH	18 0
BBX 18	19 0 -1
BITMAP
000000
000100
000200
000400
000800
000800
001000
001000
001000
001000
001000
001000
000800
000800
000400
000200
000100
000000
000000
ENDCHAR
STARTCHAR 214b
ENCODING 8523
SWIDTH	-8531 0
DWIDTH	18 0
BBX 18	19 0 -1
BITMAP
000000
200000
100000
080000
040000
040000
020000
020000
020000
020000
020000
020000
040000
040000
080000
100000
200000
000000
000000
ENDCHAR
STARTCHAR 214c
ENCODING 8524
SWIDTH	-8531 0
DWIDTH	18 0
BBX 18	19 0 -1
BITMAP
000000
000100
000200
000400
000800
000800
000800
000800
000800
000800
000800
000800
000800
000800
000400
000200
000100
000000
000000
ENDCHAR
STARTCHAR 214d
ENCODING 8525
SWIDTH	-8531 0
DWIDTH	18 0
BBX 18	19 0 -1
BITMAP
000000
200000
100000
080000
040000
040000
040000
040000
040000
040000
040000
040000
040000
040000
080000
100000
200000
000000
000000
ENDCHAR
STARTCHAR 214e
ENCODING 8526
SWIDTH	-8531 0
DWIDTH	18 0
BBX 18	19 0 -1
BITMAP
000000
000f00
000800
000800
000800
000800
000800
000800
000800
000800
000800
000800
000800
000800
000800
000800
000f00
000000
000000
ENDCHAR
STARTCHAR 214f
ENCODING 8527
SWIDTH	-8531 0
DWIDTH	18 0
BBX 18	19 0 -1
BITMAP
000000
3c0000
040000
040000
040000
040000
040000
040000
040000
040000
040000
040000
040000
040000
040000
040000
3c0000
000000
000000
ENDCHAR
STARTCHAR 2150
ENCODING 8528
SWIDTH	-8531 0
DWIDTH	18 0
BBX 18	19 0 -1
BITMAP
000000
000300
000400
000400
000400
000400
000400
000800
001000
001000
000800
000400
000400
000400
000400
000400
000300
000000
000000
ENDCHAR
STARTCHAR 2151
ENCODING 8529
SWIDTH	-8531 0
DWIDTH	18 0
BBX 18	19 0 -1
BITMAP
000000
300000
080000
080000
080000
080000
080000
040000
020000
020000
040000
080000
080000
080000
080000
080000
300000
000000
000000
ENDCHAR
STARTCHAR 2152
ENCODING 8530
SWIDTH	-8531 0
DWIDTH	18 0
BBX 18	19 0 -1
BITMAP
000000
000100
000200
000400
000800
001000
002000
004000
008000
008000
004000
002000
001000
000800
000400
000200
000100
000000
000000
ENDCHAR
STARTCHAR 2153
ENCODING 8531
SWIDTH	-8531 0
DWIDTH	18 0
BBX 18	19 0 -1
BITMAP
000000
200000
100000
080000
040000
020000
010000
008000
004000
004000
008000
010000
020000
040000
080000
100000
200000
000000
000000
ENDCHAR
STARTCHAR 2154
ENCODING 8532
SWIDTH	-8531 0
DWIDTH	18 0
BBX 18	19 0 -1
BITMAP
000000
000900
001200
002400
004800
009000
012000
024000
048000
048000
024000
012000
009000
004800
002400
001200
000900
000000
000000
ENDCHAR
STARTCHAR 2155
ENCODING 8533
SWIDTH	-8531 0
DWIDTH	18 0
BBX 18	19 0 -1
BITMAP
000000
240000
120000
090000
048000
024000
012000
009000
004800
004800
009000
012000
024000
048000
090000
120000
240000
000000
000000
ENDCHAR
STARTCHAR 2156
ENCODING 8534
SWIDTH	-8531 0
DWIDTH	18 0
BBX 18	19 0 -1
BITMAP
000000
003f00
002000
002000
002000
002000
002000
002000
002000
002000
002000
000000
000000
000000
000000
000000
000000
000000
000000
ENDCHAR
STARTCHAR 2157
ENCODING 8535
SWIDTH	-8531 0
DWIDTH	18 0
BBX 18	19 0 -1
BITMAP
000000
000000
000000
000000
000000
000000
000000
010000
010000
010000
010000
010000
010000
010000
010000
010000
3f0000
000000
000000
ENDCHAR
STARTCHAR 2158
ENCODING 8536
SWIDTH	-8531 0
DWIDTH	18 0
BBX 18	19 0 -1
BITMAP
000000
003f00
002100
002f00
002800
002800
002800
002800
002800
002800
003800
000000
000000
000000
000000
000000
000000
000000
000000
ENDCHAR
STARTCHAR 2159
ENCODING 8537
SWIDTH	-8531 0
DWIDTH	18 0
BBX 18	19 0 -1
BITMAP
000000
000000
000000
000000
000000
000000
000000
070000
050000
050000
050000
050000
050000
050000
3d0000
210000
3f0000
000000
000000
ENDCHAR
STARTCHAR 215a
ENCODING 8538
SWIDTH	-8531 0
DWIDTH	18 0
BBX 18	19 0 -1
BITMAP
000000
001f00
001e00
001c00
001800
001800
001000
001000
001000
001000
001000
001000
001800
001800
001c00
001e00
001f00
000000
000000
ENDCHAR
STARTCHAR 215b
ENCODING 8539
SWIDTH	-8531 0
DWIDTH	18 0
BBX 18	19 0 -1
BITMAP
000000
3e0000
1e0000
0e0000
060000
060000
020000
020000
020000
020000
020000
020000
060000
060000
0e0000
1e0000
3e0000
000000
000000
ENDCHAR
STARTCHAR 215c
ENCODING 8540
SWIDTH	-8531 0
DWIDTH	18 0
BBX 18	19 0 -1
BITMAP
000000
000000
000000
008000
008000
008000
008000
008000
1ffe00
008000
008000
008000
008000
008000
008000
000000
000000
000000
000000
ENDCHAR
STARTCHAR 215d
ENCODING 8541
SWIDTH	-8531 0
DWIDTH	18 0
BBX 18	19 0 -1
BITMAP
000000
000000
000000
000000
000000
000000
000000
000000
1ffe00
000000
000000
000000
000000
000000
000000
000000
000000
000000
000000
ENDCHAR
STARTCHAR 215e
ENCODING 8542
SWIDTH	-8531 0
DWIDTH	18 0
BBX 18	19 0 -1
BITMAP
000000
000000
000000
008000
008000
008000
008000
1ffc00
008000
008000
008000
008000
008000
000000
1ffc00
000000
000000
000000
000000
ENDCHAR
STARTCHAR 215f
ENCODING 8543
SWIDTH	-8531 0
DWIDTH	18 0
BBX 18	19 0 -1
BITMAP
000000
000000
000000
200200
100400
080800
041000
022000
014000
008000
014000
022000
041000
080800
100400
200200
000000
000000
000000
ENDCHAR
STARTCHAR 2160
ENCODING 8544
SWIDTH	-8531 0
DWIDTH	18 0
BBX 18	19 0 -1
BITMAP
000000
000000
000000
00c000
00c000
000000
000000
000000
1ffe00
000000
000000
000000
00c000
00c000
000000
000000
000000
000000
000000
ENDCHAR
STARTCHAR 2161
ENCODING 8545
SWIDTH	-8531 0
DWIDTH	18 0
BBX 18	19 0 -1
BITMAP
000000
000000
000000
000000
000000
000000
000000
1ffe00
000000
000000
1ffe00
000000
000000
000000
000000
000000
000000
000000
000000
ENDCHAR
STARTCHAR 2162
ENCODING 8546
SWIDTH	-8531 0
DWIDTH	18 0
BBX 18	19 0 -1
BITMAP
000000
000000
000100
000200
000400
000800
001000
3fff00
004000
008000
3fff00
020000
040000
080000
100000
200000
000000
000000
000000
ENDCHAR
STARTCHAR 2163
ENCODING 8547
SWIDTH	-8531 0
DWIDTH	18 0
BBX 18	19 0 -1
BITMAP
000000
000000
000000
000000
000600
001800
006000
018000
060000
180000
060000
018000
006000
001800
000600
000000
000000
000000
000000
ENDCHAR
STARTCHAR 2164
ENCODING 8548
SWIDTH	-8531 0
DWIDTH	18 0
BBX 18	19 0 -1
BITMAP
000000
000000
000000
000000
180000
060000
018000
006000
001800
000600
001800
006000
018000
060000
180000
000000
000000
000000
000000
ENDCHAR
STARTCHAR 2165
ENCODING 8549
SWIDTH	-8531 0
DWIDTH	18 0
BBX 18	19 0 -1
BITMAP
000000
000000
000700
003800
01c000
0e0000
300000
0e0000
01c000
003800
000700
000000
3fff00
000000
000000
3fff00
000000
000000
000000
ENDCHAR
STARTCHAR 2166
ENCODING 8550
SWIDTH	-8531 0
DWIDTH	18 0
BBX 18	19 0 -1
BITMAP
000000
000000
380000
070000
00e000
001c00
000300
001c00
00e000
070000
380000
000000
3fff00
000000
000000
3fff00
000000
000000
000000
ENDCHAR
STARTCHAR 2167
ENCODING 8551
SWIDTH	-8531 0
DWIDTH	18 0
BBX 18	19 0 -1
BITMAP
000000
000000
000000
000000
000000
1c1c00
222200
414100
408100
414100
222200
1c1c00
000000
000000
000000
000000
000000
000000
000000
ENDCHAR
STARTCHAR 2168
ENCODING 8552
SWIDTH	-8531 0
DWIDTH	18 0
BBX 18	19 0 -1
BITMAP
000000
000000
000000
000000
00c000
00c000
000000
000000
000000
000000
000000
000000
180600
180600
000000
000000
000000
000000
000000
ENDCHAR
STARTCHAR 2169
ENCODING 8553
SWIDTH	-8531 0
DWIDTH	18 0
BBX 18	19 0 -1
BITMAP
000000
008000
01c000
02a000
049000
088800
108400
008000
008000
03e000
041000
080800
080800
080800
080800
041000
03e000
000000
000000
ENDCHAR
STARTCHAR 216a
ENCODING 8554
SWIDTH	-8531 0
DWIDTH	18 0
BBX 18	19 0 -1
BITMAP
000000
03e000
041000
080800
080800
080800
080800
041000
03e000
008000
008000
3ffe00
008000
008000
008000
008000
008000
000000
000000
ENDCHAR
STARTCHAR 216b
ENCODING 8555
SWIDTH	-8531 0
DWIDTH	18 0
BBX 18	19 0 -1
BITMAP
000000
180000
240000
240000
180000
000000
000000
000000
000000
000000
000000
000000
000000
000000
000000
000000
000000
000000
000000
ENDCHAR
STARTCHAR 216c
ENCODING 8556
SWIDTH	-8531 0
DWIDTH	18 0
BBX 18	19 0 -1
BITMAP
000000
040000
080000
100000
200000
000000
000000
000000
000000
000000
000000
000000
000000
000000
000000
000000
000000
000000
000000
ENDCHAR
STARTCHAR 216d
ENCODING 8557
SWIDTH	-8531 0
DWIDTH	18 0
BBX 18	19 0 -1
BITMAP
000000
048000
090000
120000
240000
000000
000000
000000
000000
000000
000000
000000
000000
000000
000000
000000
000000
000000
000000
ENDCHAR
STARTCHAR 216e
ENCODING 8558
SWIDTH	-8531 0
DWIDTH	18 0
BBX 18	19 0 -1
BITMAP
000000
300000
48f200
490a00
320600
040200
040200
040000
040000
040000
040000
040200
040200
020400
010800
00f000
000000
000000
000000
ENDCHAR
STARTCHAR 216f
ENCODING 8559
SWIDTH	-8531 0
DWIDTH	18 0
BBX 18	19 0 -1
BITMAP
000000
000000
100400
080800
041000
022000
014000
008000
1ffc00
008000
008000
1ffc00
008000
008000
008000
008000
000000
000000
000000
ENDCHAR
STARTCHAR 2170
ENCODING 8560
SWIDTH	-8531 0
DWIDTH	18 0
BBX 18	19 0 -1
BITMAP
000000
004000
004000
03f800
044400
084200
084000
084000
07f800
004400
004200
004200
084200
044400
03f800
004000
004000
000000
000000
ENDCHAR
STARTCHAR 2171
ENCODING 8561
SWIDTH	-8531 0
DWIDTH	18 0
BBX 18	19 0 -1
BITMAP
000000
000000
008000
008000
03f000
048800
088400
088000
088000
088000
088000
088400
048800
03f000
008000
008000
000000
000000
000000
ENDCHAR
STARTCHAR 2172
ENCODING 8562
SWIDTH	-8531 0
DWIDTH	18 0
BBX 18	19 0 -1
BITMAP
000000
000000
007000
008800
008800
008000
008000
07fc00
008000
008000
008000
0e8000
118000
108200
114400
0e3800
000000
000000
000000
ENDCHAR
STARTCHAR 2173
ENCODING 8563
SWIDTH	-8531 0
DWIDTH	18 0
BBX 18	19 0 -1
BITMAP
000000
000000
0e0100
110200
208400
208800
209000
112000
0e4000
009c00
012200
024100
044100
084100
102200
201c00
000000
000000
000000
ENDCHAR
STARTCHAR 2174
ENCODING 8564
SWIDTH	-8531 0
DWIDTH	18 0
BBX 18	19 0 -1
BITMAP
000000
000000
040800
040800
040800
3fff00
040800
040800
040800
040800
040800
040800
3fff00
040800
040800
040800
000000
000000
000000
ENDCHAR
STARTCHAR 2175
ENCODING 8565
SWIDTH	-8531 0
DWIDTH	18 0
BBX 18	19 0 -1
BITMAP
000000
000000
038000
044000
082000
082000
044000
028000
010000
028000
044200
082200
081400
080800
041400
03e200
000000
000000
000000
ENDCHAR
STARTCHAR 2176
ENCODING 8566
SWIDTH	-8531 0
DWIDTH	18 0
BBX 18	19 0 -1
BITMAP
000000
000000
000000
008000
008000
108400
088800
049000
022000
000000
022000
049000
088800
108400
008000
008000
000000
000000
000000
ENDCHAR
STARTCHAR 2177
ENCODING 8567
SWIDTH	-8531 0
DWIDTH	18 0
BBX 18	19 0 -1
BITMAP
000000
000000
03f000
0c0c00
100200
100200
21e100
221100
241100
241100
241100
243100
13d200
100c00
0c0000
03f800
000000
000000
000000
ENDCHAR
STARTCHAR 2178
ENCODING 8568
SWIDTH	-8531 0
DWIDTH	18 0
BBX 18	19 0 -1
BITMAP
000000
01c000
022000
020000
020000
010000
008000
014000
022000
022000
014000
008000
004000
002000
002000
022000
01c000
000000
000000
ENDCHAR
STARTCHAR 2179
ENCODING 8569
SWIDTH	-8531 0
DWIDTH	18 0
BBX 18	19 0 -1
BITMAP
000000
000000
008000
014000
014000
022000
022000
7c1f00
200200
100400
080800
108400
136400
2c1a00
300600
400100
000000
000000
000000
ENDCHAR
STARTCHAR 217a
ENCODING 8570
SWIDTH	-8531 0
DWIDTH	18 0
BBX 18	19 0 -1
BITMAP
000000
000000
008000
01c000
01c000
03e000
03e000
7fff00
3ffe00
1ffc00
0ff800
1ffc00
1f7c00
3c1e00
300600
400100
000000
000000
000000
ENDCHAR
STARTCHAR 217b
ENCODING 8571
SWIDTH	-8531 0
DWIDTH	18 0
BBX 18	19 0 -1
BITMAP
000000
000000
01e000
061800
080400
100200
100200
200100
200100
200100
200100
100200
100200
080400
061800
01e000
000000
000000
000000
ENDCHAR
STARTCHAR 217c
ENCODING 8572
SWIDTH	-8531 0
DWIDTH	18 0
BBX 18	19 0 -1
BITMAP
000000
000000
000000
01e000
07f800
0ffc00
0ffc00
1ffe00
1ffe00
1ffe00
1ffe00
0ffc00
0ffc00
07f800
01e000
000000
000000
000000
000000
ENDCHAR
STARTCHAR 217d
ENCODING 8573
SWIDTH	-8531 0
DWIDTH	18 0
BBX 18	19 0 -1
BITMAP
000000
000000
000000
01e000
061800
080400
09e400
121200
121200
121200
121200
09e400
080400
061800
01e000
000000
000000
000000
000000
ENDCHAR
STARTCHAR 217e
ENCODING 8574
SWIDTH	-8531 0
DWIDTH	18 0
BBX 18	19 0 -1
BITMAP
000000
000000
000000
008000
014000
022000
041000
080800
100400
200200
100400
080800
041000
022000
014000
008000
000000
000000
000000
ENDCHAR
STARTCHAR 2221
ENCODING 8737
SWIDTH	-8531 0
DWIDTH	18 0
BBX 18	19 0 -1
BITMAP
000000
000000
000000
008000
01c000
03e000
07f000
0ff800
1ffc00
3ffe00
1ffc00
0ff800
07f000
03e000
01c000
008000
000000
000000
000000
ENDCHAR
STARTCHAR 2222
ENCODING 8738
SWIDTH	-8531 0
DWIDTH	18 0
BBX 18	19 0 -1
BITMAP
000000
000000
3fff00
200100
200100
200100
200100
200100
200100
200100
200100
200100
200100
200100
200100
3fff00
000000
000000
000000
ENDCHAR
STARTCHAR 2223
ENCODING 8739
SWIDTH	-8531 0
DWIDTH	18 0
BBX 18	19 0 -1
BITMAP
000000
000000
3fff00
3fff00
3fff00
3fff00
3fff00
3fff00
3fff00
3fff00
3fff00
3fff00
3fff00
3fff00
3fff00
3fff00
000000
000000
000000
ENDCHAR
STARTCHAR 2224
ENCODING 8740
SWIDTH	-8531 0
DWIDTH	18 0
BBX 18	19 0 -1
BITMAP
000000
000000
008000
014000
014000
022000
022000
041000
041000
080800
080800
100400
100400
200200
200200
7fff00
000000
000000
000000
ENDCHAR
STARTCHAR 2225
ENCODING 8741
SWIDTH	-8531 0
DWIDTH	18 0
BBX 18	19 0 -1
BITMAP
000000
000000
008000
01c000
01c000
03e000
03e000
07f000
07f000
0ff800
0ff800
1ffc00
1ffc00
3ffe00
3ffe00
7fff00
000000
000000
000000
ENDCHAR
STARTCHAR 2226
ENCODING 8742
SWIDTH	-8531 0
DWIDTH	18 0
BBX 18	19 0 -1
BITMAP
000000
000000
7fff00
200200
200200
100400
100400
080800
080800
041000
041000
022000
022000
014000
014000
008000
000000
000000
000000
ENDCHAR
STARTCHAR 2227
ENCODING 8743
SWIDTH	-8531 0
DWIDTH	18 0
BBX 18	19 0 -1
BITMAP
000000
000000
7fff00
3ffe00
3ffe00
1ffc00
1ffc00
0ff800
0ff800
07f000
07f000
03e000
03e000
01c000
01c000
008000
000000
000000
000000
ENDCHAR
STARTCHAR 2228
ENCODING 8744
SWIDTH	-8531 0
DWIDTH	18 0
BBX 18	19 0 -1
BITMAP
000000
000000
20c100
10c200
080400
040800
021000
012000
30c300
30c300
012000
021000
040800
080400
10c200
20c100
000000
000000
000000
ENDCHAR
STARTCHAR 2229
ENCODING 8745
SWIDTH	-8531 0
DWIDTH	18 0
BBX 18	19 0 -1
BITMAP
000000
000000
0ff800
000000
000000
000000
000000
3ffe00
008000
008000
008000
008000
008000
008000
008000
008000
000000
000000
000000
ENDCHAR
STARTCHAR 222a
ENCODING 8746
SWIDTH	-8531 0
DWIDTH	18 0
BBX 18	19 0 -1
BITMAP
000000
000000
000000
000000
000800
000400
000200
000100
7fff80
000100
000200
000400
000800
000000
000000
000000
000000
000000
000000
ENDCHAR
STARTCHAR 222b
ENCODING 8747
SWIDTH	-8531 0
DWIDTH	18 0
BBX 18	19 0 -1
BITMAP
000000
000000
000000
000000
040000
080000
100000
200000
7fff80
200000
100000
080000
040000
000000
000000
000000
000000
000000
000000
ENDCHAR
STARTCHAR 222c
ENCODING 8748
SWIDTH	-8531 0
DWIDTH	18 0
BBX 18	19 0 -1
BITMAP
000000
008000
01c000
02a000
049000
088800
008000
008000
008000
008000
008000
008000
008000
008000
008000
008000
008000
000000
000000
ENDCHAR
STARTCHAR 222d
ENCODING 8749
SWIDTH	-8531 0
DWIDTH	18 0
BBX 18	19 0 -1
BITMAP
000000
008000
008000
008000
008000
008000
008000
008000
008000
008000
008000
008000
088800
049000
02a000
01c000
008000
000000
000000
ENDCHAR
STARTCHAR 222e
ENCODING 8750
SWIDTH	-8531 0
DWIDTH	18 0
BBX 18	19 0 -1
BITMAP
000000
000000
000000
1ffe00
1ffe00
1ffe00
1ffe00
000000
000000
000000
000000
1ffe00
1ffe00
1ffe00
1ffe00
000000
000000
000000
000000
ENDCHAR
STARTCHAR 223a
ENCODING 8762
SWIDTH	-8531 0
DWIDTH	18 0
BBX 18	19 0 -1
BITMAP
000000
000000
000000
000000
03fc00
040000
080000
080000
0ffc00
080000
080000
040000
03fc00
000000
000000
000000
000000
000000
000000
ENDCHAR
STARTCHAR 223b
ENCODING 8763
SWIDTH	-8531 0
DWIDTH	18 0
BBX 18	19 0 -1
BITMAP
000000
000000
000000
000000
0ff000
000800
000400
000400
0ffc00
000400
000400
000800
0ff000
000000
000000
000000
000000
000000
000000
ENDCHAR
STARTCHAR 223c
ENCODING 8764
SWIDTH	-8531 0
DWIDTH	18 0
BBX 18	19 0 -1
BITMAP
000000
000000
000000
07fe00
080000
100000
100000
100000
100000
080000
07fe00
000000
000000
1ffe00
000000
000000
000000
000000
000000
ENDCHAR
STARTCHAR 223d
ENCODING 8765
SWIDTH	-8531 0
DWIDTH	18 0
BBX 18	19 0 -1
BITMAP
000000
000000
000000
1ff800
000400
000200
000200
000200
000200
000400
1ff800
000000
000000
1ffe00
000000
000000
000000
000000
000000
ENDCHAR
STARTCHAR 223e
ENCODING 8766
SWIDTH	-8531 0
DWIDTH	18 0
BBX 18	19 0 -1
BITMAP
000000
000000
000000
000000
03fe00
040000
080000
100000
100000
100000
100000
080000
040000
03fe00
000000
000000
000000
000000
000000
ENDCHAR
STARTCHAR 223f
ENCODING 8767
SWIDTH	-8531 0
DWIDTH	18 0
BBX 18	19 0 -1
BITMAP
000000
000000
000000
000000
1ff000
000800
000400
000200
000200
000200
000200
000400
000800
1ff000
000000
000000
000000
000000
000000
ENDCHAR
STARTCHAR 2240
ENCODING 8768
SWIDTH	-8531 0
DWIDTH	18 0
BBX 18	19 0 -1
BITMAP
000000
000000
000000
080400
080400
080400
080400
080400
080400
080400
080400
080400
040800
021000
01e000
000000
000000
000000
000000
ENDCHAR
STARTCHAR 2241
ENCODING 8769
SWIDTH	-8531 0
DWIDTH	18 0
BBX 18	19 0 -1
BITMAP
000000
000000
000000
01e000
021000
040800
080400
080400
080400
080400
080400
080400
080400
080400
080400
000000
000000
000000
000000
ENDCHAR
STARTCHAR 224a
ENCODING 8778
SWIDTH	-8531 0
DWIDTH	18 0
BBX 18	19 0 -1
BITMAP
000000
000000
000000
008000
008000
014000
014000
022000
022000
041000
041000
080800
080800
100400
100400
000000
000000
000000
000000
ENDCHAR
STARTCHAR 224b
ENCODING 8779
SWIDTH	-8531 0
DWIDTH	18 0
BBX 18	19 0 -1
BITMAP
000000
000000
000000
100400
100400
080800
080800
041000
041000
022000
022000
014000
014000
008000
008000
000000
000000
000000
000000
ENDCHAR
STARTCHAR 224c
ENCODING 8780
SWIDTH	-8531 0
DWIDTH	18 0
BBX 18	19 0 -1
BITMAP
000000
000000
000000
3fff00
000100
000100
000100
000100
000100
000000
000000
000000
000000
000000
000000
000000
000000
000000
000000
ENDCHAR
STARTCHAR 224d
ENCODING 8781
SWIDTH	-8531 0
DWIDTH	18 0
BBX 18	19 0 -1
BITMAP
000000
000000
000000
000000
000800
000400
7ffe00
000100
000080
000100
7ffe00
000400
000800
000000
000000
000000
000000
000000
000000
ENDCHAR
STARTCHAR 224e
ENCODING 8782
SWIDTH	-8531 0
DWIDTH	18 0
BBX 18	19 0 -1
BITMAP
000000
000000
000000
000000
040800
080400
1ffe00
200100
400080
200100
1ffe00
080400
040800
000000
000000
000000
000000
000000
000000
ENDCHAR
STARTCHAR 224f
ENCODING 8783
SWIDTH	-8531 0
DWIDTH	18 0
BBX 18	19 0 -1
BITMAP
000000
000000
200200
200200
100400
100400
0ff800
080800
041000
041000
022000
022000
014000
014000
008000
008000
000000
000000
000000
ENDCHAR
STARTCHAR 2250
ENCODING 8784
SWIDTH	-8531 0
DWIDTH	18 0
BBX 18	19 0 -1
BITMAP
000000
000000
000000
0ff800
000800
000800
000800
000800
0ff800
000800
000800
000800
000800
0ff800
000000
000000
000000
000000
000000
ENDCHAR
STARTCHAR 225c
ENCODING 8796
SWIDTH	-8531 0
DWIDTH	18 0
BBX 18	19 0 -1
BITMAP
000000
000000
000000
000400
000800
001000
002000
004000
008000
010000
020000
040000
080000
1ffe00
000000
000000
000000
000000
000000
ENDCHAR
STARTCHAR 225d
ENCODING 8797
SWIDTH	-8531 0
DWIDTH	18 0
BBX 18	19 0 -1
BITMAP
000000
000000
000000
008000
008000
008000
008000
008000
008000
008000
008000
008000
008000
1ffe00
000000
000000
000000
000000
000000
ENDCHAR
STARTCHAR 225e
ENCODING 8798
SWIDTH	-8531 0
DWIDTH	18 0
BBX 18	19 0 -1
BITMAP
000000
03f000
1c0e00
600180
000000
000000
000000
000000
000000
000000
000000
000000
000000
000000
000000
000000
000000
000000
000000
ENDCHAR
STARTCHAR 225f
ENCODING 8799
SWIDTH	-8531 0
DWIDTH	18 0
BBX 18	19 0 -1
BITMAP
000000
000000
00f000
010800
020800
000800
000800
01c800
023000
041000
081000
082000
082000
084000
078000
000000
000000
000000
000000
ENDCHAR
STARTCHAR 2260
ENCODING 8800
SWIDTH	-8531 0
DWIDTH	18 0
BBX 18	19 0 -1
BITMAP
000000
000000
3ffe00
100400
100400
080800
080800
041000
041000
022000
022000
014000
014000
008000
008000
000000
000000
000000
000000
ENDCHAR
STARTCHAR 2261
ENCODING 8801
SWIDTH	-8531 0
DWIDTH	18 0
BBX 18	19 0 -1
BITMAP
000000
000000
000000
000000
1ffe00
000000
000000
000000
1ffe00
000000
000000
000000
1ffe00
000000
000000
000000
000000
000000
000000
ENDCHAR
STARTCHAR 2262
ENCODING 8802
SWIDTH	-8531 0
DWIDTH	18 0
BBX 18	19 0 -1
BITMAP
000000
000000
000000
0c0000
0c0000
000000
1ffe00
000000
000000
000000
1ffe00
000000
000c00
000c00
000000
000000
000000
000000
000000
ENDCHAR
STARTCHAR 2263
ENCODING 8803
SWIDTH	-8531 0
DWIDTH	18 0
BBX 18	19 0 -1
BITMAP
000000
000000
002100
004200
018c00
021000
0c6000
108000
210000
108000
084000
042000
031800
008400
004200
002100
000000
000000
000000
ENDCHAR
STARTCHAR 2264
ENCODING 8804
SWIDTH	-8531 0
DWIDTH	18 0
BBX 18	19 0 -1
BITMAP
000000
000000
210000
108000
0c6000
021000
018c00
004200
002100
004200
008400
010800
063000
084000
108000
210000
000000
000000
000000
ENDCHAR
STARTCHAR 2265
ENCODING 8805
SWIDTH	-8531 0
DWIDTH	18 0
BBX 18	19 0 -1
BITMAP
000000
007f80
004000
004000
008000
008000
008000
008000
010000
010000
010000
110000
320000
4a0000
0a0000
040000
040000
000000
000000
ENDCHAR
STARTCHAR 2266
ENCODING 8806
SWIDTH	-8531 0
DWIDTH	18 0
BBX 18	19 0 -1
BITMAP
000000
000000
000000
000000
000000
0e1c00
102200
204100
204100
208100
208100
110200
0e1c00
000000
000000
000000
000000
000000
000000
ENDCHAR
STARTCHAR 2267
ENCODING 8807
SWIDTH	-8531 0
DWIDTH	18 0
BBX 18	19 0 -1
BITMAP
000000
000000
000000
000000
000000
0f1e00
10a100
204000
204000
204000
204000
10a100
0f1e00
000000
000000
000000
000000
000000
000000
ENDCHAR
STARTCHAR 2268
ENCODING 8808
SWIDTH	-8531 0
DWIDTH	18 0
BBX 18	19 0 -1
BITMAP
000000
000000
000000
000000
180600
180600
000000
000000
000000
000000
000000
000000
00c000
00c000
000000
000000
000000
000000
000000
ENDCHAR
STARTCHAR 2269
ENCODING 8809
SWIDTH	-8531 0
DWIDTH	18 0
BBX 18	19 0 -1
BITMAP
000000
00e000
012000
010000
010000
010000
008000
008000
008000
004000
004000
004000
002000
002000
002000
012000
01c000
000000
000000
ENDCHAR
STARTCHAR 226a
ENCODING 8810
SWIDTH	-8531 0
DWIDTH	18 0
BBX 18	19 0 -1
BITMAP
000000
071c00
092400
082000
082000
082000
041000
041000
041000
020800
020800
020800
010400
010400
010400
092400
0e3800
000000
000000
ENDCHAR
STARTCHAR 2272
ENCODING 8818
SWIDTH	-8531 0
DWIDTH	18 0
BBX 18	19 0 -1
BITMAP
000000
00c000
012000
012000
00c000
000000
008000
014000
014000
022000
021000
07f800
040800
080400
3e1f00
000000
000000
000000
000000
ENDCHAR
STARTCHAR 2273
ENCODING 8819
SWIDTH	-8531 0
DWIDTH	18 0
BBX 18	19 0 -1
BITMAP
000000
000000
182000
242000
244000
248000
248000
250000
1a0000
02c600
052900
092900
092900
112900
212900
20c600
000000
000000
000000
ENDCHAR
STARTCHAR 2274
ENCODING 8820
SWIDTH	-8531 0
DWIDTH	18 0
BBX 18	19 0 -1
BITMAP
000000
001000
021000
021000
021e00
03fe00
1ff000
1e1000
021000
021000
021e00
03fe00
1ff000
1e1000
021000
021000
020000
000000
000000
ENDCHAR
STARTCHAR 2275
ENCODING 8821
SWIDTH	-8531 0
DWIDTH	18 0
BBX 18	19 0 -1
BITMAP
000000
020000
020000
020000
020000
020000
020000
02f000
030800
020800
020800
020800
021000
022000
024000
038000
020000
000000
000000
ENDCHAR
STARTCHAR 2276
ENCODING 8822
SWIDTH	-8531 0
DWIDTH	18 0
BBX 18	19 0 -1
BITMAP
000000
004000
004000
006000
005000
004800
004400
004200
004200
004200
004400
004800
004000
07c000
0fc000
0f8000
070000
000000
000000
ENDCHAR
STARTCHAR 2277
ENCODING 8823
SWIDTH	-8531 0
DWIDTH	18 0
BBX 18	19 0 -1
BITMAP
000000
008000
01c000
049000
0ff800
049000
008000
03e000
01c000
01c000
01c000
008000
008000
008000
008000
008000
008000
000000
000000
ENDCHAR
STARTCHAR 2278
ENCODING 8824
SWIDTH	-8531 0
DWIDTH	18 0
BBX 18	19 0 -1
BITMAP
000000
008000
01c000
049000
0ff800
049000
01c000
01c000
008000
008000
01c000
01c000
049000
0ff800
049000
01c000
008000
000000
000000
ENDCHAR
STARTCHAR 2279
ENCODING 8825
SWIDTH	-8531 0
DWIDTH	18 0
BBX 18	19 0 -1
BITMAP
000000
000000
03f000
079000
0f9000
0f9000
0f9000
079000
039000
009000
009000
009000
009000
009000
009000
009000
009000
000000
000000
ENDCHAR
STARTCHAR 227e
ENCODING 8830
SWIDTH	-8531 0
DWIDTH	18 0
BBX 18	19 0 -1
BITMAP
000000
01e000
061800
080400
100200
200100
200100
400080
400080
400080
400080
200100
200100
100200
080400
061800
01e000
000000
000000
ENDCHAR
STARTCHAR 2330
ENCODING 9008
SWIDTH	-8531 0
DWIDTH	18 0
BBX 18	19 0 -1
BITMAP
000000
000000
03f000
040800
080400
100200
100200
100200
100200
100200
100200
100200
100200
080400
040800
03f000
000000
000000
000000
ENDCHAR
STARTCHAR 2331
ENCODING 9009
SWIDTH	-8531 0
DWIDTH	18 0
BBX 18	19 0 -1
BITMAP
000000
000000
00c000
014000
024000
044000
084000
004000
004000
004000
004000
004000
004000
004000
004000
07fc00
000000
000000
000000
ENDCHAR
STARTCHAR 2332
ENCODING 9010
SWIDTH	-8531 0
DWIDTH	18 0
BBX 18	19 0 -1
BITMAP
000000
000000
07f000
080800
100400
000400
000400
000800
003000
00c000
030000
040000
080000
100000
100000
1ffe00
000000
000000
000000
ENDCHAR
STARTCHAR 2333
ENCODING 9011
SWIDTH	-8531 0
DWIDTH	18 0
BBX 18	19 0 -1
BITMAP
000000
000000
03f800
040400
080200
000200
000200
000400
01f800
000400
000200
000200
000200
100200
080400
07f800
000000
000000
000000
ENDCHAR
STARTCHAR 2334
ENCODING 9012
SWIDTH	-8531 0
DWIDTH	18 0
BBX 18	19 0 -1
BITMAP
000000
000000
003800
004800
008800
010800
020800
040800
080800
100800
200800
200800
3ffe00
000800
000800
000800
000000
000000
000000
ENDCHAR
STARTCHAR 2335
ENCODING 9013
SWIDTH	-8531 0
DWIDTH	18 0
BBX 18	19 0 -1
BITMAP
000000
000000
1ffc00
100000
100000
100000
100000
11f000
160c00
180200
000200
000200
000200
100200
080c00
07f000
000000
000000
000000
ENDCHAR
STARTCHAR 2336
ENCODING 9014
SWIDTH	-8531 0
DWIDTH	18 0
BBX 18	19 0 -1
BITMAP
000000
000000
03f800
040400
080200
100000
100000
13f000
140c00
180200
100200
100200
100200
100200
0c0c00
03f000
000000
000000
000000
ENDCHAR
STARTCHAR 2337
ENCODING 9015
SWIDTH	-8531 0
DWIDTH	18 0
BBX 18	19 0 -1
BITMAP
000000
000000
1ffe00
100200
100200
100400
000800
001000
001000
002000
002000
002000
004000
004000
004000
004000
000000
000000
000000
ENDCHAR
STARTCHAR 2338
ENCODING 9016
SWIDTH	-8531 0
DWIDTH	18 0
BBX 18	19 0 -1
BITMAP
000000
000000
07f800
080400
100200
100200
100200
080400
07f800
080400
100200
100200
100200
100200
080400
07f800
000000
000000
000000
ENDCHAR
STARTCHAR 2339
ENCODING 9017
SWIDTH	-8531 0
DWIDTH	18 0
BBX 18	19 0 -1
BITMAP
000000
000000
03f000
0c0c00
100200
100200
100200
100200
100600
0c0a00
03f200
000200
000400
100400
080800
07f000
000000
000000
000000
ENDCHAR
STARTCHAR 2341
ENCODING 9025
SWIDTH	-8531 0
DWIDTH	18 0
BBX 18	19 0 -1
BITMAP
000000
000000
00c000
00c000
012000
012000
021000
021000
040800
040800
080400
0ffc00
100200
100200
200100
200100
000000
000000
000000
ENDCHAR
STARTCHAR 2342
ENCODING 9026
SWIDTH	-8531 0
DWIDTH	18 0
BBX 18	19 0 -1
BITMAP
000000
000000
3ff800
100400
100200
100200
100200
100400
1ff800
100400
100200
100200
100200
100200
100400
3ff800
000000
000000
000000
ENDCHAR
STARTCHAR 2343
ENCODING 9027
SWIDTH	-8531 0
DWIDTH	18 0
BBX 18	19 0 -1
BITMAP
000000
000000
07f800
080400
100200
200100
200000
200000
200000
200000
200000
200000
200100
100200
080400
07f800
000000
000000
000000
ENDCHAR
STARTCHAR 2344
ENCODING 9028
SWIDTH	-8531 0
DWIDTH	18 0
BBX 18	19 0 -1
BITMAP
000000
000000
3ff800
100400
100200
100100
100100
100100
100100
100100
100100
100100
100100
100200
100400
3ff800
000000
000000
000000
ENDCHAR
STARTCHAR 2345
ENCODING 9029
SWIDTH	-8531 0
DWIDTH	18 0
BBX 18	19 0 -1
BITMAP
000000
000000
1ffe00
100000
100000
100000
100000
100000
1ff800
100000
100000
100000
100000
100000
100000
1ffe00
000000
000000
000000
ENDCHAR
STARTCHAR 2346
ENCODING 9030
SWIDTH	-8531 0
DWIDTH	18 0
BBX 18	19 0 -1
BITMAP
000000
000000
1ffe00
100000
100000
100000
100000
100000
1ff800
100000
100000
100000
100000
100000
100000
100000
000000
000000
000000
ENDCHAR
STARTCHAR 2347
ENCODING 9031
SWIDTH	-8531 0
DWIDTH	18 0
BBX 18	19 0 -1
BITMAP
000000
000000
07f800
080400
100200
200100
200000
200000
200000
207f00
200100
200100
200100
100300
080500
07f900
000000
000000
000000
ENDCHAR
STARTCHAR 2348
ENCODING 9032
SWIDTH	-8531 0
DWIDTH	18 0
BBX 18	19 0 -1
BITMAP
000000
000000
100200
100200
100200
100200
100200
100200
1ffe00
100200
100200
100200
100200
100200
100200
100200
000000
000000
000000
ENDCHAR
STARTCHAR 2349
ENCODING 9033
SWIDTH	-8531 0
DWIDTH	18 0
BBX 18	19 0 -1
BITMAP
000000
000000
03e000
008000
008000
008000
008000
008000
008000
008000
008000
008000
008000
008000
008000
03e000
000000
000000
000000
ENDCHAR
STARTCHAR 234a
ENCODING 9034
SWIDTH	-8531 0
DWIDTH	18 0
BBX 18	19 0 -1
BITMAP
000000
000000
001f00
000400
000400
000400
000400
000400
000400
100400
100400
100400
100400
080800
041000
03e000
000000
000000
000000
ENDCHAR
STARTCHAR 234b
ENCODING 9035
SWIDTH	-8531 0
DWIDTH	18 0
BBX 18	19 0 -1
BITMAP
000000
000000
080400
080800
081000
082000
084000
088000
090000
0a8000
0c4000
082000
081000
080800
080400
080200
000000
000000
000000
ENDCHAR
STARTCHAR 234c
ENCODING 9036
SWIDTH	-8531 0
DWIDTH	18 0
BBX 18	19 0 -1
BITMAP
000000
000000
080000
080000
080000
080000
080000
080000
080000
080000
080000
080000
080000
080000
080000
0ffe00
000000
000000
000000
ENDCHAR
STARTCHAR 234d
ENCODING 9037
SWIDTH	-8531 0
DWIDTH	18 0
BBX 18	19 0 -1
BITMAP
000000
000000
600300
500500
500500
480900
480900
441100
441100
422100
422100
414100
414100
408100
408100
400100
000000
000000
000000
ENDCHAR
STARTCHAR 234e
ENCODING 9038
SWIDTH	-8531 0
DWIDTH	18 0
BBX 18	19 0 -1
BITMAP
000000
000000
180200
140200
120200
120200
110200
110200
108200
104200
104200
102200
101200
101200
100a00
100600
000000
000000
000000
ENDCHAR
STARTCHAR 234f
ENCODING 9039
SWIDTH	-8531 0
DWIDTH	18 0
BBX 18	19 0 -1
BITMAP
000000
000000
07f800
080400
100200
200100
200100
200100
200100
200100
200100
200100
200100
100200
080400
07f800
000000
000000
000000
ENDCHAR
STARTCHAR 2350
ENCODING 9040
SWIDTH	-8531 0
DWIDTH	18 0
BBX 18	19 0 -1
BITMAP
000000
000000
1ff800
100400
100200
100200
100200
100200
100400
1ff800
100000
100000
100000
100000
100000
100000
000000
000000
000000
ENDCHAR
STARTCHAR 2351
ENCODING 9041
SWIDTH	-8531 0
DWIDTH	18 0
BBX 18	19 0 -1
BITMAP
000000
000000
07f800
080400
100200
200100
200100
200100
200100
200100
201100
200900
200500
100200
080500
07f880
000000
000000
000000
ENDCHAR
STARTCHAR 2352
ENCODING 9042
SWIDTH	-8531 0
DWIDTH	18 0
BBX 18	19 0 -1
BITMAP
000000
000000
1ff800
100400
100200
100200
100200
100200
100400
1ff800
108000
104000
102000
101000
100800
100400
000000
000000
000000
ENDCHAR
STARTCHAR 2353
ENCODING 9043
SWIDTH	-8531 0
DWIDTH	18 0
BBX 18	19 0 -1
BITMAP
000000
000000
07f800
080400
100200
100000
100000
080000
07f800
000400
000200
000200
000200
200200
180400
07f800
000000
000000
000000
ENDCHAR
STARTCHAR 2354
ENCODING 9044
SWIDTH	-8531 0
DWIDTH	18 0
BBX 18	19 0 -1
BITMAP
000000
000000
3ffe00
008000
008000
008000
008000
008000
008000
008000
008000
008000
008000
008000
008000
008000
000000
000000
000000
ENDCHAR
STARTCHAR 2355
ENCODING 9045
SWIDTH	-8531 0
DWIDTH	18 0
BBX 18	19 0 -1
BITMAP
000000
000000
100200
100200
100200
100200
100200
100200
100200
100200
100200
100200
100200
080400
040800
03f000
000000
000000
000000
ENDCHAR
STARTCHAR 2356
ENCODING 9046
SWIDTH	-8531 0
DWIDTH	18 0
BBX 18	19 0 -1
BITMAP
000000
000000
200200
200200
200200
100400
100400
080800
080800
041000
041000
022000
022000
014000
014000
008000
000000
000000
000000
ENDCHAR
STARTCHAR 2357
ENCODING 9047
SWIDTH	-8531 0
DWIDTH	18 0
BBX 18	19 0 -1
BITMAP
000000
000000
400100
400100
400100
408100
208200
208200
208200
208200
114400
114400
114400
0a2800
0a2800
041000
000000
000000
000000
ENDCHAR
STARTCHAR 2358
ENCODING 9048
SWIDTH	-8531 0
DWIDTH	18 0
BBX 18	19 0 -1
BITMAP
000000
000000
380700
100200
080400
040800
021000
012000
00c000
00c000
012000
021000
040800
080400
100200
380700
000000
000000
000000
ENDCHAR
STARTCHAR 2359
ENCODING 9049
SWIDTH	-8531 0
DWIDTH	18 0
BBX 18	19 0 -1
BITMAP
000000
000000
400100
200200
100400
080800
041000
022000
014000
008000
008000
008000
008000
008000
008000
008000
000000
000000
000000
ENDCHAR
STARTCHAR 235a
ENCODING 9050
SWIDTH	-8531 0
DWIDTH	18 0
BBX 18	19 0 -1
BITMAP
000000
000000
1fff00
000200
000400
000800
001000
002000
004000
008000
010000
020000
040000
080000
100000
3fff00
000000
000000
000000
ENDCHAR
STARTCHAR 2361
ENCODING 9057
SWIDTH	-8531 0
DWIDTH	18 0
BBX 18	19 0 -1
BITMAP
000000
000000
000000
000000
03f000
040800
080400
000400
07f400
080c00
100400
100400
100400
100400
080a00
07f100
000000
000000
000000
ENDCHAR
STARTCHAR 2362
ENCODING 9058
SWIDTH	-8531 0
DWIDTH	18 0
BBX 18	19 0 -1
BITMAP
000000
000000
080000
080000
080000
09f000
0a0800
0c0400
080200
080200
080200
080200
080200
0c0400
0a0800
09f000
000000
000000
000000
ENDCHAR
STARTCHAR 2363
ENCODING 9059
SWIDTH	-8531 0
DWIDTH	18 0
BBX 18	19 0 -1
BITMAP
000000
000000
000000
000000
03f000
040800
080400
100200
100000
100000
100000
100000
100200
080400
040800
03f000
000000
000000
000000
ENDCHAR
STARTCHAR 2364
ENCODING 9060
SWIDTH	-8531 0
DWIDTH	18 0
BBX 18	19 0 -1
BITMAP
000000
000000
000200
000200
000200
03f200
040a00
080600
100200
100200
100200
100200
100200
080600
040a00
03f200
000000
000000
000000
ENDCHAR
STARTCHAR 2365
ENCODING 9061
SWIDTH	-8531 0
DWIDTH	18 0
BBX 18	19 0 -1
BITMAP
000000
000000
000000
000000
03f000
040800
080400
100200
100200
1ffe00
100000
100000
100000
080400
040800
03f000
000000
000000
000000
ENDCHAR
STARTCHAR 2366
ENCODING 9062
SWIDTH	-8531 0
DWIDTH	18 0
BBX 18	19 0 -1
BITMAP
000000
000000
007800
008000
010000
010000
010000
0ffc00
010000
010000
010000
010000
010000
010000
010000
010000
000000
000000
000000
ENDCHAR
STARTCHAR 2367
ENCODING 9063
SWIDTH	-8531 0
DWIDTH	18 0
BBX 18	19 0 -1
BITMAP
000000
000000
000000
000000
000000
03f200
040a00
080600
100200
100200
100200
080600
040a00
03f200
000200
000400
03f800
000000
000000
ENDCHAR
STARTCHAR 2368
ENCODING 9064
SWIDTH	-8531 0
DWIDTH	18 0
BBX 18	19 0 -1
BITMAP
000000
000000
100000
100000
100000
13f000
140800
180400
100200
100200
100200
100200
100200
100200
100200
100200
000000
000000
000000
ENDCHAR
STARTCHAR 2369
ENCODING 9065
SWIDTH	-8531 0
DWIDTH	18 0
BBX 18	19 0 -1
BITMAP
000000
004000
004000
000000
000000
004000
004000
004000
004000
004000
004000
004000
004000
004000
004000
004000
000000
000000
000000
ENDCHAR
STARTCHAR 236a
ENCODING 9066
SWIDTH	-8531 0
DWIDTH	18 0
BBX 18	19 0 -1
BITMAP
000000
002000
002000
000000
000000
002000
002000
002000
002000
002000
002000
002000
002000
004000
008000
070000
000000
000000
000000
ENDCHAR
STARTCHAR 236b
ENCODING 9067
SWIDTH	-8531 0
DWIDTH	18 0
BBX 18	19 0 -1
BITMAP
000000
040000
040000
040000
040000
040000
041000
042000
044000
048000
050000
068000
044000
042000
041000
040800
000000
000000
000000
ENDCHAR
STARTCHAR 236c
ENCODING 9068
SWIDTH	-8531 0
DWIDTH	18 0
BBX 18	19 0 -1
BITMAP
000000
008000
008000
008000
008000
008000
008000
008000
008000
008000
008000
008000
008000
008000
008000
00e000
000000
000000
000000
ENDCHAR
STARTCHAR 236d
ENCODING 9069
SWIDTH	-8531 0
DWIDTH	18 0
BBX 18	19 0 -1
BITMAP
000000
000000
000000
000000
4f1e00
50a100
604080
404080
404080
404080
404080
404080
404080
404080
404080
404080
000000
000000
000000
ENDCHAR
STARTCHAR 236e
ENCODING 9070
SWIDTH	-8531 0
DWIDTH	18 0
BBX 18	19 0 -1
BITMAP
000000
000000
000000
000000
13f000
140800
180400
100200
100200
100200
100200
100200
100200
100200
100200
100200
000000
000000
000000
ENDCHAR
STARTCHAR 236f
ENCODING 9071
SWIDTH	-8531 0
DWIDTH	18 0
BBX 18	19 0 -1
BITMAP
000000
000000
000000
000000
03f000
040800
080400
100200
100200
100200
100200
100200
100200
080400
040800
03f000
000000
000000
000000
ENDCHAR
STARTCHAR 2370
ENCODING 9072
SWIDTH	-8531 0
DWIDTH	18 0
BBX 18	19 0 -1
BITMAP
000000
000000
000000
000000
13f000
140800
180400
100200
100200
100200
100200
100200
180400
140800
13f000
100000
100000
000000
000000
ENDCHAR
STARTCHAR 2371
ENCODING 9073
SWIDTH	-8531 0
DWIDTH	18 0
BBX 18	19 0 -1
BITMAP
000000
000000
000000
000000
03f200
040a00
080600
100200
100200
100200
100200
100200
080600
040a00
03f200
000200
000200
000000
000000
ENDCHAR
STARTCHAR 2372
ENCODING 9074
SWIDTH	-8531 0
DWIDTH	18 0
BBX 18	19 0 -1
BITMAP
000000
000000
000000
000000
04f800
050000
060000
040000
040000
040000
040000
040000
040000
040000
040000
040000
000000
000000
000000
ENDCHAR
STARTCHAR 2373
ENCODING 9075
SWIDTH	-8531 0
DWIDTH	18 0
BBX 18	19 0 -1
BITMAP
000000
000000
000000
000000
03f000
040800
080400
080000
040000
03f000
000c00
000200
100200
100200
080400
07f800
000000
000000
000000
ENDCHAR
STARTCHAR 2374
ENCODING 9076
SWIDTH	-8531 0
DWIDTH	18 0
BBX 18	19 0 -1
BITMAP
000000
010000
010000
010000
0ffc00
010000
010000
010000
010000
010000
010000
010000
010000
010400
008800
007000
000000
000000
000000
ENDCHAR
STARTCHAR 2375
ENCODING 9077
SWIDTH	-8531 0
DWIDTH	18 0
BBX 18	19 0 -1
BITMAP
000000
000000
000000
000000
100200
100200
100200
100200
100200
100200
100200
100200
100200
080600
040a00
03f200
000000
000000
000000
ENDCHAR
STARTCHAR 2376
ENCODING 9078
SWIDTH	-8531 0
DWIDTH	18 0
BBX 18	19 0 -1
BITMAP
000000
000000
000000
000000
100400
100400
100400
080800
080800
041000
041000
041000
022000
022000
014000
008000
000000
000000
000000
ENDCHAR
STARTCHAR 2377
ENCODING 9079
SWIDTH	-8531 0
DWIDTH	18 0
BBX 18	19 0 -1
BITMAP
000000
000000
000000
000000
400100
400100
400100
208200
208200
208200
114400
114400
114400
0a2800
0a2800
041000
000000
000000
000000
ENDCHAR
STARTCHAR 2378
ENCODING 9080
SWIDTH	-8531 0
DWIDTH	18 0
BBX 18	19 0 -1
BITMAP
000000
000000
000000
000000
080400
080400
040800
021000
012000
00c000
00c000
012000
021000
040800
080400
080400
000000
000000
000000
ENDCHAR
STARTCHAR 2379
ENCODING 9081
SWIDTH	-8531 0
DWIDTH	18 0
BBX 18	19 0 -1
BITMAP
000000
000000
000000
000000
100400
080400
080400
040800
040800
021000
021000
012000
012000
00c000
008000
010000
0e0000
000000
000000
ENDCHAR
STARTCHAR 237a
ENCODING 9082
SWIDTH	-8531 0
DWIDTH	18 0
BBX 18	19 0 -1
BITMAP
000000
000000
000000
000000
07fc00
000400
000800
001000
002000
004000
008000
010000
020000
040000
080000
0ffe00
000000
000000
000000
ENDCHAR
STARTCHAR 2421
ENCODING 9249
SWIDTH	-8531 0
DWIDTH	18 0
BBX 18	19 0 -1
BITMAP
000000
000000
000000
000000
000000
008000
008000
0ff800
008000
009000
03f800
049400
08a200
08c200
088200
090400
061800
000000
000000
ENDCHAR
STARTCHAR 2422
ENCODING 9250
SWIDTH	-8531 0
DWIDTH	18 0
BBX 18	19 0 -1
BITMAP
000000
000000
010000
010000
1ffc00
010000
010800
03fc00
050a00
091100
111080
10a080
10a080
104080
088100
070600
001800
000000
000000
ENDCHAR
STARTCHAR 2423
ENCODING 9251
SWIDTH	-8531 0
DWIDTH	18 0
BBX 18	19 0 -1
BITMAP
000000
000000
000000
000000
000000
000000
000000
080000
081000
080800
080800
080400
080400
080400
088400
050000
030000
000000
000000
ENDCHAR
STARTCHAR 2424
ENCODING 9252
SWIDTH	-8531 0
DWIDTH	18 0
BBX 18	19 0 -1
BITMAP
000000
000000
000000
100000
100800
100400
100400
100200
100200
100200
100200
100200
080200
088000
050000
020000
000000
000000
000000
ENDCHAR
STARTCHAR 2425
ENCODING 9253
SWIDTH	-8531 0
DWIDTH	18 0
BBX 18	19 0 -1
BITMAP
000000
000000
000000
000000
000000
030000
00e000
000000
0fe000
001000
000800
000800
000800
001000
002000
00c000
070000
000000
000000
ENDCHAR
STARTCHAR 2426
ENCODING 9254
SWIDTH	-8531 0
DWIDTH	18 0
BBX 18	19 0 -1
BITMAP
000000
000000
020000
01f000
000000
000000
03f800
1c0400
000200
000200
000200
000200
000400
000800
001000
006000
038000
000000
000000
ENDCHAR
STARTCHAR 2427
ENCODING 9255
SWIDTH	-8531 0
DWIDTH	18 0
BBX 18	19 0 -1
BITMAP
000000
000000
000000
000000
000000
030000
00e000
000000
0ff000
002000
004000
008000
01c000
022000
042000
082000
101e00
000000
000000
ENDCHAR
STARTCHAR 2428
ENCODING 9256
SWIDTH	-8531 0
DWIDTH	18 0
BBX 18	19 0 -1
BITMAP
000000
000000
040000
038000
006000
000000
1ff800
001000
002000
004000
008000
01c000
022000
042000
082000
102000
201f00
000000
000000
ENDCHAR
STARTCHAR 2429
ENCODING 9257
SWIDTH	-8531 0
DWIDTH	18 0
BBX 18	19 0 -1
BITMAP
000000
000000
000000
000000
000000
020000
020000
1fc800
020400
020200
020200
07f000
0a0800
120400
120400
1a0400
063800
000000
000000
ENDCHAR
STARTCHAR 242a
ENCODING 9258
SWIDTH	-8531 0
DWIDTH	18 0
BBX 18	19 0 -1
BITMAP
000000
000000
010000
010000
010400
1ff200
010200
010100
010000
07f800
090400
110200
110200
210200
210200
310400
0e3800
000000
000000
ENDCHAR
STARTCHAR 242b
ENCODING 9259
SWIDTH	-8531 0
DWIDTH	18 0
BBX 18	19 0 -1
BITMAP
000000
000000
010000
010000
010000
010800
3fe400
021200
021200
021100
041100
041100
081000
081000
122000
212000
00c000
000000
000000
ENDCHAR
STARTCHAR 242c
ENCODING 9260
SWIDTH	-8531 0
DWIDTH	18 0
BBX 18	19 0 -1
BITMAP
000000
000000
010100
010480
010200
010800
3fe400
021200
021200
021100
041100
041100
081000
081000
122000
212000
00c000
000000
000000
ENDCHAR
STARTCHAR 242d
ENCODING 9261
SWIDTH	-8531 0
DWIDTH	18 0
BBX 18	19 0 -1
BITMAP
000000
000000
008000
008000
1ffe00
004000
004000
3fff00
002000
002000
019000
107000
201800
200000
200000
1c0000
03f800
000000
000000
ENDCHAR
STARTCHAR 242e
ENCODING 9262
SWIDTH	-8531 0
DWIDTH	18 0
BBX 18	19 0 -1
BITMAP
000000
000900
008480
008000
1ffe00
004000
004000
3fff00
002000
002000
039000
007000
200800
200000
200000
180000
07f800
000000
000000
ENDCHAR
STARTCHAR 242f
ENCODING 9263
SWIDTH	-8531 0
DWIDTH	18 0
BBX 18	19 0 -1
BITMAP
000000
001000
001000
002000
004000
008000
010000
020000
040000
080000
060000
018000
004000
002000
001000
000800
000800
000000
000000
ENDCHAR
STARTCHAR 2430
ENCODING 9264
SWIDTH	-8531 0
DWIDTH	18 0
BBX 18	19 0 -1
BITMAP
000000
001000
001000
002100
004480
008200
010000
060000
080000
080000
060000
010000
008000
004000
002000
001000
001000
000000
000000
ENDCHAR
STARTCHAR 2431
ENCODING 9265
SWIDTH	-8531 0
DWIDTH	18 0
BBX 18	19 0 -1
BITMAP
000000
000000
001000
200800
200800
200800
27ff00
200800
200800
200800
200800
200800
240800
281000
301000
102000
01c000
000000
000000
ENDCHAR
STARTCHAR 2432
ENCODING 9266
SWIDTH	-8531 0
DWIDTH	18 0
BBX 18	19 0 -1
BITMAP
000000
000100
000480
001200
200800
200800
27ff00
200800
200800
200800
200800
200800
240800
281000
301000
102000
01c000
000000
000000
ENDCHAR
STARTCHAR 2433
ENCODING 9267
SWIDTH	-8531 0
DWIDTH	18 0
BBX 18	19 0 -1
BITMAP
000000
000000
000000
000000
0ffc00
002000
004000
008000
000000
080000
100000
200000
200000
200100
180600
07f800
000000
000000
000000
ENDCHAR
STARTCHAR 2434
ENCODING 9268
SWIDTH	-8531 0
DWIDTH	18 0
BBX 18	19 0 -1
BITMAP
000000
000000
000000
0ffc00
002000
004100
008480
000200
000000
000000
080000
100000
200000
200000
200100
180600
07f800
000000
000000
ENDCHAR
STARTCHAR 2435
ENCODING 9269
SWIDTH	-8531 0
DWIDTH	18 0
BBX 18	19 0 -1
BITMAP
000000
000000
008000
008000
008000
3fff00
004000
002000
002000
039000
007000
200800
200000
200000
300000
0e0000
01f800
000000
000000
ENDCHAR
STARTCHAR 2436
ENCODING 9270
SWIDTH	-8531 0
DWIDTH	18 0
BBX 18	19 0 -1
BITMAP
000000
000200
008900
008400
008000
3fff00
004000
002000
002000
039000
007000
200800
200000
200000
100000
0c0000
03f800
000000
000000
ENDCHAR
STARTCHAR 2437
ENCODING 9271
SWIDTH	-8531 0
DWIDTH	18 0
BBX 18	19 0 -1
BITMAP
000000
000000
000000
080000
080000
080000
080000
080000
080000
080000
080100
080100
080200
080200
080400
041800
03e000
000000
000000
ENDCHAR
STARTCHAR 2438
ENCODING 9272
SWIDTH	-8531 0
DWIDTH	18 0
BBX 18	19 0 -1
BITMAP
000000
000000
080800
082400
081000
080000
080000
080000
080000
080100
080100
080100
080200
080200
080400
041800
03e000
000000
000000
ENDCHAR
STARTCHAR 2439
ENCODING 9273
SWIDTH	-8531 0
DWIDTH	18 0
BBX 18	19 0 -1
BITMAP
000000
000000
001000
001000
001000
3fff00
001000
001000
01f000
020800
020800
021800
01e800
000800
001000
006000
038000
000000
000000
ENDCHAR
STARTCHAR 243a
ENCODING 9274
SWIDTH	-8531 0
DWIDTH	18 0
BBX 18	19 0 -1
BITMAP
000000
000100
001480
001200
001000
3fff00
001000
001000
01f000
020800
020800
021800
01e800
001000
002000
00c000
070000
000000
000000
ENDCHAR
STARTCHAR 243b
ENCODING 9275
SWIDTH	-8531 0
DWIDTH	18 0
BBX 18	19 0 -1
BITMAP
000000
000000
000000
040400
040400
040400
040400
3fff80
040400
040400
044400
042400
041800
040000
040000
030000
00fc00
000000
000000
ENDCHAR
STARTCHAR 243c
ENCODING 9276
SWIDTH	-8531 0
DWIDTH	18 0
BBX 18	19 0 -1
BITMAP
000000
000100
000480
040a00
040800
040800
040800
3fff80
040800
040800
042800
041800
041000
040000
040000
030000
00fc00
000000
000000
ENDCHAR
STARTCHAR 243d
ENCODING 9277
SWIDTH	-8531 0
DWIDTH	18 0
BBX 18	19 0 -1
BITMAP
000000
000000
040000
03f800
001000
006000
018000
020000
3fff00
004000
008000
010000
020000
020000
020000
018000
007c00
000000
000000
ENDCHAR
STARTCHAR 243e
ENCODING 9278
SWIDTH	-8531 0
DWIDTH	18 0
BBX 18	19 0 -1
BITMAP
000000
000000
080000
07f900
001480
006200
018000
020000
3fff00
004000
008000
010000
020000
020000
020000
018000
007c00
000000
000000
ENDCHAR
STARTCHAR 243f
ENCODING 9279
SWIDTH	-8531 0
DWIDTH	18 0
BBX 18	19 0 -1
BITMAP
000000
000000
020000
020000
020000
3ff800
040000
040000
047e00
080800
081000
080000
108000
110000
210000
008000
007f00
000000
000000
ENDCHAR
STARTCHAR 2440
ENCODING 9280
SWIDTH	-8531 0
DWIDTH	18 0
BBX 18	19 0 -1
BITMAP
000000
000200
020900
020400
020000
3ff800
040000
040000
047e00
080800
081000
088000
110000
110000
210000
008000
007f00
000000
000000
ENDCHAR
STARTCHAR 2441
ENCODING 9281
SWIDTH	-8531 0
DWIDTH	18 0
BBX 18	19 0 -1
BITMAP
000000
000000
010000
010000
010000
3ffe00
020000
020000
040000
04f800
0f0600
180100
000100
000100
000600
003800
03c000
000000
000000
ENDCHAR
STARTCHAR 2442
ENCODING 9282
SWIDTH	-8531 0
DWIDTH	18 0
BBX 18	19 0 -1
BITMAP
000000
000200
010900
010400
010000
3fff00
020000
020000
040000
04f800
0f0600
180100
000100
000100
000600
003800
03c000
000000
000000
ENDCHAR
STARTCHAR 2443
ENCODING 9283
SWIDTH	-8531 0
DWIDTH	18 0
BBX 18	19 0 -1
BITMAP
000000
000000
000000
000000
000000
000000
000000
1fe000
001800
000400
000400
000400
000400
000800
003000
01c000
000000
000000
000000
ENDCHAR
STARTCHAR 2444
ENCODING 9284
SWIDTH	-8531 0
DWIDTH	18 0
BBX 18	19 0 -1
BITMAP
000000
000000
000000
000000
000000
3ffc00
000200
000100
000100
000100
000100
000100
000200
000400
001800
01e000
000000
000000
000000
ENDCHAR
STARTCHAR 2445
ENCODING 9285
SWIDTH	-8531 0
DWIDTH	18 0
BBX 18	19 0 -1
BITMAP
000000
000200
000900
000400
000000
3ffc00
000200
000100
000100
000100
000100
000100
000200
000400
001800
01e000
000000
000000
000000
ENDCHAR
STARTCHAR 2446
ENCODING 9286
SWIDTH	-8531 0
DWIDTH	18 0
BBX 18	19 0 -1
BITMAP
000000
000000
000000
3fff00
000800
001000
002000
004000
008000
008000
010000
010000
010000
010000
008000
006000
001c00
000000
000000
ENDCHAR
STARTCHAR 2447
ENCODING 9287
SWIDTH	-8531 0
DWIDTH	18 0
BBX 18	19 0 -1
BITMAP
000000
000000
000000
3fff00
001000
002000
004100
008480
010200
010000
020000
020000
020000
020000
010000
00c000
003800
000000
000000
ENDCHAR
STARTCHAR 2448
ENCODING 9288
SWIDTH	-8531 0
DWIDTH	18 0
BBX 18	19 0 -1
BITMAP
000000
000000
040000
040000
040000
040600
021800
026000
018000
060000
080000
100000
200000
200000
200000
180000
07fc00
000000
000000
ENDCHAR
STARTCHAR 2449
ENCODING 9289
SWIDTH	-8531 0
DWIDTH	18 0
BBX 18	19 0 -1
BITMAP
000000
000200
040900
040400
040000
040600
021800
026000
018000
060000
080000
100000
200000
200000
200000
180000
07fc00
000000
000000
ENDCHAR
STARTCHAR 244a
ENCODING 9290
SWIDTH	-8531 0
DWIDTH	18 0
BBX 18	19 0 -1
BITMAP
000000
000000
020000
020000
020000
3ff800
020000
020000
040f00
040880
080800
080800
11f800
220e00
020900
010800
00f000
000000
000000
ENDCHAR
STARTCHAR 244b
ENCODING 9291
SWIDTH	-8531 0
DWIDTH	18 0
BBX 18	19 0 -1
BITMAP
000000
000000
000000
200000
23fe00
200800
201000
200000
200000
208000
210000
220000
220000
220000
210100
28fe00
100000
000000
000000
ENDCHAR
STARTCHAR 244c
ENCODING 9292
SWIDTH	-8531 0
DWIDTH	18 0
BBX 18	19 0 -1
BITMAP
000000
000000
041000
041000
041000
07f800
0c1400
141200
142200
242100
244100
224100
229900
212500
222200
1c2500
001880
000000
000000
ENDCHAR
STARTCHAR 244d
ENCODING 9293
SWIDTH	-8531 0
DWIDTH	18 0
BBX 18	19 0 -1
BITMAP
000000
000000
040000
040000
043c00
044200
3c8100
050100
060100
040100
040100
0c0100
141d00
242300
042100
042280
041c00
000000
000000
ENDCHAR
STARTCHAR 244e
ENCODING 9294
SWIDTH	-8531 0
DWIDTH	18 0
BBX 18	19 0 -1
BITMAP
000000
000000
000000
03e000
0c9800
108400
108400
208200
208200
208200
208200
210200
210200
120400
120400
0c1800
006000
000000
000000
ENDCHAR
STARTCHAR 244f
ENCODING 9295
SWIDTH	-8531 0
DWIDTH	18 0
BBX 18	19 0 -1
BITMAP
000000
000000
200800
200800
200800
23ff00
200800
200800
200800
200800
200800
21e800
221800
220e00
2a0900
310880
10f000
000000
000000
ENDCHAR
STARTCHAR 2450
ENCODING 9296
SWIDTH	-8531 0
DWIDTH	18 0
BBX 18	19 0 -1
BITMAP
000000
000100
201480
201200
201000
23ff00
200800
200800
200800
200800
200800
21e800
221800
220e00
2a0900
310880
10f000
000000
000000
ENDCHAR
STARTCHAR 2451
ENCODING 9297
SWIDTH	-8531 0
DWIDTH	18 0
BBX 18	19 0 -1
BITMAP
000000
000300
001480
201480
201300
201000
27ff00
201000
201000
201000
201000
21d000
223000
221800
2a1400
321200
11e000
000000
000000
ENDCHAR
STARTCHAR 2452
ENCODING 9298
SWIDTH	-8531 0
DWIDTH	18 0
BBX 18	19 0 -1
BITMAP
000000
000000
000000
008000
3f0400
020400
040400
080600
080600
100500
100480
100400
100800
100800
101000
082000
07c000
000000
000000
ENDCHAR
STARTCHAR 2453
ENCODING 9299
SWIDTH	-8531 0
DWIDTH	18 0
BBX 18	19 0 -1
BITMAP
000000
000100
000080
008200
3f0100
020400
040400
080600
080600
100500
100480
100400
100800
100800
101000
082000
07c000
000000
000000
ENDCHAR
STARTCHAR 2454
ENCODING 9300
SWIDTH	-8531 0
DWIDTH	18 0
BBX 18	19 0 -1
BITMAP
000000
000300
000480
010480
7e0300
040800
080800
100800
100c00
200c00
200a00
200900
201000
201000
202000
104000
0f8000
000000
000000
ENDCHAR
STARTCHAR 2455
ENCODING 9301
SWIDTH	-8531 0
DWIDTH	18 0
BBX 18	19 0 -1
BITMAP
000000
000000
000000
0ff000
002000
004000
008000
000000
100400
108200
104200
102100
201100
401100
081000
042000
03c000
000000
000000
ENDCHAR
STARTCHAR 2456
ENCODING 9302
SWIDTH	-8531 0
DWIDTH	18 0
BBX 18	19 0 -1
BITMAP
000000
000000
000100
0fe480
002200
004000
008000
000000
100400
108200
104200
102100
201100
401100
081000
042000
03c000
000000
000000
ENDCHAR
STARTCHAR 2457
ENCODING 9303
SWIDTH	-8531 0
DWIDTH	18 0
BBX 18	19 0 -1
BITMAP
000000
000300
000480
0ff480
002300
004000
008000
000000
100400
108200
104200
102100
201100
401100
081000
042000
03c000
000000
000000
ENDCHAR
STARTCHAR 2458
ENCODING 9304
SWIDTH	-8531 0
DWIDTH	18 0
BBX 18	19 0 -1
BITMAP
000000
000000
000000
000000
060000
090000
088000
104000
202000
401000
000800
000400
000200
000100
000000
000000
000000
000000
000000
ENDCHAR
STARTCHAR 2459
ENCODING 9305
SWIDTH	-8531 0
DWIDTH	18 0
BBX 18	19 0 -1
BITMAP
000000
000000
000400
001200
060800
090000
088000
104000
202000
401000
000800
000400
000200
000100
000000
000000
000000
000000
000000
ENDCHAR
STARTCHAR 245a
ENCODING 9306
SWIDTH	-8531 0
DWIDTH	18 0
BBX 18	19 0 -1
BITMAP
000000
000600
000900
000900
020600
050000
088000
104000
202000
401000
000800
000400
000200
000100
000000
000000
000000
000000
000000
ENDCHAR
STARTCHAR 245b
ENCODING 9307
SWIDTH	-8531 0
DWIDTH	18 0
BBX 18	19 0 -1
BITMAP
000000
000000
000000
23ff00
200800
200800
200800
27ff00
200800
200800
200800
20e800
211800
220c00
2a0a00
320900
11f000
000000
000000
ENDCHAR
STARTCHAR 245c
ENCODING 9308
SWIDTH	-8531 0
DWIDTH	18 0
BBX 18	19 0 -1
BITMAP
000000
000900
200480
23ff00
200800
200800
200800
27ff00
200800
200800
200800
20e800
211800
220c00
2a0a00
320900
11f000
000000
000000
ENDCHAR
STARTCHAR 245d
ENCODING 9309
SWIDTH	-8531 0
DWIDTH	18 0
BBX 18	19 0 -1
BITMAP
000000
000300
200480
23fc80
200b00
200800
200800
27ff00
200800
200800
200800
20e800
211800
220c00
2a0a00
320900
11f000
000000
000000
ENDCHAR
STARTCHAR 245e
ENCODING 9310
SWIDTH	-8531 0
DWIDTH	18 0
BBX 18	19 0 -1
BITMAP
000000
000000
002000
002000
0fff00
002000
002000
002000
1fff00
002000
002000
0fa000
106000
103800
102600
082100
07c000
000000
000000
ENDCHAR
STARTCHAR 245f
ENCODING 9311
SWIDTH	-8531 0
DWIDTH	18 0
BBX 18	19 0 -1
BITMAP
000000
000000
000000
1f8000
008400
008400
008400
008400
0ffe00
110580
210400
210400
220400
220800
220800
1c1000
006000
000000
000000
ENDCHAR
STARTCHAR 2460
ENCODING 9312
SWIDTH	-8531 0
DWIDTH	18 0
BBX 18	19 0 -1
BITMAP
000000
000000
020000
020400
020200
3ff100
020100
020000
0e0000
110000
210200
210100
110100
0e0100
020100
020200
01fc00
000000
000000
ENDCHAR
STARTCHAR 2461
ENCODING 9313
SWIDTH	-8531 0
DWIDTH	18 0
BBX 18	19 0 -1
BITMAP
000000
000000
020800
020800
020800
07fc00
0a0a00
120900
121100
221080
212080
212080
214080
108100
114100
0e0600
001800
000000
000000
ENDCHAR
STARTCHAR 2462
ENCODING 9314
SWIDTH	-8531 0
DWIDTH	18 0
BBX 18	19 0 -1
BITMAP
000000
000000
020000
020000
020000
3fe000
020000
020400
020200
3ff200
040100
040100
040100
040100
040200
020c00
01f000
000000
000000
ENDCHAR
STARTCHAR 2463
ENCODING 9315
SWIDTH	-8531 0
DWIDTH	18 0
BBX 18	19 0 -1
BITMAP
000000
000000
000000
000000
000000
042000
041000
040000
05fc00
1e0200
020200
020200
020400
011800
010000
010000
010000
000000
000000
ENDCHAR
STARTCHAR 2464
ENCODING 9316
SWIDTH	-8531 0
DWIDTH	18 0
BBX 18	19 0 -1
BITMAP
000000
000000
00c000
043000
040000
043e00
07c100
3e0100
020100
020100
020200
021c00
010000
010000
010000
010000
010000
000000
000000
ENDCHAR
STARTCHAR 2465
ENCODING 9317
SWIDTH	-8531 0
DWIDTH	18 0
BBX 18	19 0 -1
BITMAP
000000
000000
000000
000000
004000
082000
09f800
0a2400
0c2200
082200
082200
082200
092400
08f800
002000
00c000
030000
000000
000000
ENDCHAR
STARTCHAR 2466
ENCODING 9318
SWIDTH	-8531 0
DWIDTH	18 0
BBX 18	19 0 -1
BITMAP
000000
000000
004000
202000
21fc00
262200
282100
302100
202100
202100
202100
222200
212400
00f800
002000
00c000
070000
000000
000000
ENDCHAR
STARTCHAR 2467
ENCODING 9319
SWIDTH	-8531 0
DWIDTH	18 0
BBX 18	19 0 -1
BITMAP
000000
000000
000000
000000
004000
004000
004000
007e00
004000
004000
004000
004000
07e000
085800
084400
084200
078000
000000
000000
ENDCHAR
STARTCHAR 2468
ENCODING 9320
SWIDTH	-8531 0
DWIDTH	18 0
BBX 18	19 0 -1
BITMAP
000000
000000
004000
004000
004000
004000
007f00
004000
004000
004000
004000
1f4000
20e000
205800
204400
104200
0f8000
000000
000000
ENDCHAR
STARTCHAR 2469
ENCODING 9321
SWIDTH	-8531 0
DWIDTH	18 0
BBX 18	19 0 -1
BITMAP
000000
000000
080000
070000
00e000
000000
100000
100000
11f000
160c00
180200
100200
000200
000200
000400
003800
07c000
000000
000000
ENDCHAR
STARTCHAR 246a
ENCODING 9322
SWIDTH	-8531 0
DWIDTH	18 0
BBX 18	19 0 -1
BITMAP
000000
000000
003000
100800
100400
100400
100400
100400
120400
140400
180400
080400
000800
000800
001000
002000
01c000
000000
000000
ENDCHAR
STARTCHAR 246b
ENCODING 9323
SWIDTH	-8531 0
DWIDTH	18 0
BBX 18	19 0 -1
BITMAP
000000
000000
000000
0ff000
002000
004000
008000
010000
03f800
040600
080100
11c100
222100
021100
021100
012600
00f800
000000
000000
ENDCHAR
STARTCHAR 246c
ENCODING 9324
SWIDTH	-8531 0
DWIDTH	18 0
BBX 18	19 0 -1
BITMAP
000000
000000
040000
040000
047000
048800
3d0800
060800
040800
0c0800
140800
140800
240800
240800
040880
040900
040600
000000
000000
ENDCHAR
STARTCHAR 246d
ENCODING 9325
SWIDTH	-8531 0
DWIDTH	18 0
BBX 18	19 0 -1
BITMAP
000000
000000
000000
0ff000
002000
004000
008000
010000
020000
07f800
080600
100100
000100
000100
000200
000c00
03f000
000000
000000
ENDCHAR
STARTCHAR 246e
ENCODING 9326
SWIDTH	-8531 0
DWIDTH	18 0
BBX 18	19 0 -1
BITMAP
000000
000000
000000
000000
000000
040000
040000
047000
1c8800
050400
060400
040400
0c0400
140400
040400
040800
047000
000000
000000
ENDCHAR
STARTCHAR 246f
ENCODING 9327
SWIDTH	-8531 0
DWIDTH	18 0
BBX 18	19 0 -1
BITMAP
000000
000000
040000
040000
040000
043c00
3cc200
050100
060100
040100
0c0100
140100
140100
240200
240200
040400
043800
000000
000000
ENDCHAR
STARTCHAR 2470
ENCODING 9328
SWIDTH	-8531 0
DWIDTH	18 0
BBX 18	19 0 -1
BITMAP
000000
000000
000000
0fe000
002000
002000
03f800
044400
084200
108200
108100
210100
211d00
222300
242100
182200
001c00
000000
000000
ENDCHAR
STARTCHAR 2471
ENCODING 9329
SWIDTH	-8531 0
DWIDTH	18 0
BBX 18	19 0 -1
BITMAP
000000
000000
1fe000
004000
008000
010000
03f000
040800
080400
138400
044400
048800
03f000
040000
0e3c00
114200
208100
000000
000000
ENDCHAR
STARTCHAR 2472
ENCODING 9330
SWIDTH	-8531 0
DWIDTH	18 0
BBX 18	19 0 -1
BITMAP
000000
000000
010000
010000
3ffc00
010000
020000
020000
07e000
081100
101e00
20f000
031000
021000
021000
020000
01fe00
000000
000000
ENDCHAR
STARTCHAR 2473
ENCODING 9331
SWIDTH	-8531 0
DWIDTH	18 0
BBX 18	19 0 -1
BITMAP
000000
000000
008000
010000
010000
020000
020000
040000
078000
084000
084000
104100
104100
104200
204200
204400
203800
000000
000000
ENDCHAR
STARTCHAR 2521
ENCODING 9505
SWIDTH	-8531 0
DWIDTH	18 0
BBX 18	19 0 -1
BITMAP
000000
000000
000000
000000
000000
000000
0ffc00
000400
008800
008800
009000
00e000
008000
008000
010000
060000
000000
000000
000000
ENDCHAR
STARTCHAR 2522
ENCODING 9506
SWIDTH	-8531 0
DWIDTH	18 0
BBX 18	19 0 -1
BITMAP
000000
000000
000000
3fff00
000100
000200
000200
004400
004800
007000
004000
004000
008000
008000
030000
1c0000
000000
000000
000000
ENDCHAR
STARTCHAR 2523
ENCODING 9507
SWIDTH	-8531 0
DWIDTH	18 0
BBX 18	19 0 -1
BITMAP
000000
000000
000000
000000
000000
001000
001000
002000
004000
00c000
034000
0c4000
004000
004000
004000
004000
000000
000000
000000
ENDCHAR
STARTCHAR 2524
ENCODING 9508
SWIDTH	-8531 0
DWIDTH	18 0
BBX 18	19 0 -1
BITMAP
000000
000800
000800
001000
002000
004000
00c000
014000
024000
0c4000
304000
004000
004000
004000
004000
004000
000000
000000
000000
ENDCHAR
STARTCHAR 2525
ENCODING 9509
SWIDTH	-8531 0
DWIDTH	18 0
BBX 18	19 0 -1
BITMAP
000000
000000
000000
000000
000000
008000
008000
0ffc00
080400
080400
080400
000800
000800
001000
006000
038000
000000
000000
000000
ENDCHAR
STARTCHAR 2526
ENCODING 9510
SWIDTH	-8531 0
DWIDTH	18 0
BBX 18	19 0 -1
BITMAP
000000
000000
008000
008000
3ffe00
200200
200200
200200
200200
000200
000400
000400
000800
001000
006000
038000
000000
000000
000000
ENDCHAR
STARTCHAR 2527
ENCODING 9511
SWIDTH	-8531 0
DWIDTH	18 0
BBX 18	19 0 -1
BITMAP
000000
000000
000000
000000
000000
000000
000000
0ff800
008000
008000
008000
008000
008000
008000
008000
1ffc00
000000
000000
000000
ENDCHAR
STARTCHAR 2528
ENCODING 9512
SWIDTH	-8531 0
DWIDTH	18 0
BBX 18	19 0 -1
BITMAP
000000
000000
000000
000000
1ffe00
008000
008000
008000
008000
008000
008000
008000
008000
008000
3fff00
000000
000000
000000
000000
ENDCHAR
STARTCHAR 2529
ENCODING 9513
SWIDTH	-8531 0
DWIDTH	18 0
BBX 18	19 0 -1
BITMAP
000000
000000
000000
000000
000000
001000
001000
001000
0ffe00
003000
005000
009000
011000
021000
0c1000
007000
000000
000000
000000
ENDCHAR
STARTCHAR 252a
ENCODING 9514
SWIDTH	-8531 0
DWIDTH	18 0
BBX 18	19 0 -1
BITMAP
000000
000000
002000
002000
002000
3fff00
006000
00a000
012000
012000
022000
042000
082000
102000
202000
00e000
000000
000000
000000
ENDCHAR
STARTCHAR 252b
ENCODING 9515
SWIDTH	-8531 0
DWIDTH	18 0
BBX 18	19 0 -1
BITMAP
000000
000000
010000
010000
010000
3ffe00
010200
010200
010200
020200
020200
040200
040200
084400
102400
201800
000000
000000
000000
ENDCHAR
STARTCHAR 252c
ENCODING 9516
SWIDTH	-8531 0
DWIDTH	18 0
BBX 18	19 0 -1
BITMAP
000000
000200
010900
010400
010000
3ffe00
010200
010200
010200
020200
020200
040200
040200
084400
102400
201800
000000
000000
000000
ENDCHAR
STARTCHAR 252d
ENCODING 9517
SWIDTH	-8531 0
DWIDTH	18 0
BBX 18	19 0 -1
BITMAP
000000
000000
010000
010000
010000
010000
1ffe00
008000
008000
008000
008000
3fff00
004000
004000
004000
004000
004000
000000
000000
ENDCHAR
STARTCHAR 252e
ENCODING 9518
SWIDTH	-8531 0
DWIDTH	18 0
BBX 18	19 0 -1
BITMAP
000000
000000
010200
010900
010400
010000
1ffe00
008000
008000
008000
008000
3fff00
004000
004000
004000
004000
004000
000000
000000
ENDCHAR
STARTCHAR 252f
ENCODING 9519
SWIDTH	-8531 0
DWIDTH	18 0
BBX 18	19 0 -1
BITMAP
000000
000000
020000
03fe00
020200
040200
080200
300400
000400
000800
000800
001000
002000
004000
018000
0e0000
000000
000000
000000
ENDCHAR
STARTCHAR 2530
ENCODING 9520
SWIDTH	-8531 0
DWIDTH	18 0
BBX 18	19 0 -1
BITMAP
000000
000900
020480
020000
03fe00
020200
040200
080200
300400
000400
000800
001000
002000
004000
018000
0e0000
000000
000000
000000
ENDCHAR
STARTCHAR 2531
ENCODING 9521
SWIDTH	-8531 0
DWIDTH	18 0
BBX 18	19 0 -1
BITMAP
000000
000000
040000
040000
040000
07ff80
081000
081000
101000
201000
001000
002000
002000
004000
018000
0e0000
000000
000000
000000
ENDCHAR
STARTCHAR 2532
ENCODING 9522
SWIDTH	-8531 0
DWIDTH	18 0
BBX 18	19 0 -1
BITMAP
000000
000100
040480
040200
040000
07ff80
081000
081000
101000
201000
001000
002000
002000
004000
018000
0e0000
000000
000000
000000
ENDCHAR
STARTCHAR 2533
ENCODING 9523
SWIDTH	-8531 0
DWIDTH	18 0
BBX 18	19 0 -1
BITMAP
000000
000000
000000
000000
1ffe00
000200
000200
000200
000200
000200
000200
000200
000200
000200
1ffe00
000000
000000
000000
000000
ENDCHAR
STARTCHAR 2534
ENCODING 9524
SWIDTH	-8531 0
DWIDTH	18 0
BBX 18	19 0 -1
BITMAP
000000
000900
000480
000000
1ffe00
000200
000200
000200
000200
000200
000200
000200
000200
000200
1ffe00
000000
000000
000000
000000
ENDCHAR
STARTCHAR 2535
ENCODING 9525
SWIDTH	-8531 0
DWIDTH	18 0
BBX 18	19 0 -1
BITMAP
000000
000000
080800
080800
080800
080800
7fff00
080800
080800
080800
080800
001000
001000
002000
00c000
070000
000000
000000
000000
ENDCHAR
STARTCHAR 2536
ENCODING 9526
SWIDTH	-8531 0
DWIDTH	18 0
BBX 18	19 0 -1
BITMAP
000000
000100
080880
080a00
080900
080800
7fff00
080800
080800
080800
080800
001000
001000
002000
00c000
070000
000000
000000
000000
ENDCHAR
STARTCHAR 2537
ENCODING 9527
SWIDTH	-8531 0
DWIDTH	18 0
BBX 18	19 0 -1
BITMAP
000000
000000
000000
0e0000
018000
004100
000100
380100
060100
010200
000200
000400
000800
003000
00c000
0f0000
000000
000000
000000
ENDCHAR
STARTCHAR 2538
ENCODING 9528
SWIDTH	-8531 0
DWIDTH	18 0
BBX 18	19 0 -1
BITMAP
000000
000100
000480
0e0200
018000
004100
000100
380100
060100
010200
000200
000400
000800
003000
00c000
0f0000
000000
000000
000000
ENDCHAR
STARTCHAR 2539
ENCODING 9529
SWIDTH	-8531 0
DWIDTH	18 0
BBX 18	19 0 -1
BITMAP
000000
000000
000000
0ffe00
000200
000400
000400
000800
000800
001000
002000
005000
008800
010400
060200
180100
000000
000000
000000
ENDCHAR
STARTCHAR 253a
ENCODING 9530
SWIDTH	-8531 0
DWIDTH	18 0
BBX 18	19 0 -1
BITMAP
000000
000000
000900
000480
0ffe00
000200
000400
000400
000800
001000
002000
005000
008800
010400
060200
180100
000000
000000
000000
ENDCHAR
STARTCHAR 253b
ENCODING 9531
SWIDTH	-8531 0
DWIDTH	18 0
BBX 18	19 0 -1
BITMAP
000000
000000
040000
040000
040000
3fff00
040100
040200
040c00
043000
040000
040000
040000
040000
040000
03fe00
000000
000000
000000
ENDCHAR
STARTCHAR 253c
ENCODING 9532
SWIDTH	-8531 0
DWIDTH	18 0
BBX 18	19 0 -1
BITMAP
000000
000100
040480
040200
040000
3fff00
040100
040200
040c00
043000
040000
040000
040000
040000
040000
03fe00
000000
000000
000000
ENDCHAR
STARTCHAR 253d
ENCODING 9533
SWIDTH	-8531 0
DWIDTH	18 0
BBX 18	19 0 -1
BITMAP
000000
000000
000000
100100
080100
040100
040100
020200
020200
000400
000400
000800
001000
002000
00c000
030000
000000
000000
000000
ENDCHAR
STARTCHAR 253e
ENCODING 9534
SWIDTH	-8531 0
DWIDTH	18 0
BBX 18	19 0 -1
BITMAP
000000
000900
000480
200000
100200
080200
080200
040200
040400
000400
000800
000800
001000
002000
00c000
030000
000000
000000
000000
ENDCHAR
STARTCHAR 253f
ENCODING 9535
SWIDTH	-8531 0
DWIDTH	18 0
BBX 18	19 0 -1
BITMAP
000000
000000
020000
03fe00
040200
040200
080200
318400
006400
001800
000800
001000
002000
004000
018000
0e0000
000000
000000
000000
ENDCHAR
STARTCHAR 2540
ENCODING 9536
SWIDTH	-8531 0
DWIDTH	18 0
BBX 18	19 0 -1
BITMAP
000000
000900
020480
020000
03fe00
040200
040200
098400
306400
001800
000800
001000
002000
004000
018000
0e0000
000000
000000
000000
ENDCHAR
STARTCHAR 2541
ENCODING 9537
SWIDTH	-8531 0
DWIDTH	18 0
BBX 18	19 0 -1
BITMAP
000000
000000
000400
003800
0fc000
004000
004000
004000
3fff00
004000
004000
008000
008000
010000
020000
1c0000
000000
000000
000000
ENDCHAR
STARTCHAR 2542
ENCODING 9538
SWIDTH	-8531 0
DWIDTH	18 0
BBX 18	19 0 -1
BITMAP
000000
000000
000400
003800
0fc100
004480
004200
004000
3fff00
004000
004000
008000
008000
010000
020000
1c0000
000000
000000
000000
ENDCHAR
STARTCHAR 2543
ENCODING 9539
SWIDTH	-8531 0
DWIDTH	18 0
BBX 18	19 0 -1
BITMAP
000000
000000
000000
000000
000000
000000
000400
110400
088400
044400
044400
000800
000800
001000
006000
038000
000000
000000
000000
ENDCHAR
STARTCHAR 2544
ENCODING 9540
SWIDTH	-8531 0
DWIDTH	18 0
BBX 18	19 0 -1
BITMAP
000000
000000
000000
110000
088100
088100
044100
044100
044200
000200
000400
000400
000800
003000
00c000
070000
000000
000000
000000
ENDCHAR
STARTCHAR 2545
ENCODING 9541
SWIDTH	-8531 0
DWIDTH	18 0
BBX 18	19 0 -1
BITMAP
000000
000900
000480
108000
084100
084100
042100
042100
042200
000200
000400
000400
000800
003000
00c000
070000
000000
000000
000000
ENDCHAR
STARTCHAR 2546
ENCODING 9542
SWIDTH	-8531 0
DWIDTH	18 0
BBX 18	19 0 -1
BITMAP
000000
000000
000000
1ffe00
000000
000000
000000
3fff00
004000
004000
004000
008000
008000
010000
060000
180000
000000
000000
000000
ENDCHAR
STARTCHAR 2547
ENCODING 9543
SWIDTH	-8531 0
DWIDTH	18 0
BBX 18	19 0 -1
BITMAP
000000
000100
000480
1ff200
000000
000000
000000
3fff00
004000
004000
004000
008000
008000
010000
060000
180000
000000
000000
000000
ENDCHAR
STARTCHAR 2548
ENCODING 9544
SWIDTH	-8531 0
DWIDTH	18 0
BBX 18	19 0 -1
BITMAP
000000
000000
020000
020000
020000
020000
020000
038000
026000
021000
020800
020400
020000
020000
020000
020000
020000
000000
000000
ENDCHAR
STARTCHAR 2549
ENCODING 9545
SWIDTH	-8531 0
DWIDTH	18 0
BBX 18	19 0 -1
BITMAP
000000
000000
020200
020900
020400
020000
020000
038000
026000
021000
020800
020400
020000
020000
020000
020000
020000
000000
000000
ENDCHAR
STARTCHAR 254a
ENCODING 9546
SWIDTH	-8531 0
DWIDTH	18 0
BBX 18	19 0 -1
BITMAP
000000
000000
004000
004000
004000
004000
3fff00
004000
004000
004000
004000
008000
008000
010000
060000
180000
000000
000000
000000
ENDCHAR
STARTCHAR 254b
ENCODING 9547
SWIDTH	-8531 0
DWIDTH	18 0
BBX 18	19 0 -1
BITMAP
000000
000000
000000
000000
0ffc00
000000
000000
000000
000000
000000
000000
000000
000000
000000
3fff00
000000
000000
000000
000000
ENDCHAR
STARTCHAR 254c
ENCODING 9548
SWIDTH	-8531 0
DWIDTH	18 0
BBX 18	19 0 -1
BITMAP
000000
000000
000000
0ffe00
000200
000200
000400
000400
060800
018800
005000
003000
004800
008400
030200
0c0000
000000
000000
000000
ENDCHAR
STARTCHAR 254d
ENCODING 9549
SWIDTH	-8531 0
DWIDTH	18 0
BBX 18	19 0 -1
BITMAP
000000
000000
010000
008000
1ffc00
000400
000800
001000
002000
00c000
03b000
0c8c00
308300
008000
008000
008000
008000
000000
000000
ENDCHAR
STARTCHAR 254e
ENCODING 9550
SWIDTH	-8531 0
DWIDTH	18 0
BBX 18	19 0 -1
BITMAP
000000
000000
000000
000400
000400
000800
000800
001000
001000
002000
004000
008000
010000
020000
0c0000
300000
000000
000000
000000
ENDCHAR
STARTCHAR 254f
ENCODING 9551
SWIDTH	-8531 0
DWIDTH	18 0
BBX 18	19 0 -1
BITMAP
000000
000000
004000
022000
021000
021000
020800
020800
020400
040400
040200
040200
080200
080100
100100
200100
000000
000000
000000
ENDCHAR
STARTCHAR 2550
ENCODING 9552
SWIDTH	-8531 0
DWIDTH	18 0
BBX 18	19 0 -1
BITMAP
000000
000100
004480
022200
021000
021000
020800
020800
020400
040400
040200
040200
080200
080100
100100
200100
000000
000000
000000
ENDCHAR
STARTCHAR 2551
ENCODING 9553
SWIDTH	-8531 0
DWIDTH	18 0
BBX 18	19 0 -1
BITMAP
000000
000300
008480
044480
042300
042000
041000
041000
040800
080800
080400
080400
100400
100200
200200
400200
000000
000000
000000
ENDCHAR
STARTCHAR 2552
ENCODING 9554
SWIDTH	-8531 0
DWIDTH	18 0
BBX 18	19 0 -1
BITMAP
000000
000000
100000
100000
100200
100c00
107000
1f8000
100000
100000
100000
100000
100000
100000
100000
0ffe00
000000
000000
000000
ENDCHAR
STARTCHAR 2553
ENCODING 9555
SWIDTH	-8531 0
DWIDTH	18 0
BBX 18	19 0 -1
BITMAP
000000
000200
100900
100400
100000
100200
103c00
1fc000
100000
100000
100000
100000
100000
100000
100000
0ffe00
000000
000000
000000
ENDCHAR
STARTCHAR 2554
ENCODING 9556
SWIDTH	-8531 0
DWIDTH	18 0
BBX 18	19 0 -1
BITMAP
000000
000300
200480
200480
200300
200800
207000
3f8000
200000
200000
200000
200000
200000
200000
200000
1ffc00
000000
000000
000000
ENDCHAR
STARTCHAR 2555
ENCODING 9557
SWIDTH	-8531 0
DWIDTH	18 0
BBX 18	19 0 -1
BITMAP
000000
000000
000000
1fff00
000100
000100
000100
000200
000200
000400
000400
000800
001000
006000
018000
0e0000
000000
000000
000000
ENDCHAR
STARTCHAR 2556
ENCODING 9558
SWIDTH	-8531 0
DWIDTH	18 0
BBX 18	19 0 -1
BITMAP
000000
000900
000480
000000
1ffe00
000200
000200
000200
000400
000400
000800
000800
001000
006000
018000
0e0000
000000
000000
000000
ENDCHAR
STARTCHAR 2557
ENCODING 9559
SWIDTH	-8531 0
DWIDTH	18 0
BBX 18	19 0 -1
BITMAP
000000
000300
000480
000480
3fff00
000200
000200
000400
000400
000800
000800
001000
002000
00c000
030000
1c0000
000000
000000
000000
ENDCHAR
STARTCHAR 2558
ENCODING 9560
SWIDTH	-8531 0
DWIDTH	18 0
BBX 18	19 0 -1
BITMAP
000000
000000
000000
000000
020000
050000
088000
104000
202000
401000
000800
000400
000200
000100
000000
000000
000000
000000
000000
ENDCHAR
STARTCHAR 2559
ENCODING 9561
SWIDTH	-8531 0
DWIDTH	18 0
BBX 18	19 0 -1
BITMAP
000000
000000
000400
001200
020800
050000
088000
104000
202000
401000
000800
000400
000200
000100
000000
000000
000000
000000
000000
ENDCHAR
STARTCHAR 255a
ENCODING 9562
SWIDTH	-8531 0
DWIDTH	18 0
BBX 18	19 0 -1
BITMAP
000000
000c00
001200
001200
020c00
050000
088000
104000
202000
401000
000800
000400
000200
000100
000000
000000
000000
000000
000000
ENDCHAR
STARTCHAR 255b
ENCODING 9563
SWIDTH	-8531 0
DWIDTH	18 0
BBX 18	19 0 -1
BITMAP
000000
000000
008000
008000
008000
3ffe00
008000
008000
049000
048800
088400
088400
108200
208200
008000
008000
000000
000000
000000
ENDCHAR
STARTCHAR 255c
ENCODING 9564
SWIDTH	-8531 0
DWIDTH	18 0
BBX 18	19 0 -1
BITMAP
000000
000200
008900
008400
008000
3ffe00
008000
008000
049000
048800
088400
088400
108200
208200
008000
008000
000000
000000
000000
ENDCHAR
STARTCHAR 255d
ENCODING 9565
SWIDTH	-8531 0
DWIDTH	18 0
BBX 18	19 0 -1
BITMAP
000000
000300
008480
008480
008300
3ffc00
008000
008000
049000
048800
088400
088400
108200
208200
008000
008000
000000
000000
000000
ENDCHAR
STARTCHAR 255e
ENCODING 9566
SWIDTH	-8531 0
DWIDTH	18 0
BBX 18	19 0 -1
BITMAP
000000
000000
000000
3fff00
000100
000200
000200
000400
000800
0c1000
032000
00c000
002000
001000
000800
000400
000000
000000
000000
ENDCHAR
STARTCHAR 255f
ENCODING 9567
SWIDTH	-8531 0
DWIDTH	18 0
BBX 18	19 0 -1
BITMAP
000000
000000
000000
0f8000
007800
000600
000000
000000
078000
007000
000c00
000000
000000
1f8000
007800
000600
000100
000000
000000
ENDCHAR
STARTCHAR 2560
ENCODING 9568
SWIDTH	-8531 0
DWIDTH	18 0
BBX 18	19 0 -1
BITMAP
000000
000000
004000
004000
004000
008000
008000
010000
010800
020400
020400
040200
040200
081f00
3fe100
000100
000000
000000
000000
ENDCHAR
STARTCHAR 2561
ENCODING 9569
SWIDTH	-8531 0
DWIDTH	18 0
BBX 18	19 0 -1
BITMAP
000000
000000
000400
000400
000400
0c0800
030800
00d000
002000
003000
004c00
008200
010100
060000
180000
600000
000000
000000
000000
ENDCHAR
STARTCHAR 2562
ENCODING 9570
SWIDTH	-8531 0
DWIDTH	18 0
BBX 18	19 0 -1
BITMAP
000000
000000
000000
1ffe00
020000
020000
020000
020000
3fff00
020000
020000
020000
020000
020000
020000
01fc00
000000
000000
000000
ENDCHAR
STARTCHAR 2563
ENCODING 9571
SWIDTH	-8531 0
DWIDTH	18 0
BBX 18	19 0 -1
BITMAP
000000
000000
000000
000000
000000
010000
010000
010000
00fe00
1f8200
008400
008800
004000
004000
004000
004000
000000
000000
000000
ENDCHAR
STARTCHAR 2564
ENCODING 9572
SWIDTH	-8531 0
DWIDTH	18 0
BBX 18	19 0 -1
BITMAP
000000
000000
040000
040000
041f00
07e100
3c0200
020200
020400
020800
021000
020000
010000
010000
010000
010000
010000
000000
000000
ENDCHAR
STARTCHAR 2565
ENCODING 9573
SWIDTH	-8531 0
DWIDTH	18 0
BBX 18	19 0 -1
BITMAP
000000
000000
000000
000000
000000
000000
000000
07f000
001000
001000
001000
001000
001000
001000
001000
1ffe00
000000
000000
000000
ENDCHAR
STARTCHAR 2566
ENCODING 9574
SWIDTH	-8531 0
DWIDTH	18 0
BBX 18	19 0 -1
BITMAP
000000
000000
000000
000000
0ff000
001000
001000
001000
001000
001000
001000
001000
001000
001000
3fff00
000000
000000
000000
000000
ENDCHAR
STARTCHAR 2567
ENCODING 9575
SWIDTH	-8531 0
DWIDTH	18 0
BBX 18	19 0 -1
BITMAP
000000
000000
000000
000000
000000
000000
000000
0ff800
000800
000800
000800
07f800
000800
000800
000800
0ff800
000000
000000
000000
ENDCHAR
STARTCHAR 2568
ENCODING 9576
SWIDTH	-8531 0
DWIDTH	18 0
BBX 18	19 0 -1
BITMAP
000000
000000
000000
1ffc00
000400
000400
000400
000400
0ffc00
000400
000400
000400
000400
000400
000400
1ffc00
000000
000000
000000
ENDCHAR
STARTCHAR 2569
ENCODING 9577
SWIDTH	-8531 0
DWIDTH	18 0
BBX 18	19 0 -1
BITMAP
000000
000000
1ffe00
000000
000000
000000
3fff00
000100
000100
000200
000200
000400
000800
001000
006000
038000
000000
000000
000000
ENDCHAR
STARTCHAR 256a
ENCODING 9578
SWIDTH	-8531 0
DWIDTH	18 0
BBX 18	19 0 -1
BITMAP
000000
000000
000400
080400
080400
080400
080400
080400
080400
080400
080400
000800
000800
001000
006000
018000
000000
000000
000000
ENDCHAR
STARTCHAR 256b
ENCODING 9579
SWIDTH	-8531 0
DWIDTH	18 0
BBX 18	19 0 -1
BITMAP
000000
000000
004000
004000
044000
044000
044000
044000
044000
044100
044100
044200
084400
084800
105000
206000
000000
000000
000000
ENDCHAR
STARTCHAR 256c
ENCODING 9580
SWIDTH	-8531 0
DWIDTH	18 0
BBX 18	19 0 -1
BITMAP
000000
000000
080000
080000
080000
080000
080100
080100
080200
080200
080400
080800
081000
086000
098000
0e0000
000000
000000
000000
ENDCHAR
STARTCHAR 256d
ENCODING 9581
SWIDTH	-8531 0
DWIDTH	18 0
BBX 18	19 0 -1
BITMAP
000000
000000
000000
1ffe00
100200
100200
100200
100200
100200
100200
100200
100200
100200
100200
100200
1ffe00
000000
000000
000000
ENDCHAR
STARTCHAR 256e
ENCODING 9582
SWIDTH	-8531 0
DWIDTH	18 0
BBX 18	19 0 -1
BITMAP
000000
000000
000000
000000
000000
000000
0ffc00
080400
080400
080400
000400
000800
000800
001000
006000
038000
000000
000000
000000
ENDCHAR
STARTCHAR 256f
ENCODING 9583
SWIDTH	-8531 0
DWIDTH	18 0
BBX 18	19 0 -1
BITMAP
000000
000000
000000
3ffe00
200200
200200
200200
200200
200200
000400
000400
000800
001000
002000
00c000
030000
000000
000000
000000
ENDCHAR
STARTCHAR 2570
ENCODING 9584
SWIDTH	-8531 0
DWIDTH	18 0
BBX 18	19 0 -1
BITMAP
000000
000000
001000
001000
001000
1ffe00
041000
041000
041000
041000
041000
041000
3fff00
001000
001000
001000
001000
000000
000000
ENDCHAR
STARTCHAR 2571
ENCODING 9585
SWIDTH	-8531 0
DWIDTH	18 0
BBX 18	19 0 -1
BITMAP
000000
000000
000000
1ffe00
000200
000400
009800
00e000
008000
008000
008000
008000
008000
008000
3fff00
000000
000000
000000
000000
ENDCHAR
STARTCHAR 2572
ENCODING 9586
SWIDTH	-8531 0
DWIDTH	18 0
BBX 18	19 0 -1
BITMAP
000000
000000
000000
1ffe00
000200
000200
000200
1ffe00
000200
000200
000400
000400
000800
003000
00c000
0f0000
000000
000000
000000
ENDCHAR
STARTCHAR 2573
ENCODING 9587
SWIDTH	-8531 0
DWIDTH	18 0
BBX 18	19 0 -1
BITMAP
000000
000000
000000
300000
0c0000
030100
008100
000100
000200
000200
000400
000800
001000
006000
018000
1e0000
000000
000000
000000
ENDCHAR
STARTCHAR 2574
ENCODING 9588
SWIDTH	-8531 0
DWIDTH	18 0
BBX 18	19 0 -1
BITMAP
000000
000900
008480
008000
3ffe00
200200
200200
200200
200200
000400
000400
000800
001000
002000
00c000
030000
000000
000000
000000
ENDCHAR
STARTCHAR 2575
ENCODING 9589
SWIDTH	-8531 0
DWIDTH	18 0
BBX 18	19 0 -1
BITMAP
000000
000000
000000
000000
000000
008000
008000
0ffc00
008400
008400
008400
010400
010400
020400
040400
083800
000000
000000
000000
ENDCHAR
STARTCHAR 2576
ENCODING 9590
SWIDTH	-8531 0
DWIDTH	18 0
BBX 18	19 0 -1
BITMAP
000000
000000
000000
000000
000000
040000
040000
07fc00
042000
082000
082000
102000
002000
004000
018000
060000
000000
000000
000000
ENDCHAR
STARTCHAR 2621
ENCODING 9761
SWIDTH	-8531 0
DWIDTH	18 0
BBX 18	19 0 -1
BITMAP
000000
000000
00c000
00c000
012000
012000
021000
021000
040800
040800
080400
0ffc00
100200
100200
200100
200100
000000
000000
000000
ENDCHAR
STARTCHAR 2622
ENCODING 9762
SWIDTH	-8531 0
DWIDTH	18 0
BBX 18	19 0 -1
BITMAP
000000
000000
0ff800
080400
080200
080200
080200
080400
0ff800
080400
080200
080200
080200
080200
080400
0ff800
000000
000000
000000
ENDCHAR
STARTCHAR 2623
ENCODING 9763
SWIDTH	-8531 0
DWIDTH	18 0
BBX 18	19 0 -1
BITMAP
000000
000000
0ffe00
080000
080000
080000
080000
080000
080000
080000
080000
080000
080000
080000
080000
080000
000000
000000
000000
ENDCHAR
STARTCHAR 2624
ENCODING 9764
SWIDTH	-8531 0
DWIDTH	18 0
BBX 18	19 0 -1
BITMAP
000000
000000
00c000
012000
012000
021000
040800
040800
080400
080400
100200
100200
200100
200100
400080
7fff80
000000
000000
000000
ENDCHAR
STARTCHAR 2625
ENCODING 9765
SWIDTH	-8531 0
DWIDTH	18 0
BBX 18	19 0 -1
BITMAP
000000
000000
0ffe00
080000
080000
080000
080000
080000
0ff800
080000
080000
080000
080000
080000
080000
0ffe00
000000
000000
000000
ENDCHAR
STARTCHAR 2626
ENCODING 9766
SWIDTH	-8531 0
DWIDTH	18 0
BBX 18	19 0 -1
BITMAP
000000
000000
1fff00
000200
000400
000800
001000
002000
004000
008000
010000
020000
040000
080000
100000
3fff00
000000
000000
000000
ENDCHAR
STARTCHAR 2627
ENCODING 9767
SWIDTH	-8531 0
DWIDTH	18 0
BBX 18	19 0 -1
BITMAP
000000
000000
100200
100200
100200
100200
100200
100200
1ffe00
100200
100200
100200
100200
100200
100200
100200
000000
000000
000000
ENDCHAR
STARTCHAR 2628
ENCODING 9768
SWIDTH	-8531 0
DWIDTH	18 0
BBX 18	19 0 -1
BITMAP
000000
000000
03f000
040800
080400
100200
100200
100200
13f200
100200
100200
100200
100200
080400
040800
03f000
000000
000000
000000
ENDCHAR
STARTCHAR 2629
ENCODING 9769
SWIDTH	-8531 0
DWIDTH	18 0
BBX 18	19 0 -1
BITMAP
000000
000000
008000
008000
008000
008000
008000
008000
008000
008000
008000
008000
008000
008000
008000
008000
000000
000000
000000
ENDCHAR
STARTCHAR 262a
ENCODING 9770
SWIDTH	-8531 0
DWIDTH	18 0
BBX 18	19 0 -1
BITMAP
000000
000000
080600
080800
083000
084000
098000
0a0000
0c0000
0a0000
098000
084000
083000
080800
080600
080100
000000
000000
000000
ENDCHAR
STARTCHAR 262b
ENCODING 9771
SWIDTH	-8531 0
DWIDTH	18 0
BBX 18	19 0 -1
BITMAP
000000
000000
00c000
00c000
012000
012000
021000
021000
040800
040800
080400
080400
100200
100200
200100
200100
000000
000000
000000
ENDCHAR
STARTCHAR 262c
ENCODING 9772
SWIDTH	-8531 0
DWIDTH	18 0
BBX 18	19 0 -1
BITMAP
000000
000000
300300
300300
280500
280500
240900
240900
221100
221100
212100
212100
20c100
20c100
208100
200100
000000
000000
000000
ENDCHAR
STARTCHAR 262d
ENCODING 9773
SWIDTH	-8531 0
DWIDTH	18 0
BBX 18	19 0 -1
BITMAP
000000
000000
180200
140200
120200
120200
110200
110200
108200
104200
104200
102200
101200
101200
100a00
100600
000000
000000
000000
ENDCHAR
STARTCHAR 262e
ENCODING 9774
SWIDTH	-8531 0
DWIDTH	18 0
BBX 18	19 0 -1
BITMAP
000000
000000
1ffe00
000000
000000
000000
000000
000000
0ffc00
000000
000000
000000
000000
000000
000000
1ffe00
000000
000000
000000
ENDCHAR
STARTCHAR 262f
ENCODING 9775
SWIDTH	-8531 0
DWIDTH	18 0
BBX 18	19 0 -1
BITMAP
000000
000000
03f000
040800
080400
100200
100200
100200
100200
100200
100200
100200
100200
080400
040800
03f000
000000
000000
000000
ENDCHAR
STARTCHAR 2630
ENCODING 9776
SWIDTH	-8531 0
DWIDTH	18 0
BBX 18	19 0 -1
BITMAP
000000
000000
1ffc00
100400
100400
100400
100400
100400
100400
100400
100400
100400
100400
100400
100400
100400
000000
000000
000000
ENDCHAR
STARTCHAR 2631
ENCODING 9777
SWIDTH	-8531 0
DWIDTH	18 0
BBX 18	19 0 -1
BITMAP
000000
000000
0ff800
080400
080200
080200
080200
080200
080400
0ff800
080000
080000
080000
080000
080000
080000
000000
000000
000000
ENDCHAR
STARTCHAR 2632
ENCODING 9778
SWIDTH	-8531 0
DWIDTH	18 0
BBX 18	19 0 -1
BITMAP
000000
000000
1ffe00
080000
040000
020000
010000
008000
004000
008000
010000
020000
040000
080000
100000
3ffe00
000000
000000
000000
ENDCHAR
STARTCHAR 2633
ENCODING 9779
SWIDTH	-8531 0
DWIDTH	18 0
BBX 18	19 0 -1
BITMAP
000000
000000
3ffe00
008000
008000
008000
008000
008000
008000
008000
008000
008000
008000
008000
008000
008000
000000
000000
000000
ENDCHAR
STARTCHAR 2634
ENCODING 9780
SWIDTH	-8531 0
DWIDTH	18 0
BBX 18	19 0 -1
BITMAP
000000
000000
200200
100400
080800
041000
022000
014000
008000
008000
008000
008000
008000
008000
008000
008000
000000
000000
000000
ENDCHAR
STARTCHAR 2635
ENCODING 9781
SWIDTH	-8531 0
DWIDTH	18 0
BBX 18	19 0 -1
BITMAP
000000
000000
008000
008000
07f000
088800
108400
208200
208200
208200
208200
108400
088800
07f000
008000
008000
000000
000000
000000
ENDCHAR
STARTCHAR 2636
ENCODING 9782
SWIDTH	-8531 0
DWIDTH	18 0
BBX 18	19 0 -1
BITMAP
000000
000000
200200
100400
080800
041000
022000
014000
008000
014000
022000
041000
080800
100400
200200
400100
000000
000000
000000
ENDCHAR
STARTCHAR 2637
ENCODING 9783
SWIDTH	-8531 0
DWIDTH	18 0
BBX 18	19 0 -1
BITMAP
000000
000000
208200
208200
208200
208200
208200
208200
208200
208200
208200
108400
088800
07f000
008000
008000
000000
000000
000000
ENDCHAR
STARTCHAR 2638
ENCODING 9784
SWIDTH	-8531 0
DWIDTH	18 0
BBX 18	19 0 -1
BITMAP
000000
000000
03f000
040800
080400
100200
100200
100200
100200
100200
080400
040800
021000
012000
012000
1f3e00
000000
000000
000000
ENDCHAR
STARTCHAR 2641
ENCODING 9793
SWIDTH	-8531 0
DWIDTH	18 0
BBX 18	19 0 -1
BITMAP
000000
000000
000000
000000
038000
044400
084400
082400
102400
102800
102800
101000
102800
084800
088800
070700
000000
000000
000000
ENDCHAR
STARTCHAR 2642
ENCODING 9794
SWIDTH	-8531 0
DWIDTH	18 0
BBX 18	19 0 -1
BITMAP
000000
000000
00e000
011000
020800
020800
040800
041000
05e000
041000
040800
040400
040400
060400
050800
04f000
040000
000000
000000
ENDCHAR
STARTCHAR 2643
ENCODING 9795
SWIDTH	-8531 0
DWIDTH	18 0
BBX 18	19 0 -1
BITMAP
000000
000000
000000
000000
0c1c00
122000
014000
008000
008000
008000
008000
008000
008000
008000
008000
008000
008000
000000
000000
ENDCHAR
STARTCHAR 2644
ENCODING 9796
SWIDTH	-8531 0
DWIDTH	18 0
BBX 18	19 0 -1
BITMAP
000000
000000
00e000
011000
010800
008000
01c000
022000
041000
040800
040800
040800
040800
040800
021000
01e000
000000
000000
000000
ENDCHAR
STARTCHAR 2645
ENCODING 9797
SWIDTH	-8531 0
DWIDTH	18 0
BBX 18	19 0 -1
BITMAP
000000
000000
000000
000000
03f000
040800
080000
080000
040000
03f000
040000
080000
080000
080400
040800
03f000
000000
000000
000000
ENDCHAR
STARTCHAR 2646
ENCODING 9798
SWIDTH	-8531 0
DWIDTH	18 0
BBX 18	19 0 -1
BITMAP
000000
020000
040000
040000
03f800
008000
010000
020000
020000
040000
040000
040000
040000
03f800
000400
000400
00f800
000000
000000
ENDCHAR
STARTCHAR 2647
ENCODING 9799
SWIDTH	-8531 0
DWIDTH	18 0
BBX 18	19 0 -1
BITMAP
000000
000000
000000
000000
0c7000
128800
010400
010400
010400
010400
010400
010400
010400
010400
010400
010400
000400
000000
000000
ENDCHAR
STARTCHAR 2648
ENCODING 9800
SWIDTH	-8531 0
DWIDTH	18 0
BBX 18	19 0 -1
BITMAP
000000
000000
01e000
021000
040800
040800
040800
07f800
040800
040800
040800
040800
040800
040800
021000
01e000
000000
000000
000000
ENDCHAR
STARTCHAR 2649
ENCODING 9801
SWIDTH	-8531 0
DWIDTH	18 0
BBX 18	19 0 -1
BITMAP
000000
000000
000000
000000
020000
020000
020000
020000
020000
020000
020000
020800
020800
020800
011000
00e000
000000
000000
000000
ENDCHAR
STARTCHAR 264a
ENCODING 9802
SWIDTH	-8531 0
DWIDTH	18 0
BBX 18	19 0 -1
BITMAP
000000
000000
000000
000000
043800
044000
048000
050000
070000
048000
044000
044000
044400
044400
044800
043000
000000
000000
000000
ENDCHAR
STARTCHAR 264b
ENCODING 9803
SWIDTH	-8531 0
DWIDTH	18 0
BBX 18	19 0 -1
BITMAP
000000
000000
0f0000
008000
008000
008000
010000
01c000
012000
022000
022000
042000
042000
082000
081000
100c00
000000
000000
000000
ENDCHAR
STARTCHAR 264c
ENCODING 9804
SWIDTH	-8531 0
DWIDTH	18 0
BBX 18	19 0 -1
BITMAP
000000
000000
000000
000000
040800
040800
040800
040800
040800
040800
040800
040800
040800
060800
051900
04e600
040000
000000
000000
ENDCHAR
STARTCHAR 264d
ENCODING 9805
SWIDTH	-8531 0
DWIDTH	18 0
BBX 18	19 0 -1
BITMAP
000000
000000
000000
000000
080000
040400
040400
020400
020800
020800
021000
021000
022000
024000
028000
030000
000000
000000
000000
ENDCHAR
STARTCHAR 264e
ENCODING 9806
SWIDTH	-8531 0
DWIDTH	18 0
BBX 18	19 0 -1
BITMAP
000000
000000
01f800
020000
040000
040000
020000
03f800
040000
080000
080000
040000
03f800
000400
000400
007800
000000
000000
000000
ENDCHAR
STARTCHAR 264f
ENCODING 9807
SWIDTH	-8531 0
DWIDTH	18 0
BBX 18	19 0 -1
BITMAP
000000
000000
000000
000000
01e000
021000
040800
040800
040800
040800
040800
040800
040800
040800
021000
01e000
000000
000000
000000
ENDCHAR
STARTCHAR 2650
ENCODING 9808
SWIDTH	-8531 0
DWIDTH	18 0
BBX 18	19 0 -1
BITMAP
000000
000000
000000
000000
1ffe00
224000
024000
024000
024000
024000
024000
024000
044000
044400
084800
103000
000000
000000
000000
ENDCHAR
STARTCHAR 2651
ENCODING 9809
SWIDTH	-8531 0
DWIDTH	18 0
BBX 18	19 0 -1
BITMAP
000000
000000
000000
000000
01e000
021000
040800
040800
040800
040800
040800
040800
060800
051000
04e000
040000
040000
000000
000000
ENDCHAR
STARTCHAR 2652
ENCODING 9810
SWIDTH	-8531 0
DWIDTH	18 0
BBX 18	19 0 -1
BITMAP
000000
000000
000000
000200
01fc00
021000
040800
040800
040800
040800
040800
040800
040800
040800
021000
01e000
000000
000000
000000
ENDCHAR
STARTCHAR 2653
ENCODING 9811
SWIDTH	-8531 0
DWIDTH	18 0
BBX 18	19 0 -1
BITMAP
000000
000000
000000
000000
0ff800
108000
008000
008000
008000
008000
008000
008000
008000
008800
009000
006000
000000
000000
000000
ENDCHAR
STARTCHAR 2654
ENCODING 9812
SWIDTH	-8531 0
DWIDTH	18 0
BBX 18	19 0 -1
BITMAP
000000
000000
000000
000000
0c0800
020800
020800
020800
020800
020800
020800
020800
021000
021000
022000
01c000
000000
000000
000000
ENDCHAR
STARTCHAR 2655
ENCODING 9813
SWIDTH	-8531 0
DWIDTH	18 0
BBX 18	19 0 -1
BITMAP
000000
000000
008000
008000
03e000
049000
088800
088800
088800
088800
088800
088800
088800
049000
03e000
008000
008000
000000
000000
ENDCHAR
STARTCHAR 2656
ENCODING 9814
SWIDTH	-8531 0
DWIDTH	18 0
BBX 18	19 0 -1
BITMAP
000000
000000
000000
000000
0c1000
122000
022000
014000
014000
008000
008000
014000
014000
022000
022000
041200
180c00
000000
000000
ENDCHAR
STARTCHAR 2657
ENCODING 9815
SWIDTH	-8531 0
DWIDTH	18 0
BBX 18	19 0 -1
BITMAP
000000
000000
008000
008000
049000
088800
088800
088800
088800
088800
088800
088800
088800
049000
03e000
008000
008000
000000
000000
ENDCHAR
STARTCHAR 2658
ENCODING 9816
SWIDTH	-8531 0
DWIDTH	18 0
BBX 18	19 0 -1
BITMAP
000000
000000
000000
000000
041000
080800
100400
108400
108400
108400
108400
108400
108400
108400
094800
063000
000000
000000
000000
ENDCHAR
STARTCHAR 2721
ENCODING 10017
SWIDTH	-8531 0
DWIDTH	18 0
BBX 18	19 0 -1
BITMAP
000000
000000
00c000
00c000
012000
012000
021000
021000
040800
040800
080400
0ffc00
100200
100200
200100
200100
000000
000000
000000
ENDCHAR
STARTCHAR 2722
ENCODING 10018
SWIDTH	-8531 0
DWIDTH	18 0
BBX 18	19 0 -1
BITMAP
000000
000000
1ffc00
100000
100000
100000
100000
100000
1ff800
100400
100200
100200
100200
100200
100400
1ff800
000000
000000
000000
ENDCHAR
STARTCHAR 2723
ENCODING 10019
SWIDTH	-8531 0
DWIDTH	18 0
BBX 18	19 0 -1
BITMAP
000000
000000
1ff800
100400
100200
100200
100200
100400
1ff800
100400
100200
100200
100200
100200
100400
1ff800
000000
000000
000000
ENDCHAR
STARTCHAR 2724
ENCODING 10020
SWIDTH	-8531 0
DWIDTH	18 0
BBX 18	19 0 -1
BITMAP
000000
000000
0ffe00
080000
080000
080000
080000
080000
080000
080000
080000
080000
080000
080000
080000
080000
000000
000000
000000
ENDCHAR
STARTCHAR 2725
ENCODING 10021
SWIDTH	-8531 0
DWIDTH	18 0
BBX 18	19 0 -1
BITMAP
000000
000000
01fc00
010400
010400
020400
020400
020400
040400
040400
040400
080400
080400
080400
100400
7fff80
400080
000000
000000
ENDCHAR
STARTCHAR 2726
ENCODING 10022
SWIDTH	-8531 0
DWIDTH	18 0
BBX 18	19 0 -1
BITMAP
000000
000000
0ffc00
080000
080000
080000
080000
080000
0ff000
080000
080000
080000
080000
080000
080000
0ffc00
000000
000000
000000
ENDCHAR
STARTCHAR 2727
ENCODING 10023
SWIDTH	-8531 0
DWIDTH	18 0
BBX 18	19 0 -1
BITMAP
000000
063000
063000
000000
0ffc00
080000
080000
080000
080000
0ff000
080000
080000
080000
080000
080000
0ffc00
000000
000000
000000
ENDCHAR
STARTCHAR 2728
ENCODING 10024
SWIDTH	-8531 0
DWIDTH	18 0
BBX 18	19 0 -1
BITMAP
000000
000000
408100
208200
108400
088800
049000
02a000
03e000
049000
049000
088800
108400
108400
208200
408100
000000
000000
000000
ENDCHAR
STARTCHAR 2729
ENCODING 10025
SWIDTH	-8531 0
DWIDTH	18 0
BBX 18	19 0 -1
BITMAP
000000
000000
07f800
080400
100200
100200
000200
000400
03f800
000400
000200
000200
100200
100200
080400
07f800
000000
000000
000000
ENDCHAR
STARTCHAR 272a
ENCODING 10026
SWIDTH	-8531 0
DWIDTH	18 0
BBX 18	19 0 -1
BITMAP
000000
000000
100200
100200
100600
100a00
101200
102200
104200
108200
110200
120200
140200
180200
100200
100200
000000
000000
000000
ENDCHAR
STARTCHAR 272b
ENCODING 10027
SWIDTH	-8531 0
DWIDTH	18 0
BBX 18	19 0 -1
BITMAP
000000
021000
121200
11e200
100600
100a00
101200
102200
104200
108200
110200
120200
140200
180200
100200
100200
000000
000000
000000
ENDCHAR
STARTCHAR 272c
ENCODING 10028
SWIDTH	-8531 0
DWIDTH	18 0
BBX 18	19 0 -1
BITMAP
000000
000000
080400
080800
081000
082000
084000
088000
090000
0a8000
0c4000
082000
081000
080800
080400
080200
000000
000000
000000
ENDCHAR
STARTCHAR 272d
ENCODING 10029
SWIDTH	-8531 0
DWIDTH	18 0
BBX 18	19 0 -1
BITMAP
000000
000000
00fc00
008400
008400
010400
010400
010400
020400
020400
020400
040400
040400
040400
080400
300400
000000
000000
000000
ENDCHAR
STARTCHAR 272e
ENCODING 10030
SWIDTH	-8531 0
DWIDTH	18 0
BBX 18	19 0 -1
BITMAP
000000
000000
600300
500500
500500
480900
480900
441100
441100
422100
422100
414100
414100
408100
408100
400100
000000
000000
000000
ENDCHAR
STARTCHAR 272f
ENCODING 10031
SWIDTH	-8531 0
DWIDTH	18 0
BBX 18	19 0 -1
BITMAP
000000
000000
100200
100200
100200
100200
100200
100200
1ffe00
100200
100200
100200
100200
100200
100200
100200
000000
000000
000000
ENDCHAR
STARTCHAR 2730
ENCODING 10032
SWIDTH	-8531 0
DWIDTH	18 0
BBX 18	19 0 -1
BITMAP
000000
000000
03f000
040800
080400
100200
100200
100200
100200
100200
100200
100200
100200
080400
040800
03f000
000000
000000
000000
ENDCHAR
STARTCHAR 2731
ENCODING 10033
SWIDTH	-8531 0
DWIDTH	18 0
BBX 18	19 0 -1
BITMAP
000000
000000
0ffc00
080400
080400
080400
080400
080400
080400
080400
080400
080400
080400
080400
080400
080400
000000
000000
000000
ENDCHAR
STARTCHAR 2732
ENCODING 10034
SWIDTH	-8531 0
DWIDTH	18 0
BBX 18	19 0 -1
BITMAP
000000
000000
1ff800
100400
100200
100200
100200
100200
100400
1ff800
100000
100000
100000
100000
100000
100000
000000
000000
000000
ENDCHAR
STARTCHAR 2733
ENCODING 10035
SWIDTH	-8531 0
DWIDTH	18 0
BBX 18	19 0 -1
BITMAP
000000
000000
03f800
040400
080200
100200
100000
100000
100000
100000
100000
100200
100200
080200
040400
03f800
000000
000000
000000
ENDCHAR
STARTCHAR 2734
ENCODING 10036
SWIDTH	-8531 0
DWIDTH	18 0
BBX 18	19 0 -1
BITMAP
000000
000000
3ffe00
008000
008000
008000
008000
008000
008000
008000
008000
008000
008000
008000
008000
008000
000000
000000
000000
ENDCHAR
STARTCHAR 2735
ENCODING 10037
SWIDTH	-8531 0
DWIDTH	18 0
BBX 18	19 0 -1
BITMAP
000000
000000
100100
080200
080200
040400
040400
020800
020800
011000
011000
00a000
004000
008000
010000
0e0000
000000
000000
000000
ENDCHAR
STARTCHAR 2736
ENCODING 10038
SWIDTH	-8531 0
DWIDTH	18 0
BBX 18	19 0 -1
BITMAP
000000
000000
008000
008000
07f000
088800
108400
208200
208200
208200
208200
108400
088800
07f000
008000
008000
000000
000000
000000
ENDCHAR
STARTCHAR 2737
ENCODING 10039
SWIDTH	-8531 0
DWIDTH	18 0
BBX 18	19 0 -1
BITMAP
000000
000000
200200
100400
080800
041000
022000
014000
008000
014000
022000
041000
080800
100400
200200
400100
000000
000000
000000
ENDCHAR
STARTCHAR 2738
ENCODING 10040
SWIDTH	-8531 0
DWIDTH	18 0
BBX 18	19 0 -1
BITMAP
000000
000000
080800
080800
080800
080800
080800
080800
080800
080800
080800
080800
080800
080800
080800
0fff00
000100
000000
000000
ENDCHAR
STARTCHAR 2739
ENCODING 10041
SWIDTH	-8531 0
DWIDTH	18 0
BBX 18	19 0 -1
BITMAP
000000
000000
100400
100400
100400
100400
100400
100400
100400
080c00
07f400
000400
000400
000400
000400
000400
000000
000000
000000
ENDCHAR
STARTCHAR 273a
ENCODING 10042
SWIDTH	-8531 0
DWIDTH	18 0
BBX 18	19 0 -1
BITMAP
000000
000000
208200
208200
208200
208200
208200
208200
208200
208200
208200
208200
208200
208200
208200
3ffe00
000000
000000
000000
ENDCHAR
STARTCHAR 273b
ENCODING 10043
SWIDTH	-8531 0
DWIDTH	18 0
BBX 18	19 0 -1
BITMAP
000000
000000
208200
208200
208200
208200
208200
208200
208200
208200
208200
208200
208200
208200
208200
3fff80
000080
000000
000000
ENDCHAR
STARTCHAR 273c
ENCODING 10044
SWIDTH	-8531 0
DWIDTH	18 0
BBX 18	19 0 -1
BITMAP
000000
000000
7c0000
040000
040000
040000
040000
040000
07f800
040400
040200
040200
040200
040200
040400
07f800
000000
000000
000000
ENDCHAR
STARTCHAR 273d
ENCODING 10045
SWIDTH	-8531 0
DWIDTH	18 0
BBX 18	19 0 -1
BITMAP
000000
000000
100200
100200
100200
100200
100200
100200
1fc200
102200
101200
101200
101200
101200
102200
1fc200
000000
000000
000000
ENDCHAR
STARTCHAR 273e
ENCODING 10046
SWIDTH	-8531 0
DWIDTH	18 0
BBX 18	19 0 -1
BITMAP
000000
000000
080000
080000
080000
080000
080000
080000
0ff800
080400
080200
080200
080200
080200
080400
0ff800
000000
000000
000000
ENDCHAR
STARTCHAR 273f
ENCODING 10047
SWIDTH	-8531 0
DWIDTH	18 0
BBX 18	19 0 -1
BITMAP
000000
000000
07f000
080800
100400
100200
000200
000200
03fe00
000200
000200
000200
100200
100400
080800
07f000
000000
000000
000000
ENDCHAR
STARTCHAR 2740
ENCODING 10048
SWIDTH	-8531 0
DWIDTH	18 0
BBX 18	19 0 -1
BITMAP
000000
000000
40fc00
410200
420100
440080
440080
440080
7c0080
440080
440080
440080
440080
420100
410200
40fc00
000000
000000
000000
ENDCHAR
STARTCHAR 2741
ENCODING 10049
SWIDTH	-8531 0
DWIDTH	18 0
BBX 18	19 0 -1
BITMAP
000000
000000
07fc00
080400
100400
100400
100400
100400
080400
07fc00
008400
010400
020400
040400
080400
100400
000000
000000
000000
ENDCHAR
STARTCHAR 2751
ENCODING 10065
SWIDTH	-8531 0
DWIDTH	18 0
BBX 18	19 0 -1
BITMAP
000000
000000
000000
000000
03e000
041000
080800
000800
03f800
040800
080800
080800
080800
080800
041400
03e200
000000
000000
000000
ENDCHAR
STARTCHAR 2752
ENCODING 10066
SWIDTH	-8531 0
DWIDTH	18 0
BBX 18	19 0 -1
BITMAP
000000
000000
001000
03e000
040000
080000
0be000
0c1000
080800
080800
080800
080800
080800
080800
041000
03e000
000000
000000
000000
ENDCHAR
STARTCHAR 2753
ENCODING 10067
SWIDTH	-8531 0
DWIDTH	18 0
BBX 18	19 0 -1
BITMAP
000000
000000
000000
000000
0ff000
080800
080400
080400
080800
0ff000
080800
080400
080400
080400
080800
0ff000
000000
000000
000000
ENDCHAR
STARTCHAR 2754
ENCODING 10068
SWIDTH	-8531 0
DWIDTH	18 0
BBX 18	19 0 -1
BITMAP
000000
000000
000000
000000
0ffc00
080000
080000
080000
080000
080000
080000
080000
080000
080000
080000
080000
000000
000000
000000
ENDCHAR
STARTCHAR 2755
ENCODING 10069
SWIDTH	-8531 0
DWIDTH	18 0
BBX 18	19 0 -1
BITMAP
000000
000000
000000
000000
00fc00
008400
008400
010400
010400
010400
020400
020400
020400
040400
080400
3fff00
200100
000000
000000
ENDCHAR
STARTCHAR 2756
ENCODING 10070
SWIDTH	-8531 0
DWIDTH	18 0
BBX 18	19 0 -1
BITMAP
000000
000000
000000
000000
03f000
040800
080400
080400
080400
0ffc00
080000
080000
080000
080400
040800
03f000
000000
000000
000000
ENDCHAR
STARTCHAR 2757
ENCODING 10071
SWIDTH	-8531 0
DWIDTH	18 0
BBX 18	19 0 -1
BITMAP
000000
033000
033000
000000
03f000
040800
080400
080400
080400
0ffc00
080000
080000
080000
080400
040800
03f000
000000
000000
000000
ENDCHAR
STARTCHAR 2758
ENCODING 10072
SWIDTH	-8531 0
DWIDTH	18 0
BBX 18	19 0 -1
BITMAP
000000
000000
000000
000000
208200
108400
088800
049000
02a000
01c000
02a000
049000
088800
108400
208200
408100
000000
000000
000000
ENDCHAR
STARTCHAR 2759
ENCODING 10073
SWIDTH	-8531 0
DWIDTH	18 0
BBX 18	19 0 -1
BITMAP
000000
000000
000000
000000
03f000
040800
080400
000400
000800
01f000
000800
000400
000400
080400
040800
03f000
000000
000000
000000
ENDCHAR
STARTCHAR 275a
ENCODING 10074
SWIDTH	-8531 0
DWIDTH	18 0
BBX 18	19 0 -1
BITMAP
000000
000000
000000
000000
080400
080c00
081400
082400
082400
084400
088400
090400
090400
0a0400
0c0400
080400
000000
000000
000000
ENDCHAR
STARTCHAR 275b
ENCODING 10075
SWIDTH	-8531 0
DWIDTH	18 0
BBX 18	19 0 -1
BITMAP
000000
021000
021000
01e000
080400
080c00
081400
082400
082400
084400
088400
090400
090400
0a0400
0c0400
080400
000000
000000
000000
ENDCHAR
STARTCHAR 275c
ENCODING 10076
SWIDTH	-8531 0
DWIDTH	18 0
BBX 18	19 0 -1
BITMAP
000000
000000
000000
000000
040800
041000
042000
044000
048000
070000
048000
044000
042000
041000
040800
040400
000000
000000
000000
ENDCHAR
STARTCHAR 275d
ENCODING 10077
SWIDTH	-8531 0
DWIDTH	18 0
BBX 18	19 0 -1
BITMAP
000000
000000
000000
000000
00fc00
008400
008400
010400
010400
010400
020400
020400
020400
040400
080400
100400
000000
000000
000000
ENDCHAR
STARTCHAR 275e
ENCODING 10078
SWIDTH	-8531 0
DWIDTH	18 0
BBX 18	19 0 -1
BITMAP
000000
000000
000000
000000
300600
280a00
280a00
241200
241200
222200
222200
214200
214200
208200
208200
200200
000000
000000
000000
ENDCHAR
STARTCHAR 275f
ENCODING 10079
SWIDTH	-8531 0
DWIDTH	18 0
BBX 18	19 0 -1
BITMAP
000000
000000
000000
000000
080400
080400
080400
080400
080400
0ffc00
080400
080400
080400
080400
080400
080400
000000
000000
000000
ENDCHAR
STARTCHAR 2760
ENCODING 10080
SWIDTH	-8531 0
DWIDTH	18 0
BBX 18	19 0 -1
BITMAP
000000
000000
000000
000000
03f000
040800
080400
080400
080400
080400
080400
080400
080400
080400
040800
03f000
000000
000000
000000
ENDCHAR
STARTCHAR 2761
ENCODING 10081
SWIDTH	-8531 0
DWIDTH	18 0
BBX 18	19 0 -1
BITMAP
000000
000000
000000
000000
0ffc00
080400
080400
080400
080400
080400
080400
080400
080400
080400
080400
080400
000000
000000
000000
ENDCHAR
STARTCHAR 2762
ENCODING 10082
SWIDTH	-8531 0
DWIDTH	18 0
BBX 18	19 0 -1
BITMAP
000000
000000
000000
000000
0ff000
080800
080400
080400
080400
080400
080400
080800
0ff000
080000
080000
080000
080000
000000
000000
ENDCHAR
STARTCHAR 2763
ENCODING 10083
SWIDTH	-8531 0
DWIDTH	18 0
BBX 18	19 0 -1
BITMAP
000000
000000
000000
000000
03f000
040800
080400
080000
080000
080000
080000
080000
080000
080400
040800
03f000
000000
000000
000000
ENDCHAR
STARTCHAR 2764
ENCODING 10084
SWIDTH	-8531 0
DWIDTH	18 0
BBX 18	19 0 -1
BITMAP
000000
000000
000000
000000
1ffc00
008000
008000
008000
008000
008000
008000
008000
008000
008000
008000
008000
000000
000000
000000
ENDCHAR
STARTCHAR 2765
ENCODING 10085
SWIDTH	-8531 0
DWIDTH	18 0
BBX 18	19 0 -1
BITMAP
000000
000000
000000
000000
100200
080200
040400
040400
020800
010800
011000
009000
006000
002000
004000
008000
070000
000000
000000
ENDCHAR
STARTCHAR 2766
ENCODING 10086
SWIDTH	-8531 0
DWIDTH	18 0
BBX 18	19 0 -1
BITMAP
000000
000000
008000
008000
0eb800
11c400
208200
208200
208200
208200
208200
208200
208200
11c400
0eb800
008000
008000
000000
000000
ENDCHAR
STARTCHAR 2767
ENCODING 10087
SWIDTH	-8531 0
DWIDTH	18 0
BBX 18	19 0 -1
BITMAP
000000
000000
000000
000000
100400
080800
041000
022000
014000
008000
014000
022000
041000
080800
100400
200200
000000
000000
000000
ENDCHAR
STARTCHAR 2768
ENCODING 10088
SWIDTH	-8531 0
DWIDTH	18 0
BBX 18	19 0 -1
BITMAP
000000
000000
000000
000000
080800
080800
080800
080800
080800
080800
080800
080800
080800
080800
080800
0ffe00
000200
000000
000000
ENDCHAR
STARTCHAR 2769
ENCODING 10089
SWIDTH	-8531 0
DWIDTH	18 0
BBX 18	19 0 -1
BITMAP
000000
000000
000000
000000
040800
040800
040800
040800
040800
040800
040800
03f800
000800
000800
000800
000800
000000
000000
000000
ENDCHAR
STARTCHAR 276a
ENCODING 10090
SWIDTH	-8531 0
DWIDTH	18 0
BBX 18	19 0 -1
BITMAP
000000
000000
000000
000000
208200
208200
208200
208200
208200
208200
208200
208200
208200
208200
208200
3ffe00
000000
000000
000000
ENDCHAR
STARTCHAR 276b
ENCODING 10091
SWIDTH	-8531 0
DWIDTH	18 0
BBX 18	19 0 -1
BITMAP
000000
000000
000000
000000
208200
208200
208200
208200
208200
208200
208200
208200
208200
208200
208200
3fff80
000080
000000
000000
ENDCHAR
STARTCHAR 276c
ENCODING 10092
SWIDTH	-8531 0
DWIDTH	18 0
BBX 18	19 0 -1
BITMAP
000000
000000
000000
000000
3e0000
020000
020000
020000
020000
03f800
020400
020200
020200
020200
020400
03f800
000000
000000
000000
ENDCHAR
STARTCHAR 276d
ENCODING 10093
SWIDTH	-8531 0
DWIDTH	18 0
BBX 18	19 0 -1
BITMAP
000000
000000
000000
000000
100200
100200
100200
100200
100200
1fc200
102200
101200
101200
101200
102200
1fc200
000000
000000
000000
ENDCHAR
STARTCHAR 276e
ENCODING 10094
SWIDTH	-8531 0
DWIDTH	18 0
BBX 18	19 0 -1
BITMAP
000000
000000
000000
000000
040000
040000
040000
040000
040000
07f000
040800
040400
040400
040400
040800
07f000
000000
000000
000000
ENDCHAR
STARTCHAR 276f
ENCODING 10095
SWIDTH	-8531 0
DWIDTH	18 0
BBX 18	19 0 -1
BITMAP
000000
000000
000000
000000
01e000
021000
040800
080400
000400
01fc00
000400
000400
080400
040800
021000
01e000
000000
000000
000000
ENDCHAR
STARTCHAR 2770
ENCODING 10096
SWIDTH	-8531 0
DWIDTH	18 0
BBX 18	19 0 -1
BITMAP
000000
000000
000000
000000
20f800
210400
220200
220200
220200
3e0200
220200
220200
220200
220200
210400
20f800
000000
000000
000000
ENDCHAR
STARTCHAR 2771
ENCODING 10097
SWIDTH	-8531 0
DWIDTH	18 0
BBX 18	19 0 -1
BITMAP
000000
000000
000000
000000
03fc00
040400
080400
080400
080400
040400
03fc00
008400
010400
020400
040400
080400
000000
000000
000000
ENDCHAR
STARTCHAR 2821
ENCODING 10273
SWIDTH	-8531 0
DWIDTH	18 0
BBX 18	19 0 -1
BITMAP
000000
000000
000000
000000
000000
000000
000000
000000
7fff80
000000
000000
000000
000000
000000
000000
000000
000000
000000
000000
ENDCHAR
STARTCHAR 2822
ENCODING 10274
SWIDTH	-8531 0
DWIDTH	18 0
BBX 18	19 0 -1
BITMAP
000000
008000
008000
008000
008000
008000
008000
008000
008000
008000
008000
008000
008000
008000
008000
008000
008000
000000
000000
ENDCHAR
STARTCHAR 2823
ENCODING 10275
SWIDTH	-8531 0
DWIDTH	18 0
BBX 18	19 0 -1
BITMAP
000000
000000
000000
000000
000000
000000
000000
000000
00ff80
008000
008000
008000
008000
008000
008000
008000
008000
000000
000000
ENDCHAR
STARTCHAR 2824
ENCODING 10276
SWIDTH	-8531 0
DWIDTH	18 0
BBX 18	19 0 -1
BITMAP
000000
000000
000000
000000
000000
000000
000000
000000
7f8000
008000
008000
008000
008000
008000
008000
008000
008000
000000
000000
ENDCHAR
STARTCHAR 2825
ENCODING 10277
SWIDTH	-8531 0
DWIDTH	18 0
BBX 18	19 0 -1
BITMAP
000000
008000
008000
008000
008000
008000
008000
008000
7f8000
000000
000000
000000
000000
000000
000000
000000
000000
000000
000000
ENDCHAR
STARTCHAR 2826
ENCODING 10278
SWIDTH	-8531 0
DWIDTH	18 0
BBX 18	19 0 -1
BITMAP
000000
008000
008000
008000
008000
008000
008000
008000
00ff80
000000
000000
000000
000000
000000
000000
000000
000000
000000
000000
ENDCHAR
STARTCHAR 2827
ENCODING 10279
SWIDTH	-8531 0
DWIDTH	18 0
BBX 18	19 0 -1
BITMAP
000000
008000
008000
008000
008000
008000
008000
008000
00ff80
008000
008000
008000
008000
008000
008000
008000
008000
000000
000000
ENDCHAR
STARTCHAR 2828
ENCODING 10280
SWIDTH	-8531 0
DWIDTH	18 0
BBX 18	19 0 -1
BITMAP
000000
000000
000000
000000
000000
000000
000000
000000
7fff80
008000
008000
008000
008000
008000
008000
008000
008000
000000
000000
ENDCHAR
STARTCHAR 2829
ENCODING 10281
SWIDTH	-8531 0
DWIDTH	18 0
BBX 18	19 0 -1
BITMAP
000000
008000
008000
008000
008000
008000
008000
008000
7f8000
008000
008000
008000
008000
008000
008000
008000
008000
000000
000000
ENDCHAR
STARTCHAR 282a
ENCODING 10282
SWIDTH	-8531 0
DWIDTH	18 0
BBX 18	19 0 -1
BITMAP
000000
008000
008000
008000
008000
008000
008000
008000
7fff80
000000
000000
000000
000000
000000
000000
000000
000000
000000
000000
ENDCHAR
STARTCHAR 282b
ENCODING 10283
SWIDTH	-8531 0
DWIDTH	18 0
BBX 18	19 0 -1
BITMAP
000000
008000
008000
008000
008000
008000
008000
008000
7fff80
008000
008000
008000
008000
008000
008000
008000
008000
000000
000000
ENDCHAR
STARTCHAR 282c
ENCODING 10284
SWIDTH	-8531 0
DWIDTH	18 0
BBX 18	19 0 -1
BITMAP
000000
000000
000000
000000
000000
000000
000000
000000
7fff80
7fff80
000000
000000
000000
000000
000000
000000
000000
000000
000000
ENDCHAR
STARTCHAR 282d
ENCODING 10285
SWIDTH	-8531 0
DWIDTH	18 0
BBX 18	19 0 -1
BITMAP
000000
00c000
00c000
00c000
00c000
00c000
00c000
00c000
00c000
00c000
00c000
00c000
00c000
00c000
00c000
00c000
00c000
000000
000000
ENDCHAR
STARTCHAR 282e
ENCODING 10286
SWIDTH	-8531 0
DWIDTH	18 0
BBX 18	19 0 -1
BITMAP
000000
000000
000000
000000
000000
000000
000000
000000
00ff80
00ff80
00c000
00c000
00c000
00c000
00c000
00c000
00c000
000000
000000
ENDCHAR
STARTCHAR 282f
ENCODING 10287
SWIDTH	-8531 0
DWIDTH	18 0
BBX 18	19 0 -1
BITMAP
000000
000000
000000
000000
000000
000000
000000
000000
7fc000
7fc000
00c000
00c000
00c000
00c000
00c000
00c000
00c000
000000
000000
ENDCHAR
STARTCHAR 2830
ENCODING 10288
SWIDTH	-8531 0
DWIDTH	18 0
BBX 18	19 0 -1
BITMAP
000000
00c000
00c000
00c000
00c000
00c000
00c000
00c000
7fc000
7fc000
000000
000000
000000
000000
000000
000000
000000
000000
000000
ENDCHAR
STARTCHAR 2831
ENCODING 10289
SWIDTH	-8531 0
DWIDTH	18 0
BBX 18	19 0 -1
BITMAP
000000
00c000
00c000
00c000
00c000
00c000
00c000
00c000
00ff80
00ff80
000000
000000
000000
000000
000000
000000
000000
000000
000000
ENDCHAR
STARTCHAR 2832
ENCODING 10290
SWIDTH	-8531 0
DWIDTH	18 0
BBX 18	19 0 -1
BITMAP
000000
00c000
00c000
00c000
00c000
00c000
00c000
00c000
00ff80
00ff80
00c000
00c000
00c000
00c000
00c000
00c000
00c000
000000
000000
ENDCHAR
STARTCHAR 2833
ENCODING 10291
SWIDTH	-8531 0
DWIDTH	18 0
BBX 18	19 0 -1
BITMAP
000000
000000
000000
000000
000000
000000
000000
000000
7fff80
7fff80
00c000
00c000
00c000
00c000
00c000
00c000
00c000
000000
000000
ENDCHAR
STARTCHAR 2834
ENCODING 10292
SWIDTH	-8531 0
DWIDTH	18 0
BBX 18	19 0 -1
BITMAP
000000
00c000
00c000
00c000
00c000
00c000
00c000
00c000
7fc000
7fc000
00c000
00c000
00c000
00c000
00c000
00c000
00c000
000000
000000
ENDCHAR
STARTCHAR 2835
ENCODING 10293
SWIDTH	-8531 0
DWIDTH	18 0
BBX 18	19 0 -1
BITMAP
000000
00c000
00c000
00c000
00c000
00c000
00c000
00c000
7fff80
7fff80
000000
000000
000000
000000
000000
000000
000000
000000
000000
ENDCHAR
STARTCHAR 2836
ENCODING 10294
SWIDTH	-8531 0
DWIDTH	18 0
BBX 18	19 0 -1
BITMAP
000000
00c000
00c000
00c000
00c000
00c000
00c000
00c000
7fff80
7fff80
00c000
00c000
00c000
00c000
00c000
00c000
00c000
000000
000000
ENDCHAR
STARTCHAR 2837
ENCODING 10295
SWIDTH	-8531 0
DWIDTH	18 0
BBX 18	19 0 -1
BITMAP
000000
00c000
00c000
00c000
00c000
00c000
00c000
00c000
00ff80
00c000
00c000
00c000
00c000
00c000
00c000
00c000
00c000
000000
000000
ENDCHAR
STARTCHAR 2838
ENCODING 10296
SWIDTH	-8531 0
DWIDTH	18 0
BBX 18	19 0 -1
BITMAP
000000
000000
000000
000000
000000
000000
000000
000000
7fff80
7fff80
008000
008000
008000
008000
008000
008000
008000
000000
000000
ENDCHAR
STARTCHAR 2839
ENCODING 10297
SWIDTH	-8531 0
DWIDTH	18 0
BBX 18	19 0 -1
BITMAP
000000
00c000
00c000
00c000
00c000
00c000
00c000
00c000
7fc000
00c000
00c000
00c000
00c000
00c000
00c000
00c000
00c000
000000
000000
ENDCHAR
STARTCHAR 283a
ENCODING 10298
SWIDTH	-8531 0
DWIDTH	18 0
BBX 18	19 0 -1
BITMAP
000000
008000
008000
008000
008000
008000
008000
008000
7fff80
7fff80
000000
000000
000000
000000
000000
000000
000000
000000
000000
ENDCHAR
STARTCHAR 283b
ENCODING 10299
SWIDTH	-8531 0
DWIDTH	18 0
BBX 18	19 0 -1
BITMAP
000000
008000
008000
008000
008000
008000
008000
008000
7fff80
7fff80
008000
008000
008000
008000
008000
008000
008000
000000
000000
ENDCHAR
STARTCHAR 283c
ENCODING 10300
SWIDTH	-8531 0
DWIDTH	18 0
BBX 18	19 0 -1
BITMAP
000000
008000
008000
008000
008000
008000
008000
008000
00ff80
00ff80
008000
008000
008000
008000
008000
008000
008000
000000
000000
ENDCHAR
STARTCHAR 283d
ENCODING 10301
SWIDTH	-8531 0
DWIDTH	18 0
BBX 18	19 0 -1
BITMAP
000000
000000
000000
000000
000000
000000
000000
000000
7fff80
00c000
00c000
00c000
00c000
00c000
00c000
00c000
00c000
000000
000000
ENDCHAR
STARTCHAR 283e
ENCODING 10302
SWIDTH	-8531 0
DWIDTH	18 0
BBX 18	19 0 -1
BITMAP
000000
008000
008000
008000
008000
008000
008000
008000
7f8000
7f8000
008000
008000
008000
008000
008000
008000
008000
000000
000000
ENDCHAR
STARTCHAR 283f
ENCODING 10303
SWIDTH	-8531 0
DWIDTH	18 0
BBX 18	19 0 -1
BITMAP
000000
00c000
00c000
00c000
00c000
00c000
00c000
00c000
7fff80
000000
000000
000000
000000
000000
000000
000000
000000
000000
000000
ENDCHAR
STARTCHAR 2840
ENCODING 10304
SWIDTH	-8531 0
DWIDTH	18 0
BBX 18	19 0 -1
BITMAP
000000
00c000
00c000
00c000
00c000
00c000
00c000
00c000
7fff80
00c000
00c000
00c000
00c000
00c000
00c000
00c000
00c000
000000
000000
ENDCHAR
STARTCHAR 3021
ENCODING 12321
SWIDTH	-8531 0
DWIDTH	18 0
BBX 18	19 0 -1
BITMAP
000000
000000
3fff00
021000
021000
021000
3fff00
221100
221100
221100
221100
3fff00
021000
021000
021000
021000
7fff80
000000
000000
ENDCHAR
STARTCHAR 3022
ENCODING 12322
SWIDTH	-8531 0
DWIDTH	18 0
BBX 18	19 0 -1
BITMAP
000000
000000
03ff00
004800
784800
484800
484800
4bcf00
4a0100
4a0100
4a0100
4bcf00
484800
784800
004800
004800
07ff80
000000
000000
ENDCHAR
STARTCHAR 3023
ENCODING 12323
SWIDTH	-8531 0
DWIDTH	18 0
BBX 18	19 0 -1
BITMAP
000000
100800
100800
100800
107f00
7e0800
220800
220800
22ff80
220000
240800
140800
087f00
140800
220800
400800
01ff80
000000
000000
ENDCHAR
STARTCHAR 3024
ENCODING 12324
SWIDTH	-8531 0
DWIDTH	18 0
BBX 18	19 0 -1
BITMAP
000000
000000
7dff80
440200
480200
480200
50f200
489200
489200
449200
449200
449200
44f200
5c0200
400200
400200
400e00
000000
000000
ENDCHAR
STARTCHAR 3025
ENCODING 12325
SWIDTH	-8531 0
DWIDTH	18 0
BBX 18	19 0 -1
BITMAP
000000
008000
008000
7fff80
000000
1ffe00
100200
100200
100200
1ffe00
024000
044100
0c2200
141400
648800
070600
1c0180
000000
000000
ENDCHAR
STARTCHAR 3026
ENCODING 12326
SWIDTH	-8531 0
DWIDTH	18 0
BBX 18	19 0 -1
BITMAP
000000
000c00
3ff100
088200
044400
7fff80
408080
4a4480
121200
23f100
020000
07f800
091000
10a000
004000
01b000
3e0f00
000000
000000
ENDCHAR
STARTCHAR 3027
ENCODING 12327
SWIDTH	-8531 0
DWIDTH	18 0
BBX 18	19 0 -1
BITMAP
000000
081000
082000
084200
088100
7eff80
084080
084000
0aff00
0d1000
081000
1bff80
682800
084400
084400
088200
390180
000000
000000
ENDCHAR
STARTCHAR 3028
ENCODING 12328
SWIDTH	-8531 0
DWIDTH	18 0
BBX 18	19 0 -1
BITMAP
000000
100800
101400
102200
104100
7e8080
220000
227f00
220000
220000
227f00
244100
144100
084100
144100
224100
407f00
000000
000000
ENDCHAR
STARTCHAR 3029
ENCODING 12329
SWIDTH	-8531 0
DWIDTH	18 0
BBX 18	19 0 -1
BITMAP
000000
002000
207e00
108400
092800
001000
006c00
038380
781000
08fe00
081000
08fe00
081000
09ff00
141000
220000
41ff80
000000
000000
ENDCHAR
STARTCHAR 302a
ENCODING 12330
SWIDTH	-8531 0
DWIDTH	18 0
BBX 18	19 0 -1
BITMAP
000000
040800
040800
7fff80
040800
0f2000
012200
221400
140880
0be500
108200
208100
4ffc80
013000
020800
0c0400
300200
000000
000000
ENDCHAR
STARTCHAR 302b
ENCODING 12331
SWIDTH	-8531 0
DWIDTH	18 0
BBX 18	19 0 -1
BITMAP
000000
040800
040800
7fff80
040800
000000
7fff80
012000
012000
3fff00
212100
222100
222500
243d00
280100
200100
3fff00
000000
000000
ENDCHAR
STARTCHAR 302c
ENCODING 12332
SWIDTH	-8531 0
DWIDTH	18 0
BBX 18	19 0 -1
BITMAP
000000
047c00
188800
69ff00
0a9100
08ff00
7e9100
08ff00
181000
1dff80
2b1080
29ff80
491080
09ff80
081000
081080
080f80
000000
000000
ENDCHAR
STARTCHAR 302d
ENCODING 12333
SWIDTH	-8531 0
DWIDTH	18 0
BBX 18	19 0 -1
BITMAP
000000
000000
3fff00
012000
012000
1ffe00
112200
112200
1ffe00
012000
012000
7fff80
008000
124200
120100
220480
41fc00
000000
000000
ENDCHAR
STARTCHAR 302e
ENCODING 12334
SWIDTH	-8531 0
DWIDTH	18 0
BBX 18	19 0 -1
BITMAP
000000
080000
09ff80
090080
090080
7dff80
090000
09ff80
0b1200
0d2100
097f00
190900
690800
097f00
0a0800
0a0800
38ff80
000000
000000
ENDCHAR
STARTCHAR 302f
ENCODING 12335
SWIDTH	-8531 0
DWIDTH	18 0
BBX 18	19 0 -1
BITMAP
000000
000000
23ff80
120080
0a0080
03ff80
420000
22ff80
122000
024100
02ff80
0a0880
0a0800
127f00
140800
240800
48ff80
000000
000000
ENDCHAR
STARTCHAR 3030
ENCODING 12336
SWIDTH	-8531 0
DWIDTH	18 0
BBX 18	19 0 -1
BITMAP
000000
080000
087f00
084100
084100
7f4100
094100
097f00
094100
094100
094100
094100
097f00
110000
110000
210080
40ff80
000000
000000
ENDCHAR
STARTCHAR 3031
ENCODING 12337
SWIDTH	-8531 0
DWIDTH	18 0
BBX 18	19 0 -1
BITMAP
000000
040800
7fff80
040800
010000
0ffc00
010400
3fff00
000000
1ffe00
100200
1ffe00
002000
3fff00
102000
1fff80
002000
000000
000000
ENDCHAR
STARTCHAR 3032
ENCODING 12338
SWIDTH	-8531 0
DWIDTH	18 0
BBX 18	19 0 -1
BITMAP
000000
040800
040800
7fff80
040800
000300
0ffc00
080000
0fff00
080100
080100
080100
0fff00
100000
100000
200000
400000
000000
000000
ENDCHAR
STARTCHAR 3033
ENCODING 12339
SWIDTH	-8531 0
DWIDTH	18 0
BBX 18	19 0 -1
BITMAP
000000
101000
1e2200
224100
44ff80
080880
7f0800
497f80
492200
7f4100
490880
491200
7f6480
000900
553200
550400
541800
000000
000000
ENDCHAR
STARTCHAR 3034
ENCODING 12340
SWIDTH	-8531 0
DWIDTH	18 0
BBX 18	19 0 -1
BITMAP
000000
081000
081000
08ff00
084200
7e2200
082400
19ff80
1c1000
2a1000
281000
49ff80
081000
081000
081000
081000
081000
000000
000000
ENDCHAR
STARTCHAR 3035
ENCODING 12341
SWIDTH	-8531 0
DWIDTH	18 0
BBX 18	19 0 -1
BITMAP
000000
000000
1fff80
100000
102000
102000
102000
102000
13ff00
102000
102000
102000
102000
202000
202000
47ff80
000000
000000
000000
ENDCHAR
STARTCHAR 3036
ENCODING 12342
SWIDTH	-8531 0
DWIDTH	18 0
BBX 18	19 0 -1
BITMAP
000000
080400
7f0a00
081100
082080
7f4200
411200
410a00
7f0200
412200
411200
7f0200
087f80
080200
7f0200
080200
080200
000000
000000
ENDCHAR
STARTCHAR 3037
ENCODING 12343
SWIDTH	-8531 0
DWIDTH	18 0
BBX 18	19 0 -1
BITMAP
000000
080000
09ff00
084200
084400
7e4400
084800
085f80
0a4080
0c4080
18a100
689100
089200
090c00
090a00
0a3100
38c080
000000
000000
ENDCHAR
STARTCHAR 3038
ENCODING 12344
SWIDTH	-8531 0
DWIDTH	18 0
BBX 18	19 0 -1
BITMAP
000000
008000
008000
7fff80
400080
480080
080000
1fbf00
10a100
20a100
412100
112100
0a2700
042000
082080
302080
401f80
000000
000000
ENDCHAR
STARTCHAR 3039
ENCODING 12345
SWIDTH	-8531 0
DWIDTH	18 0
BBX 18	19 0 -1
BITMAP
000000
107e00
104200
104200
7e4200
224200
227e00
224200
224200
224200
244200
147e00
084200
144200
224200
404200
01ff80
000000
000000
ENDCHAR
STARTCHAR 303a
ENCODING 12346
SWIDTH	-8531 0
DWIDTH	18 0
BBX 18	19 0 -1
BITMAP
000000
080800
080800
080800
080800
7f3f80
492000
492000
492000
492000
7f2000
082000
082000
092000
092000
7f2000
011f80
000000
000000
ENDCHAR
STARTCHAR 303b
ENCODING 12347
SWIDTH	-8531 0
DWIDTH	18 0
BBX 18	19 0 -1
BITMAP
000000
040800
0a0800
111000
2e9200
402100
3f2100
214080
3f7f80
210080
3f0000
207f00
3e4100
204100
204100
3e4100
207f00
000000
000000
ENDCHAR
STARTCHAR 303c
ENCODING 12348
SWIDTH	-8531 0
DWIDTH	18 0
BBX 18	19 0 -1
BITMAP
000000
084000
104000
207f80
448080
288080
117c80
204480
424480
7e4480
0a7c80
084480
4a4480
4a4480
4a7c80
480080
080700
000000
000000
ENDCHAR
STARTCHAR 303d
ENCODING 12349
SWIDTH	-8531 0
DWIDTH	18 0
BBX 18	19 0 -1
BITMAP
000000
080800
100800
207f00
440800
280800
10ff80
222400
422480
7e4780
0a2000
083f00
4a4200
4a9400
4a0800
483600
08c180
000000
000000
ENDCHAR
STARTCHAR 303e
ENCODING 12350
SWIDTH	-8531 0
DWIDTH	18 0
BBX 18	19 0 -1
BITMAP
000000
100800
1f0800
220800
440800
080f80
7f0800
490800
490800
7f0800
497f80
494080
7f4080
004080
554080
554080
547f80
000000
000000
ENDCHAR
STARTCHAR 303f
ENCODING 12351
SWIDTH	-8531 0
DWIDTH	18 0
BBX 18	19 0 -1
BITMAP
000000
001200
001100
001000
7fff80
001000
001000
3f9100
209100
209100
209200
3f8a00
000c00
018880
7e1480
006280
018180
000000
000000
ENDCHAR
STARTCHAR 3040
ENCODING 12352
SWIDTH	-8531 0
DWIDTH	18 0
BBX 18	19 0 -1
BITMAP
000000
3fff00
021000
021000
3fff00
221100
221100
3fff00
008000
088800
049000
7fff80
01a000
029000
048800
188600
608180
000000
000000
ENDCHAR
STARTCHAR 3041
ENCODING 12353
SWIDTH	-8531 0
DWIDTH	18 0
BBX 18	19 0 -1
BITMAP
000000
080800
081400
082200
7e4100
028080
040000
097f00
0a0000
1c0000
2a7f00
494100
084100
084100
084100
084100
087f00
000000
000000
ENDCHAR
STARTCHAR 3042
ENCODING 12354
SWIDTH	-8531 0
DWIDTH	18 0
BBX 18	19 0 -1
BITMAP
000000
008000
008000
7fff80
400080
410080
410080
020000
7fff80
040400
040400
080800
0f1000
00e000
011800
060400
380300
000000
000000
ENDCHAR
STARTCHAR 3043
ENCODING 12355
SWIDTH	-8531 0
DWIDTH	18 0
BBX 18	19 0 -1
BITMAP
000000
002000
002000
1fff80
100000
102000
17ff80
108400
112200
13ff00
152280
11fe00
112200
21fe00
202080
402080
001f80
000000
000000
ENDCHAR
STARTCHAR 3044
ENCODING 12356
SWIDTH	-8531 0
DWIDTH	18 0
BBX 18	19 0 -1
BITMAP
000000
081000
081000
09ff80
090080
7f2080
082000
0bff80
0a4200
0c4200
084200
18c200
683400
080c00
081200
086100
398080
000000
000000
ENDCHAR
STARTCHAR 3045
ENCODING 12357
SWIDTH	-8531 0
DWIDTH	18 0
BBX 18	19 0 -1
BITMAP
000000
001000
001000
7dff80
448200
444200
444200
444400
45ff80
7c0000
44ff00
448100
448100
44ff00
448100
7c8100
00ff00
000000
000000
ENDCHAR
STARTCHAR 3046
ENCODING 12358
SWIDTH	-8531 0
DWIDTH	18 0
BBX 18	19 0 -1
BITMAP
000000
008000
008000
7fff80
408080
410080
1ffe00
040800
0e1000
01e000
1e1c00
008000
7fff80
02a000
049000
188c00
608380
000000
000000
ENDCHAR
STARTCHAR 3047
ENCODING 12359
SWIDTH	-8531 0
DWIDTH	18 0
BBX 18	19 0 -1
BITMAP
000000
7f7f00
414100
7f7f00
414100
7f7f00
43e100
400100
4ff900
422100
5ffd00
400100
47f100
441100
47f100
441100
47f300
000000
000000
ENDCHAR
STARTCHAR 3048
ENCODING 12360
SWIDTH	-8531 0
DWIDTH	18 0
BBX 18	19 0 -1
BITMAP
000000
220800
220800
7f0800
22ff80
228080
3e9080
081000
7f7f80
492200
492200
7f2200
083200
7f0c00
081200
082100
08c080
000000
000000
ENDCHAR
STARTCHAR 3049
ENCODING 12361
SWIDTH	-8531 0
DWIDTH	18 0
BBX 18	19 0 -1
BITMAP
000000
008000
008000
3fff00
01c000
02a000
02a000
049000
088800
108400
200200
5ffd80
100400
100400
100400
100400
1ffc00
000000
000000
ENDCHAR
STARTCHAR 304a
ENCODING 12362
SWIDTH	-8531 0
DWIDTH	18 0
BBX 18	19 0 -1
BITMAP
000000
100400
100400
100400
110400
108400
104400
104400
100400
100400
108800
110800
111400
121200
142100
184100
618080
000000
000000
ENDCHAR
STARTCHAR 304b
ENCODING 12363
SWIDTH	-8531 0
DWIDTH	18 0
BBX 18	19 0 -1
BITMAP
000000
040000
05ff00
082100
082100
182100
2bff80
482100
082100
082100
09ff00
082000
082000
084000
084000
088000
090000
000000
000000
ENDCHAR
STARTCHAR 304c
ENCODING 12364
SWIDTH	-8531 0
DWIDTH	18 0
BBX 18	19 0 -1
BITMAP
000000
041000
041000
081000
081000
13ff80
280000
488200
088200
084200
084200
084200
084400
084400
080800
081000
0bff80
000000
000000
ENDCHAR
STARTCHAR 304d
ENCODING 12365
SWIDTH	-8531 0
DWIDTH	18 0
BBX 18	19 0 -1
BITMAP
000000
041000
041000
081000
0bff80
102000
285000
485080
089100
090a00
0a8c00
088400
088400
088200
088a00
08b100
09c080
000000
000000
ENDCHAR
STARTCHAR 304e
ENCODING 12366
SWIDTH	-8531 0
DWIDTH	18 0
BBX 18	19 0 -1
BITMAP
000000
042000
04fe00
082200
082200
13ff80
280000
49ff00
090100
09ff00
080800
08ff00
088800
088800
0bff80
080800
080800
000000
000000
ENDCHAR
STARTCHAR 304f
ENCODING 12367
SWIDTH	-8531 0
DWIDTH	18 0
BBX 18	19 0 -1
BITMAP
000000
000000
7fff00
400100
422100
422100
4ff900
422100
422100
422100
5ffd00
422100
422100
442100
482100
400100
7fff00
000000
000000
ENDCHAR
STARTCHAR 3050
ENCODING 12368
SWIDTH	-8531 0
DWIDTH	18 0
BBX 18	19 0 -1
BITMAP
000000
008000
008000
7fff80
008000
1ffe00
008200
008200
3ffe00
208000
208000
3fff00
014100
022100
041300
180c00
600300
000000
000000
ENDCHAR
STARTCHAR 3051
ENCODING 12369
SWIDTH	-8531 0
DWIDTH	18 0
BBX 18	19 0 -1
BITMAP
000000
001c00
1fe000
008000
008000
7fff80
02a000
0c9800
308700
010000
7fff80
020400
040800
0f1000
00e000
031800
3c0600
000000
000000
ENDCHAR
STARTCHAR 3052
ENCODING 12370
SWIDTH	-8531 0
DWIDTH	18 0
BBX 18	19 0 -1
BITMAP
000000
000900
000880
000800
1fff80
100800
100800
1fc880
120880
120900
1fe900
124a00
124400
264480
218a80
425180
042080
000000
000000
ENDCHAR
STARTCHAR 3053
ENCODING 12371
SWIDTH	-8531 0
DWIDTH	18 0
BBX 18	19 0 -1
BITMAP
000000
000100
3fc100
204100
204100
3fdf80
200100
200100
2fd100
200900
200500
2fc100
210100
254100
492100
410100
030700
000000
000000
ENDCHAR
STARTCHAR 3054
ENCODING 12372
SWIDTH	-8531 0
DWIDTH	18 0
BBX 18	19 0 -1
BITMAP
000000
104400
104400
108800
55ff80
570800
550800
510800
11ff00
110800
110800
110800
11ff00
110800
110800
110800
11ff80
000000
000000
ENDCHAR
STARTCHAR 3055
ENCODING 12373
SWIDTH	-8531 0
DWIDTH	18 0
BBX 18	19 0 -1
BITMAP
000000
008000
3fff00
040800
021000
7fff80
000000
1ffe00
100200
1ffe00
100200
1ffe00
000000
048200
244100
240480
43fc00
000000
000000
ENDCHAR
STARTCHAR 3056
ENCODING 12374
SWIDTH	-8531 0
DWIDTH	18 0
BBX 18	19 0 -1
BITMAP
000000
000200
3fc200
204200
3fdf80
200200
278200
201200
2fca00
410200
494200
132e00
000000
124200
122100
220480
41fc00
000000
000000
ENDCHAR
STARTCHAR 3057
ENCODING 12375
SWIDTH	-8531 0
DWIDTH	18 0
BBX 18	19 0 -1
BITMAP
000000
1ffe00
100200
100200
1ffe00
100200
100200
1ffe00
020000
07ff00
188900
611100
022100
0c4100
308100
030100
0c0e00
000000
000000
ENDCHAR
STARTCHAR 3058
ENCODING 12376
SWIDTH	-8531 0
DWIDTH	18 0
BBX 18	19 0 -1
BITMAP
000000
081000
081000
08ff00
082800
7e4400
088200
180000
1dff80
2a0200
28f200
489200
089200
08f200
080200
080200
080e00
000000
000000
ENDCHAR
STARTCHAR 3059
ENCODING 12377
SWIDTH	-8531 0
DWIDTH	18 0
BBX 18	19 0 -1
BITMAP
000000
082000
042000
004000
1ffc00
008400
008400
010400
01fe00
020200
040200
0fff80
100080
600480
122280
111080
210700
000000
000000
ENDCHAR
STARTCHAR 305a
ENCODING 12378
SWIDTH	-8531 0
DWIDTH	18 0
BBX 18	19 0 -1
BITMAP
000000
1ffe00
108200
108200
1ffe00
108200
108200
1ffe00
000000
000000
7fff80
084000
082200
081400
088800
0b0600
3c0180
000000
000000
ENDCHAR
STARTCHAR 305b
ENCODING 12379
SWIDTH	-8531 0
DWIDTH	18 0
BBX 18	19 0 -1
BITMAP
000000
1ffe00
108200
108200
1ffe00
108200
108200
1ffe00
040800
040800
3fff00
040800
040800
7fff80
040800
080400
300200
000000
000000
ENDCHAR
STARTCHAR 305c
ENCODING 12380
SWIDTH	-8531 0
DWIDTH	18 0
BBX 18	19 0 -1
BITMAP
000000
022000
043c00
184400
68c800
092800
081000
7e2780
084480
1c8880
2a1900
282500
48c200
080400
080800
083000
09c000
000000
000000
ENDCHAR
STARTCHAR 305d
ENCODING 12381
SWIDTH	-8531 0
DWIDTH	18 0
BBX 18	19 0 -1
BITMAP
000000
082200
102200
204400
44ff80
294400
104400
224400
427f80
7e4400
0a4400
084400
4a7f80
4a4400
4a4400
484400
087f80
000000
000000
ENDCHAR
STARTCHAR 305e
ENCODING 12382
SWIDTH	-8531 0
DWIDTH	18 0
BBX 18	19 0 -1
BITMAP
000000
082000
10fe00
202200
442200
29ff80
100000
22ff00
428100
7eff00
0a0400
087f00
4a4400
4a4400
4aff80
480400
080400
000000
000000
ENDCHAR
STARTCHAR 305f
ENCODING 12383
SWIDTH	-8531 0
DWIDTH	18 0
BBX 18	19 0 -1
BITMAP
000000
3fff00
208100
208100
3fff00
208100
208100
3fff00
000000
1ffe00
100200
1ffe00
100200
1ffe00
100200
100200
100e00
000000
000000
ENDCHAR
STARTCHAR 3060
ENCODING 12384
SWIDTH	-8531 0
DWIDTH	18 0
BBX 18	19 0 -1
BITMAP
000000
040800
7fff80
040800
000600
1ff800
008000
7fff80
029000
0c8c00
328300
020000
7fff80
040800
0f1000
00e000
1f1c00
000000
000000
ENDCHAR
STARTCHAR 3061
ENCODING 12385
SWIDTH	-8531 0
DWIDTH	18 0
BBX 18	19 0 -1
BITMAP
000000
008000
008000
008000
7fff80
010000
010000
028100
048200
0c4400
145800
242000
442000
041000
044800
058600
1e0180
000000
000000
ENDCHAR
STARTCHAR 3062
ENCODING 12386
SWIDTH	-8531 0
DWIDTH	18 0
BBX 18	19 0 -1
BITMAP
000000
000000
3eff80
008880
008880
7eff80
008880
3e8880
00ff80
3e0000
007f00
3e4100
227f00
224100
227f00
224100
3e4700
000000
000000
ENDCHAR
STARTCHAR 3063
ENCODING 12387
SWIDTH	-8531 0
DWIDTH	18 0
BBX 18	19 0 -1
BITMAP
000000
002000
21fe00
102200
0bff80
000000
01ff00
010100
79ff00
080800
08ff00
088800
0bff80
080800
140800
220000
41ff80
000000
000000
ENDCHAR
STARTCHAR 3064
ENCODING 12388
SWIDTH	-8531 0
DWIDTH	18 0
BBX 18	19 0 -1
BITMAP
000000
001000
21ff00
111100
09ff00
001000
03ff80
008100
78ff00
088100
08ff00
088100
08ff00
084200
148100
220000
41ff80
000000
000000
ENDCHAR
STARTCHAR 3065
ENCODING 12389
SWIDTH	-8531 0
DWIDTH	18 0
BBX 18	19 0 -1
BITMAP
000000
000000
3fff80
200000
210000
21fe00
222000
242000
202000
27ff00
205000
204800
208400
210400
220200
200000
3fff80
000000
000000
ENDCHAR
STARTCHAR 3066
ENCODING 12390
SWIDTH	-8531 0
DWIDTH	18 0
BBX 18	19 0 -1
BITMAP
000000
040800
040800
040800
3fff00
040800
040800
040800
040800
040800
7fff80
040800
040800
080800
080800
100800
200800
000000
000000
ENDCHAR
STARTCHAR 3067
ENCODING 12391
SWIDTH	-8531 0
DWIDTH	18 0
BBX 18	19 0 -1
BITMAP
000000
008000
008000
7fff80
008000
010000
160800
0c1100
022100
014200
018400
020800
0c3000
306000
019800
060600
380100
000000
000000
ENDCHAR
STARTCHAR 3068
ENCODING 12392
SWIDTH	-8531 0
DWIDTH	18 0
BBX 18	19 0 -1
BITMAP
000000
100900
100880
100800
11ff80
7c0800
100800
11e800
112900
112900
11ea00
100a00
146400
198480
100a80
603280
00c180
000000
000000
ENDCHAR
STARTCHAR 3069
ENCODING 12393
SWIDTH	-8531 0
DWIDTH	18 0
BBX 18	19 0 -1
BITMAP
000000
008000
008000
7fff80
020000
040800
080400
3ffe00
000100
1ffc00
100400
1ffc00
100400
1ffc00
100400
100400
101c00
000000
000000
ENDCHAR
STARTCHAR 306a
ENCODING 12394
SWIDTH	-8531 0
DWIDTH	18 0
BBX 18	19 0 -1
BITMAP
000000
080000
081f80
7fd080
081100
101200
101400
3f9200
509100
109100
1f9080
109080
109080
1f9080
109700
109000
139000
000000
000000
ENDCHAR
STARTCHAR 306b
ENCODING 12395
SWIDTH	-8531 0
DWIDTH	18 0
BBX 18	19 0 -1
BITMAP
000000
004880
7c8900
212a00
214a80
208900
212a00
212a80
3deb80
240900
65ff80
244800
244480
244500
244200
3ca580
010880
000000
000000
ENDCHAR
STARTCHAR 306c
ENCODING 12396
SWIDTH	-8531 0
DWIDTH	18 0
BBX 18	19 0 -1
BITMAP
000000
000000
000000
000000
000000
000000
000000
000000
7fff80
000000
000000
000000
000000
000000
000000
000000
000000
000000
000000
ENDCHAR
STARTCHAR 306d
ENCODING 12397
SWIDTH	-8531 0
DWIDTH	18 0
BBX 18	19 0 -1
BITMAP
000000
008000
008000
7fff80
008000
008000
1ffe00
000000
7fff80
400080
440480
043800
07c000
040000
040200
040200
03fe00
000000
000000
ENDCHAR
STARTCHAR 306e
ENCODING 12398
SWIDTH	-8531 0
DWIDTH	18 0
BBX 18	19 0 -1
BITMAP
000000
000000
40bc00
210200
120100
04fc80
000000
400000
20bc00
110200
020100
040080
13ff00
124900
224900
224900
4fff80
000000
000000
ENDCHAR
STARTCHAR 306f
ENCODING 12399
SWIDTH	-8531 0
DWIDTH	18 0
BBX 18	19 0 -1
BITMAP
000000
008000
20fc00
110800
0a1000
01ff00
011100
011100
791100
09ff00
084800
084800
088880
088880
150f80
220000
41ff80
000000
000000
ENDCHAR
STARTCHAR 3070
ENCODING 12400
SWIDTH	-8531 0
DWIDTH	18 0
BBX 18	19 0 -1
BITMAP
000000
020300
04fc00
180000
692080
089100
085200
7e0000
18bf80
1ca080
2aa080
28a080
48bf80
08a080
08a080
08a080
08bf80
000000
000000
ENDCHAR
STARTCHAR 3071
ENCODING 12401
SWIDTH	-8531 0
DWIDTH	18 0
BBX 18	19 0 -1
BITMAP
000000
040800
040800
7fff80
040800
048800
208000
10ff80
089080
011080
021100
002800
082800
084400
108200
210100
460080
000000
000000
ENDCHAR
STARTCHAR 3072
ENCODING 12402
SWIDTH	-8531 0
DWIDTH	18 0
BBX 18	19 0 -1
BITMAP
000000
040800
040800
7fff80
040800
040800
000000
1ffe00
004000
004000
004000
7fff80
004000
004000
004000
004000
01c000
000000
000000
ENDCHAR
STARTCHAR 3073
ENCODING 12403
SWIDTH	-8531 0
DWIDTH	18 0
BBX 18	19 0 -1
BITMAP
000000
100000
1ef780
221080
441080
08f780
3e8400
2a8400
2af780
3e1080
2a3180
2a5280
3e9480
003180
555280
551480
543180
000000
000000
ENDCHAR
STARTCHAR 3074
ENCODING 12404
SWIDTH	-8531 0
DWIDTH	18 0
BBX 18	19 0 -1
BITMAP
000000
010000
010000
020000
020800
040200
080100
3fff80
000080
021000
021000
021000
021000
041000
041080
081080
300f80
000000
000000
ENDCHAR
STARTCHAR 3075
ENCODING 12405
SWIDTH	-8531 0
DWIDTH	18 0
BBX 18	19 0 -1
BITMAP
000000
010000
060000
387f00
204100
204100
204100
204100
3e4100
204100
204100
204100
204100
204100
3e4700
004000
004000
000000
000000
ENDCHAR
STARTCHAR 3076
ENCODING 12406
SWIDTH	-8531 0
DWIDTH	18 0
BBX 18	19 0 -1
BITMAP
000000
000000
03ff80
020080
7a1080
4a1080
4a1080
4afe80
4a1080
4a2880
4a2880
4a4480
4a8280
7a0080
020080
020080
03ff80
000000
000000
ENDCHAR
STARTCHAR 3077
ENCODING 12407
SWIDTH	-8531 0
DWIDTH	18 0
BBX 18	19 0 -1
BITMAP
000000
000000
1ffe00
100200
100200
1ffe00
000000
3fff00
200100
3fff00
200100
3fff00
200100
3fff00
040800
080600
300100
000000
000000
ENDCHAR
STARTCHAR 3078
ENCODING 12408
SWIDTH	-8531 0
DWIDTH	18 0
BBX 18	19 0 -1
BITMAP
000000
000000
7fff00
400100
408100
408100
408100
5ffd00
408100
414100
412100
421100
441100
480900
400100
400100
7fff00
000000
000000
ENDCHAR
STARTCHAR 3079
ENCODING 12409
SWIDTH	-8531 0
DWIDTH	18 0
BBX 18	19 0 -1
BITMAP
000000
100000
10ff80
108080
7e8880
228880
228880
22be80
228880
228880
228880
249480
14a280
088080
148080
228080
40ff80
000000
000000
ENDCHAR
STARTCHAR 307a
ENCODING 12410
SWIDTH	-8531 0
DWIDTH	18 0
BBX 18	19 0 -1
BITMAP
000000
000100
3fc100
004100
004100
004100
1fc100
100100
100100
200100
3fc100
004100
004100
004100
004100
008100
0f0100
000000
000000
ENDCHAR
STARTCHAR 307b
ENCODING 12411
SWIDTH	-8531 0
DWIDTH	18 0
BBX 18	19 0 -1
BITMAP
000000
042000
0a2000
113f80
24a480
442480
3f4500
210400
3f0400
210400
3f0400
200a00
220a00
211200
229100
2c2100
704080
000000
000000
ENDCHAR
STARTCHAR 307c
ENCODING 12412
SWIDTH	-8531 0
DWIDTH	18 0
BBX 18	19 0 -1
BITMAP
000000
200300
10fc00
088000
011100
020880
400000
200700
11f800
001000
001000
0bff80
081000
101000
101000
201000
41ff00
000000
000000
ENDCHAR
STARTCHAR 307d
ENCODING 12413
SWIDTH	-8531 0
DWIDTH	18 0
BBX 18	19 0 -1
BITMAP
000000
008000
110400
122400
114400
109400
111400
17f400
100400
17f400
141400
17f400
141400
17f400
241480
241480
447380
000000
000000
ENDCHAR
STARTCHAR 307e
ENCODING 12414
SWIDTH	-8531 0
DWIDTH	18 0
BBX 18	19 0 -1
BITMAP
000000
040800
7fff80
040800
001c00
3e2200
225d00
228080
243e00
280400
240800
227f00
220000
22ff80
2c2200
204100
20ff80
000000
000000
ENDCHAR
STARTCHAR 3121
ENCODING 12577
SWIDTH	-8531 0
DWIDTH	18 0
BBX 18	19 0 -1
BITMAP
000000
001000
7c1000
45ff80
450080
490080
507e00
480000
480000
45ff80
442400
442400
442400
5c4400
404480
408480
430780
000000
000000
ENDCHAR
STARTCHAR 3122
ENCODING 12578
SWIDTH	-8531 0
DWIDTH	18 0
BBX 18	19 0 -1
BITMAP
000000
001800
7c2400
444200
44bd00
490080
507e00
480200
480400
440800
44ff00
440000
45ff80
784000
408200
41ff00
400080
000000
000000
ENDCHAR
STARTCHAR 3123
ENCODING 12579
SWIDTH	-8531 0
DWIDTH	18 0
BBX 18	19 0 -1
BITMAP
000000
000300
7dfc00
440000
452100
489200
500000
49ff00
480100
44ff00
440100
45ff00
441000
594900
414080
414200
423e00
000000
000000
ENDCHAR
STARTCHAR 3124
ENCODING 12580
SWIDTH	-8531 0
DWIDTH	18 0
BBX 18	19 0 -1
BITMAP
000000
080000
083f00
7f2100
222100
123f00
120000
147f80
7f4080
007f80
3e4080
227f80
224080
3e7f80
222200
224100
3e8080
000000
000000
ENDCHAR
STARTCHAR 3125
ENCODING 12581
SWIDTH	-8531 0
DWIDTH	18 0
BBX 18	19 0 -1
BITMAP
000000
000400
000400
7c0400
440400
45ff80
440400
440400
448400
444400
442400
442400
440400
7c0400
000400
000400
001c00
000000
000000
ENDCHAR
STARTCHAR 3126
ENCODING 12582
SWIDTH	-8531 0
DWIDTH	18 0
BBX 18	19 0 -1
BITMAP
000000
020000
020000
020000
020000
7fff80
040000
040000
080000
080000
13ff00
220100
420100
020100
020100
020100
03ff00
000000
000000
ENDCHAR
STARTCHAR 3127
ENCODING 12583
SWIDTH	-8531 0
DWIDTH	18 0
BBX 18	19 0 -1
BITMAP
000000
008000
008000
7fff80
400080
400080
400080
1ffe00
004000
004000
004000
7fff80
004000
004000
004000
004000
03c000
000000
000000
ENDCHAR
STARTCHAR 3128
ENCODING 12584
SWIDTH	-8531 0
DWIDTH	18 0
BBX 18	19 0 -1
BITMAP
000000
020000
040000
1ffe00
100200
100200
100200
1ffe00
100000
1fff80
100000
1fff00
000100
124900
124900
224100
400e00
000000
000000
ENDCHAR
STARTCHAR 3129
ENCODING 12585
SWIDTH	-8531 0
DWIDTH	18 0
BBX 18	19 0 -1
BITMAP
000000
000000
7fbf80
008080
008080
209080
108880
088480
008080
008080
048480
048480
088880
109080
208080
008080
038380
000000
000000
ENDCHAR
STARTCHAR 312a
ENCODING 12586
SWIDTH	-8531 0
DWIDTH	18 0
BBX 18	19 0 -1
BITMAP
000000
000000
21ff00
101000
081000
001000
001000
03ff80
781000
081000
081000
081000
089000
085000
143000
220000
41ff80
000000
000000
ENDCHAR
STARTCHAR 312b
ENCODING 12587
SWIDTH	-8531 0
DWIDTH	18 0
BBX 18	19 0 -1
BITMAP
000000
000000
7fff80
008000
008000
008000
3fff00
208100
289100
248900
228500
208100
289100
248900
228500
208100
208700
000000
000000
ENDCHAR
STARTCHAR 312c
ENCODING 12588
SWIDTH	-8531 0
DWIDTH	18 0
BBX 18	19 0 -1
BITMAP
000000
010000
061f80
381080
201080
211080
211080
211080
211080
231080
251080
391080
621080
021380
041000
081000
101000
000000
000000
ENDCHAR
STARTCHAR 312d
ENCODING 12589
SWIDTH	-8531 0
DWIDTH	18 0
BBX 18	19 0 -1
BITMAP
000000
410400
220800
143f00
7f2100
093f00
092100
7f3f00
482000
483f80
7f2000
093f80
190080
295480
4b5480
085480
088180
000000
000000
ENDCHAR
STARTCHAR 312e
ENCODING 12590
SWIDTH	-8531 0
DWIDTH	18 0
BBX 18	19 0 -1
BITMAP
000000
008000
008000
7fff80
422080
4c3c80
000000
087f00
3e4100
087f00
084100
7f7f00
084100
147f00
122400
224480
408780
000000
000000
ENDCHAR
STARTCHAR 312f
ENCODING 12591
SWIDTH	-8531 0
DWIDTH	18 0
BBX 18	19 0 -1
BITMAP
000000
000000
1ffc00
020400
020400
020400
020400
020400
020400
7fff80
040800
040800
040800
040800
040800
7fff80
000000
000000
000000
ENDCHAR
STARTCHAR 3130
ENCODING 12592
SWIDTH	-8531 0
DWIDTH	18 0
BBX 18	19 0 -1
BITMAP
000000
002200
002200
7e4400
10ff80
114400
104400
104400
107f80
1f4400
314400
314400
517f80
114400
114400
114400
1f7f80
000000
000000
ENDCHAR
STARTCHAR 3131
ENCODING 12593
SWIDTH	-8531 0
DWIDTH	18 0
BBX 18	19 0 -1
BITMAP
000000
008000
010000
060000
387f00
200100
200100
200100
200100
200100
3f3f00
200100
200100
200100
200100
200100
3fff00
000000
000000
ENDCHAR
STARTCHAR 3132
ENCODING 12594
SWIDTH	-8531 0
DWIDTH	18 0
BBX 18	19 0 -1
BITMAP
000000
000000
20fe00
108200
089e00
009200
409200
23ff80
120080
020080
027c80
0a4480
0a4480
127c80
120080
220080
420380
000000
000000
ENDCHAR
STARTCHAR 3133
ENCODING 12595
SWIDTH	-8531 0
DWIDTH	18 0
BBX 18	19 0 -1
BITMAP
000000
002000
003f00
002000
7bff80
4a0080
4a2100
4afc00
4a2100
4a3f00
4a0000
4aa500
4aa500
7ae700
022400
042400
09ff80
000000
000000
ENDCHAR
STARTCHAR 3134
ENCODING 12596
SWIDTH	-8531 0
DWIDTH	18 0
BBX 18	19 0 -1
BITMAP
000000
000000
00ff80
7c8080
448080
448080
44ff80
448080
448080
44ff80
448080
448080
448080
7cff80
004400
008300
030080
000000
000000
ENDCHAR
STARTCHAR 3135
ENCODING 12597
SWIDTH	-8531 0
DWIDTH	18 0
BBX 18	19 0 -1
BITMAP
000000
08a200
7e4f80
1ca700
2a4a80
48b200
3fff00
221100
3fff00
208200
3f8200
20bf80
3f8200
202200
3f9200
200200
3f8600
000000
000000
ENDCHAR
STARTCHAR 3136
ENCODING 12598
SWIDTH	-8531 0
DWIDTH	18 0
BBX 18	19 0 -1
BITMAP
000000
021000
021000
7fff80
021000
3f9200
208200
208200
3fbf80
200200
2f8200
202200
2f9200
221200
4a8200
524200
060e00
000000
000000
ENDCHAR
STARTCHAR 3137
ENCODING 12599
SWIDTH	-8531 0
DWIDTH	18 0
BBX 18	19 0 -1
BITMAP
000000
103f00
1e2100
223d00
442100
083d00
7f0000
497f80
495280
7f7f80
490000
497f00
7f2100
001200
550c00
551200
546180
000000
000000
ENDCHAR
STARTCHAR 3138
ENCODING 12600
SWIDTH	-8531 0
DWIDTH	18 0
BBX 18	19 0 -1
BITMAP
000000
101000
101000
101000
10fe80
7c1100
241200
241400
25ff80
241000
242100
246600
14b800
092000
142080
222080
401f80
000000
000000
ENDCHAR
STARTCHAR 3139
ENCODING 12601
SWIDTH	-8531 0
DWIDTH	18 0
BBX 18	19 0 -1
BITMAP
000000
1fff80
108000
110000
13df80
124a00
124a00
13ca00
124a00
124a00
13cf80
120400
13ca00
220a00
239280
422280
024380
000000
000000
ENDCHAR
STARTCHAR 313a
ENCODING 12602
SWIDTH	-8531 0
DWIDTH	18 0
BBX 18	19 0 -1
BITMAP
000000
001300
201000
13ff80
081000
001000
43ff80
221080
121080
03ff80
021080
0a1080
0bff80
121080
121080
221080
421380
000000
000000
ENDCHAR
STARTCHAR 313b
ENCODING 12603
SWIDTH	-8531 0
DWIDTH	18 0
BBX 18	19 0 -1
BITMAP
000000
000c00
007000
0f8800
088800
088800
088800
088800
088800
088800
088400
088400
088400
10a200
109200
27f100
401080
000000
000000
ENDCHAR
STARTCHAR 313c
ENCODING 12604
SWIDTH	-8531 0
DWIDTH	18 0
BBX 18	19 0 -1
BITMAP
000000
000000
7f7f00
414100
7f7f00
414100
7f7f00
400100
400100
4ff900
408100
408100
47f100
408100
408100
4ff900
400300
000000
000000
ENDCHAR
STARTCHAR 313d
ENCODING 12605
SWIDTH	-8531 0
DWIDTH	18 0
BBX 18	19 0 -1
BITMAP
000000
005c00
008200
79ff00
4a2880
49ff00
492900
49cf00
490100
49ff00
490100
49ff00
480400
4bff80
780400
008400
005c00
000000
000000
ENDCHAR
STARTCHAR 313e
ENCODING 12606
SWIDTH	-8531 0
DWIDTH	18 0
BBX 18	19 0 -1
BITMAP
000000
000000
1ffe00
000000
000000
000000
000000
000000
7fff80
010000
010000
020800
020400
040200
080200
3fff00
000100
000000
000000
ENDCHAR
STARTCHAR 313f
ENCODING 12607
SWIDTH	-8531 0
DWIDTH	18 0
BBX 18	19 0 -1
BITMAP
000000
03ff80
220080
121080
0afe80
001000
01ff00
011100
79ff00
091100
09ff00
081000
09ff00
081000
141000
220000
41ff80
000000
000000
ENDCHAR
STARTCHAR 3140
ENCODING 12608
SWIDTH	-8531 0
DWIDTH	18 0
BBX 18	19 0 -1
BITMAP
000000
3fff00
008000
7fff80
408080
5c9c80
408080
5c9c80
000000
1ffe00
000000
7fff80
010000
020800
0c0600
3fff00
000100
000000
000000
ENDCHAR
STARTCHAR 3141
ENCODING 12609
SWIDTH	-8531 0
DWIDTH	18 0
BBX 18	19 0 -1
BITMAP
000000
040800
040800
7fff80
040800
020000
040300
08fc00
181000
281000
481000
0bff80
081000
081000
081000
081000
09ff00
000000
000000
ENDCHAR
STARTCHAR 3142
ENCODING 12610
SWIDTH	-8531 0
DWIDTH	18 0
BBX 18	19 0 -1
BITMAP
000000
040000
0aff80
112200
2ea200
402200
3f3e00
212200
3f2200
213e00
3f2200
202200
3e2200
20fe00
200200
3e0200
200200
000000
000000
ENDCHAR
STARTCHAR 3143
ENCODING 12611
SWIDTH	-8531 0
DWIDTH	18 0
BBX 18	19 0 -1
BITMAP
000000
040000
079f80
040080
7fe080
402880
4f2880
000880
264880
492900
1f8900
30ca00
5fa400
108400
1f8a00
109100
1fa080
000000
000000
ENDCHAR
STARTCHAR 3144
ENCODING 12612
SWIDTH	-8531 0
DWIDTH	18 0
BBX 18	19 0 -1
BITMAP
000000
110200
088400
044800
7fff80
400080
4ffc80
080400
080400
0ffc00
010000
020000
1ffe00
100200
100200
100200
1ffe00
000000
000000
ENDCHAR
STARTCHAR 3145
ENCODING 12613
SWIDTH	-8531 0
DWIDTH	18 0
BBX 18	19 0 -1
BITMAP
000000
3f3f00
212100
3f3f00
212100
3f3f00
212100
3f3f00
121200
212100
020000
7fff80
040800
0f1000
00e000
031800
3c0600
000000
000000
ENDCHAR
STARTCHAR 3146
ENCODING 12614
SWIDTH	-8531 0
DWIDTH	18 0
BBX 18	19 0 -1
BITMAP
000000
3f8100
208100
3f8200
208400
3f9880
040080
7fc100
000200
3f8400
209800
3f8080
040080
248100
244200
440c00
1c3000
000000
000000
ENDCHAR
STARTCHAR 3147
ENCODING 12615
SWIDTH	-8531 0
DWIDTH	18 0
BBX 18	19 0 -1
BITMAP
000000
001000
001000
7c1000
45ff00
451100
451100
451100
7d1100
451100
47ff80
442800
444400
444400
7c8200
010100
060080
000000
000000
ENDCHAR
STARTCHAR 3148
ENCODING 12616
SWIDTH	-8531 0
DWIDTH	18 0
BBX 18	19 0 -1
BITMAP
000000
008000
008000
3ffe00
208200
208200
3ffe00
208200
208200
3ffe00
008000
008400
004800
005080
006080
039880
3c0780
000000
000000
ENDCHAR
STARTCHAR 3149
ENCODING 12617
SWIDTH	-8531 0
DWIDTH	18 0
BBX 18	19 0 -1
BITMAP
000000
110200
088400
044800
7fff80
400080
408080
408080
1ffe00
01c000
02a000
02a000
049000
088800
108600
608180
008000
000000
000000
ENDCHAR
STARTCHAR 314a
ENCODING 12618
SWIDTH	-8531 0
DWIDTH	18 0
BBX 18	19 0 -1
BITMAP
000000
010000
008000
004000
000000
0fc100
004200
004400
7f6800
015000
025000
024800
044800
084400
104200
604180
01c000
000000
000000
ENDCHAR
STARTCHAR 314b
ENCODING 12619
SWIDTH	-8531 0
DWIDTH	18 0
BBX 18	19 0 -1
BITMAP
000000
004000
202000
101000
080000
01f000
401100
201200
13d400
005800
005400
089400
089200
111100
121080
241000
407000
000000
000000
ENDCHAR
STARTCHAR 314c
ENCODING 12620
SWIDTH	-8531 0
DWIDTH	18 0
BBX 18	19 0 -1
BITMAP
000000
002000
202000
13ff00
0a2100
022100
43ff00
222100
122100
03ff00
002000
081200
081400
100800
101480
206280
438180
000000
000000
ENDCHAR
STARTCHAR 314d
ENCODING 12621
SWIDTH	-8531 0
DWIDTH	18 0
BBX 18	19 0 -1
BITMAP
000000
004400
004400
7dff80
104400
101000
101000
7dff00
111100
111100
111100
17ff80
181000
102800
604400
018200
060180
000000
000000
ENDCHAR
STARTCHAR 314e
ENCODING 12622
SWIDTH	-8531 0
DWIDTH	18 0
BBX 18	19 0 -1
BITMAP
000000
000000
3ff800
040800
040800
07ef00
042100
094100
088100
114100
222600
000000
1ffe00
112200
112200
112200
7fff80
000000
000000
ENDCHAR
STARTCHAR 314f
ENCODING 12623
SWIDTH	-8531 0
DWIDTH	18 0
BBX 18	19 0 -1
BITMAP
000000
200000
3eff80
200800
201000
3e7f00
004100
024100
3c7f00
084100
7f7f00
084100
1c4100
2a7f00
492200
084100
088080
000000
000000
ENDCHAR
STARTCHAR 3150
ENCODING 12624
SWIDTH	-8531 0
DWIDTH	18 0
BBX 18	19 0 -1
BITMAP
000000
237f80
3c0400
200800
20bf00
3fa100
002100
003f00
3f2100
002100
003f00
7fa100
042100
153f00
249200
442100
0c4080
000000
000000
ENDCHAR
STARTCHAR 3151
ENCODING 12625
SWIDTH	-8531 0
DWIDTH	18 0
BBX 18	19 0 -1
BITMAP
000000
040800
040800
7fff80
040800
008000
008000
1ffe00
108200
108200
108200
7fff80
012000
021000
040800
180600
600180
000000
000000
ENDCHAR
STARTCHAR 3152
ENCODING 12626
SWIDTH	-8531 0
DWIDTH	18 0
BBX 18	19 0 -1
BITMAP
000000
090000
13ef80
212000
412000
0ff000
100f80
33f200
521200
13f200
104200
13f200
124200
124200
17f200
104200
104e00
000000
000000
ENDCHAR
STARTCHAR 3153
ENCODING 12627
SWIDTH	-8531 0
DWIDTH	18 0
BBX 18	19 0 -1
BITMAP
000000
002000
3c1000
000800
000000
7e7800
000800
3c0880
01e900
3c2a00
002c00
3c4a00
244a00
248900
250880
240800
3c3800
000000
000000
ENDCHAR
STARTCHAR 3154
ENCODING 12628
SWIDTH	-8531 0
DWIDTH	18 0
BBX 18	19 0 -1
BITMAP
000000
084100
142200
221400
417f80
004080
7f4080
084080
084080
7f7f80
081400
081400
491400
2a2400
082480
084480
7e8780
000000
000000
ENDCHAR
STARTCHAR 3155
ENCODING 12629
SWIDTH	-8531 0
DWIDTH	18 0
BBX 18	19 0 -1
BITMAP
000000
001000
401000
27ff80
100000
011000
411f00
221100
122900
062600
0a5200
029400
0a0800
120800
121400
222200
42c180
000000
000000
ENDCHAR
STARTCHAR 3156
ENCODING 12630
SWIDTH	-8531 0
DWIDTH	18 0
BBX 18	19 0 -1
BITMAP
000000
002000
002000
0fff80
080000
48f800
288900
088900
090f00
1a0000
280000
4bff00
088200
106400
101800
206600
438180
000000
000000
ENDCHAR
STARTCHAR 3157
ENCODING 12631
SWIDTH	-8531 0
DWIDTH	18 0
BBX 18	19 0 -1
BITMAP
000000
100200
080400
040800
7fff80
021000
021000
040800
080400
100200
2ffd00
492480
092400
092400
092400
092400
7fff80
000000
000000
ENDCHAR
STARTCHAR 3158
ENCODING 12632
SWIDTH	-8531 0
DWIDTH	18 0
BBX 18	19 0 -1
BITMAP
000000
000000
7f3f80
442080
442080
7f2080
442080
443f80
7f2400
442400
442400
7f2200
012200
552200
554100
514100
038080
000000
000000
ENDCHAR
STARTCHAR 3159
ENCODING 12633
SWIDTH	-8531 0
DWIDTH	18 0
BBX 18	19 0 -1
BITMAP
000000
110100
108200
104400
11ff00
550100
550100
550100
510100
11ff00
104800
104800
104800
108800
108880
110880
120f80
000000
000000
ENDCHAR
STARTCHAR 315a
ENCODING 12634
SWIDTH	-8531 0
DWIDTH	18 0
BBX 18	19 0 -1
BITMAP
000000
000000
3e7f00
004100
004100
7f7f00
004100
3e4100
007f00
3e2000
007f80
3e8080
224c80
227080
224280
227e80
3e0180
000000
000000
ENDCHAR
STARTCHAR 315b
ENCODING 12635
SWIDTH	-8531 0
DWIDTH	18 0
BBX 18	19 0 -1
BITMAP
000000
040500
040480
040400
3f7f80
044400
044400
044400
7f4400
044480
244480
275300
246200
344500
2c9880
260000
41ff80
000000
000000
ENDCHAR
STARTCHAR 315c
ENCODING 12636
SWIDTH	-8531 0
DWIDTH	18 0
BBX 18	19 0 -1
BITMAP
000000
000000
7f7f00
414100
7f7f00
414100
7f7f00
400100
441100
422100
47f100
441100
441100
47f100
424100
444900
487b00
000000
000000
ENDCHAR
STARTCHAR 315d
ENCODING 12637
SWIDTH	-8531 0
DWIDTH	18 0
BBX 18	19 0 -1
BITMAP
000000
080000
09ff80
081000
08ff00
7e8100
08ff00
088100
1cff00
1a8100
2aff00
282000
487f00
08c200
0b2400
081800
09e780
000000
000000
ENDCHAR
STARTCHAR 315e
ENCODING 12638
SWIDTH	-8531 0
DWIDTH	18 0
BBX 18	19 0 -1
BITMAP
000000
1fff80
100000
13c400
124500
13c480
124400
13df80
100400
17e400
142400
17e400
142400
27ea00
242a00
443100
046080
000000
000000
ENDCHAR
STARTCHAR 315f
ENCODING 12639
SWIDTH	-8531 0
DWIDTH	18 0
BBX 18	19 0 -1
BITMAP
000000
000000
3fff00
208100
208100
208100
208100
208100
208100
3fff00
200100
200100
200100
200100
200100
200100
200700
000000
000000
ENDCHAR
STARTCHAR 3160
ENCODING 12640
SWIDTH	-8531 0
DWIDTH	18 0
BBX 18	19 0 -1
BITMAP
000000
7fff00
400100
408100
4ff900
408100
5ffd00
400100
4ff900
480900
4ff900
418100
435100
452100
491900
400100
7fff00
000000
000000
ENDCHAR
STARTCHAR 3161
ENCODING 12641
SWIDTH	-8531 0
DWIDTH	18 0
BBX 18	19 0 -1
BITMAP
000000
11ff80
110000
113f00
112100
7d3f00
112100
113f00
111000
111000
117f80
151100
192200
111c00
216300
410000
01ff80
000000
000000
ENDCHAR
STARTCHAR 3162
ENCODING 12642
SWIDTH	-8531 0
DWIDTH	18 0
BBX 18	19 0 -1
BITMAP
000000
010000
010000
7fff80
040800
088400
108200
2ffd00
488480
088400
0ffc00
088400
088400
0ffc00
008100
008100
007f00
000000
000000
ENDCHAR
STARTCHAR 3163
ENCODING 12643
SWIDTH	-8531 0
DWIDTH	18 0
BBX 18	19 0 -1
BITMAP
000000
008000
008000
7fff80
400080
4ffc80
480480
0ffc00
080400
0ffc00
008000
7fff80
020400
071800
00e000
031800
1c0600
000000
000000
ENDCHAR
STARTCHAR 3164
ENCODING 12644
SWIDTH	-8531 0
DWIDTH	18 0
BBX 18	19 0 -1
BITMAP
000000
000700
7cf800
041000
081000
101000
209000
409f00
7c9000
049000
049000
449000
289000
11ff80
180000
260000
41ff80
000000
000000
ENDCHAR
STARTCHAR 3165
ENCODING 12645
SWIDTH	-8531 0
DWIDTH	18 0
BBX 18	19 0 -1
BITMAP
000000
080000
0fbf00
08a100
10a100
212100
512100
0a2700
042000
182080
601f80
008000
124200
122100
120100
220480
41fc00
000000
000000
ENDCHAR
STARTCHAR 3166
ENCODING 12646
SWIDTH	-8531 0
DWIDTH	18 0
BBX 18	19 0 -1
BITMAP
000000
101000
101000
11ff80
102800
7c2800
104400
109200
15ff00
1b1180
11ff00
311100
511100
11ff00
101000
101080
700f80
000000
000000
ENDCHAR
STARTCHAR 3167
ENCODING 12647
SWIDTH	-8531 0
DWIDTH	18 0
BBX 18	19 0 -1
BITMAP
000000
080300
08fc00
080000
089080
7e4900
080000
08ff00
0a4000
0dff80
084000
187f00
688100
089200
090c00
0a3200
38c180
000000
000000
ENDCHAR
STARTCHAR 3168
ENCODING 12648
SWIDTH	-8531 0
DWIDTH	18 0
BBX 18	19 0 -1
BITMAP
000000
000000
208400
108400
088400
010200
410200
220100
140080
01fe00
010200
090200
090200
110200
110200
210200
41fe00
000000
000000
ENDCHAR
STARTCHAR 3169
ENCODING 12649
SWIDTH	-8531 0
DWIDTH	18 0
BBX 18	19 0 -1
BITMAP
000000
001000
201000
13ff80
0a0080
02fe80
401000
21ff00
111100
011100
01ff00
091100
091100
11ff00
108200
210100
420080
000000
000000
ENDCHAR
STARTCHAR 316a
ENCODING 12650
SWIDTH	-8531 0
DWIDTH	18 0
BBX 18	19 0 -1
BITMAP
000000
008000
088200
088400
114800
022000
041000
180c00
208300
008000
088200
088400
114800
022000
041000
180c00
600380
000000
000000
ENDCHAR
STARTCHAR 316b
ENCODING 12651
SWIDTH	-8531 0
DWIDTH	18 0
BBX 18	19 0 -1
BITMAP
000000
082000
083f00
082100
082100
4a4100
4a8a00
4a0400
481000
08e780
088080
148080
14e780
128080
228080
208080
40ff80
000000
000000
ENDCHAR
STARTCHAR 316c
ENCODING 12652
SWIDTH	-8531 0
DWIDTH	18 0
BBX 18	19 0 -1
BITMAP
000000
080000
08ff80
081400
081400
08ff80
4a9480
4a9480
4a9480
48ff80
080800
080800
147f00
120800
220800
200800
40ff80
000000
000000
ENDCHAR
STARTCHAR 316d
ENCODING 12653
SWIDTH	-8531 0
DWIDTH	18 0
BBX 18	19 0 -1
BITMAP
000000
021000
021000
7fff80
021000
021000
0bf400
080480
7bf500
0a1600
1a1400
6a1480
0bf780
000000
122200
211100
411080
000000
000000
ENDCHAR
STARTCHAR 316e
ENCODING 12654
SWIDTH	-8531 0
DWIDTH	18 0
BBX 18	19 0 -1
BITMAP
000000
041000
441000
28ff00
101000
29ff80
480000
04ff00
0c8100
14ff00
142800
244900
44ca00
054400
045400
086200
30c180
000000
000000
ENDCHAR
STARTCHAR 316f
ENCODING 12655
SWIDTH	-8531 0
DWIDTH	18 0
BBX 18	19 0 -1
BITMAP
000000
08fe00
100200
200200
447e00
280200
100200
22ff80
422000
7e5100
0a9a00
082c00
4a4c00
4a9a00
4a2a00
484900
089880
000000
000000
ENDCHAR
STARTCHAR 3170
ENCODING 12656
SWIDTH	-8531 0
DWIDTH	18 0
BBX 18	19 0 -1
BITMAP
000000
0a0800
0a0f80
3f9100
2aa200
3f8400
2abf80
3fa480
002480
7fa480
003f80
3fa000
20a000
3fa000
112080
0a2080
3f9f80
000000
000000
ENDCHAR
STARTCHAR 3171
ENCODING 12657
SWIDTH	-8531 0
DWIDTH	18 0
BBX 18	19 0 -1
BITMAP
000000
040800
040800
7fff80
040800
140800
100000
1f7f00
214100
214100
524100
0a4100
044f00
084000
104080
204080
403f80
000000
000000
ENDCHAR
STARTCHAR 3172
ENCODING 12658
SWIDTH	-8531 0
DWIDTH	18 0
BBX 18	19 0 -1
BITMAP
000000
040800
7fff80
040800
000000
3fff00
208100
27f900
208100
2ffd00
221100
23f500
22a900
249100
288900
200100
3fff00
000000
000000
ENDCHAR
STARTCHAR 3173
ENCODING 12659
SWIDTH	-8531 0
DWIDTH	18 0
BBX 18	19 0 -1
BITMAP
000000
001000
201000
11ff00
081000
03ff80
000000
79ff00
090100
09ff00
082000
087100
08aa00
0b2600
142180
220000
41ff80
000000
000000
ENDCHAR
STARTCHAR 3174
ENCODING 12660
SWIDTH	-8531 0
DWIDTH	18 0
BBX 18	19 0 -1
BITMAP
000000
082200
142200
222200
412200
004100
3e4100
088080
080000
7f0000
087f00
084100
494100
2a4100
084100
084100
7f7f00
000000
000000
ENDCHAR
STARTCHAR 3175
ENCODING 12661
SWIDTH	-8531 0
DWIDTH	18 0
BBX 18	19 0 -1
BITMAP
000000
0fbe00
112200
222600
542080
089f80
110000
2ffe00
480200
0ffe00
080200
0fff80
080000
0fff80
000080
124880
224980
000000
000000
ENDCHAR
STARTCHAR 3176
ENCODING 12662
SWIDTH	-8531 0
DWIDTH	18 0
BBX 18	19 0 -1
BITMAP
000000
104000
108000
10ff00
110000
7a0000
10fe00
108200
108200
10fe00
140000
15ff00
192900
112900
212900
412900
07ff80
000000
000000
ENDCHAR
STARTCHAR 3177
ENCODING 12663
SWIDTH	-8531 0
DWIDTH	18 0
BBX 18	19 0 -1
BITMAP
000000
080800
081400
082200
7f4100
108080
100000
102000
1f1800
110400
110200
110000
112000
211800
210400
410200
0e0100
000000
000000
ENDCHAR
STARTCHAR 3178
ENCODING 12664
SWIDTH	-8531 0
DWIDTH	18 0
BBX 18	19 0 -1
BITMAP
000000
000000
23ff00
104000
084000
004000
47ff80
208000
108000
008000
00ff00
080100
080100
100100
100100
200200
403c00
000000
000000
ENDCHAR
STARTCHAR 3179
ENCODING 12665
SWIDTH	-8531 0
DWIDTH	18 0
BBX 18	19 0 -1
BITMAP
000000
080000
28ff80
288880
288880
3eff80
288880
488880
08ff80
3e1000
081000
0aff80
0c2080
082080
104080
608080
010700
000000
000000
ENDCHAR
STARTCHAR 317a
ENCODING 12666
SWIDTH	-8531 0
DWIDTH	18 0
BBX 18	19 0 -1
BITMAP
000000
000000
3e1f00
221100
221100
221100
221100
221100
221100
23f100
200100
200100
200100
200100
200100
3fff00
000000
000000
000000
ENDCHAR
STARTCHAR 317b
ENCODING 12667
SWIDTH	-8531 0
DWIDTH	18 0
BBX 18	19 0 -1
BITMAP
000000
008000
008000
008000
1ffe00
108200
108200
108200
108200
7fff80
014000
014000
022000
041000
080800
100600
600180
000000
000000
ENDCHAR
STARTCHAR 317c
ENCODING 12668
SWIDTH	-8531 0
DWIDTH	18 0
BBX 18	19 0 -1
BITMAP
000000
008000
010000
1ffe00
100200
149200
12a200
17fa00
108200
12a200
149200
108200
7fff80
014000
023000
0c0c00
700380
000000
000000
ENDCHAR
STARTCHAR 317d
ENCODING 12669
SWIDTH	-8531 0
DWIDTH	18 0
BBX 18	19 0 -1
BITMAP
000000
042000
081000
100800
220000
45ff80
081000
181000
281000
481000
09ff00
081000
081000
081000
081000
081000
0bff80
000000
000000
ENDCHAR
STARTCHAR 317e
ENCODING 12670
SWIDTH	-8531 0
DWIDTH	18 0
BBX 18	19 0 -1
BITMAP
000000
004000
004000
1fff80
100000
106000
101000
100800
104000
104200
124100
124100
124080
224080
244280
444200
083e00
000000
000000
ENDCHAR
STARTCHAR 3221
ENCODING 12833
SWIDTH	-8531 0
DWIDTH	18 0
BBX 18	19 0 -1
BITMAP
000000
080000
08ff80
088880
088880
7e8880
088880
08ff80
0a8880
0c8880
088880
188880
68ff80
080800
080800
080800
380800
000000
000000
ENDCHAR
STARTCHAR 3222
ENCODING 12834
SWIDTH	-8531 0
DWIDTH	18 0
BBX 18	19 0 -1
BITMAP
000000
000000
01ff00
7c1000
441000
441000
441000
441000
7c1000
45ff00
441000
441000
441000
441000
7c1000
001000
03ff80
000000
000000
ENDCHAR
STARTCHAR 3223
ENCODING 12835
SWIDTH	-8531 0
DWIDTH	18 0
BBX 18	19 0 -1
BITMAP
000000
084400
084400
09ff00
084400
7e4400
09ff80
181000
1dff00
2b1100
29ff00
491100
091100
09ff00
084200
088100
090080
000000
000000
ENDCHAR
STARTCHAR 3224
ENCODING 12836
SWIDTH	-8531 0
DWIDTH	18 0
BBX 18	19 0 -1
BITMAP
000000
002000
7f2000
403f80
402880
414880
414900
520800
4a0800
440800
461400
491400
501400
402200
402200
7e4100
008080
000000
000000
ENDCHAR
STARTCHAR 3225
ENCODING 12837
SWIDTH	-8531 0
DWIDTH	18 0
BBX 18	19 0 -1
BITMAP
000000
003e00
7f2200
402200
402200
412280
414380
520000
4a0000
447f00
4a0100
512200
401200
400c00
401400
7f2200
004180
000000
000000
ENDCHAR
STARTCHAR 3226
ENCODING 12838
SWIDTH	-8531 0
DWIDTH	18 0
BBX 18	19 0 -1
BITMAP
000000
000000
3fff00
008000
008000
008000
008000
008000
1ffe00
008000
008000
008000
008000
008000
008000
7fff80
000000
000000
000000
ENDCHAR
STARTCHAR 3227
ENCODING 12839
SWIDTH	-8531 0
DWIDTH	18 0
BBX 18	19 0 -1
BITMAP
000000
040800
088400
108200
611180
020800
0ffc00
000000
7fbf80
008080
108880
088480
008080
088480
108880
209080
038380
000000
000000
ENDCHAR
STARTCHAR 3228
ENCODING 12840
SWIDTH	-8531 0
DWIDTH	18 0
BBX 18	19 0 -1
BITMAP
000000
101000
102000
11ff00
7d0500
057900
051100
095500
11ff00
351100
593900
155500
111100
13ff80
102800
10c600
130180
000000
000000
ENDCHAR
STARTCHAR 3229
ENCODING 12841
SWIDTH	-8531 0
DWIDTH	18 0
BBX 18	19 0 -1
BITMAP
000000
210100
108200
084400
7fff80
404080
408080
1ffe00
100200
1ffe00
100200
1fff80
100000
1fff80
000080
249080
448b00
000000
000000
ENDCHAR
STARTCHAR 322a
ENCODING 12842
SWIDTH	-8531 0
DWIDTH	18 0
BBX 18	19 0 -1
BITMAP
000000
000400
7f0800
401f00
4f1100
491f00
491100
4f1100
401f00
5dd000
555f80
555000
555f80
5dc080
405480
7f5480
009180
000000
000000
ENDCHAR
STARTCHAR 322b
ENCODING 12843
SWIDTH	-8531 0
DWIDTH	18 0
BBX 18	19 0 -1
BITMAP
000000
040800
040800
3fff00
040800
040800
7fff80
008000
1ffe00
108200
108200
1ffe00
108200
108200
1ffe00
040c00
380300
000000
000000
ENDCHAR
STARTCHAR 322c
ENCODING 12844
SWIDTH	-8531 0
DWIDTH	18 0
BBX 18	19 0 -1
BITMAP
000000
000000
7fff00
400100
440900
421100
422100
5ffd00
408100
408100
488900
488900
488900
4ff900
400100
400100
400f00
000000
000000
ENDCHAR
STARTCHAR 322d
ENCODING 12845
SWIDTH	-8531 0
DWIDTH	18 0
BBX 18	19 0 -1
BITMAP
000000
001000
201000
101000
081000
03ff80
421080
221080
121080
021080
021080
0bff80
081000
101000
101000
201000
401000
000000
000000
ENDCHAR
STARTCHAR 322e
ENCODING 12846
SWIDTH	-8531 0
DWIDTH	18 0
BBX 18	19 0 -1
BITMAP
000000
040800
040800
7fff80
040800
220000
140800
084880
144900
244a00
428800
060800
0a1400
121200
222200
424100
0c8080
000000
000000
ENDCHAR
STARTCHAR 322f
ENCODING 12847
SWIDTH	-8531 0
DWIDTH	18 0
BBX 18	19 0 -1
BITMAP
000000
082000
0bff00
108400
108400
37ff80
500000
13ff00
120100
13ff00
120100
13ff00
100000
125100
124880
124200
143e00
000000
000000
ENDCHAR
STARTCHAR 3230
ENCODING 12848
SWIDTH	-8531 0
DWIDTH	18 0
BBX 18	19 0 -1
BITMAP
000000
000000
1fff80
100080
100080
1fff80
100000
17ff80
108400
110200
13ff00
102080
102000
23fe00
202000
402000
0fff80
000000
000000
ENDCHAR
STARTCHAR 3231
ENCODING 12849
SWIDTH	-8531 0
DWIDTH	18 0
BBX 18	19 0 -1
BITMAP
000000
101000
13ff80
108200
544400
57ff80
540000
55ff00
110100
11ff00
110100
11ff00
101000
124900
124080
144100
103f00
000000
000000
ENDCHAR
STARTCHAR 3232
ENCODING 12850
SWIDTH	-8531 0
DWIDTH	18 0
BBX 18	19 0 -1
BITMAP
000000
003e00
3e0000
22ff80
222200
222200
3eff80
220000
227f00
224100
3e7f00
224100
227f00
221100
22a880
22a280
473e00
000000
000000
ENDCHAR
STARTCHAR 3233
ENCODING 12851
SWIDTH	-8531 0
DWIDTH	18 0
BBX 18	19 0 -1
BITMAP
000000
087f00
080200
081400
080800
7e0800
08ff80
188880
1c8880
2aff80
288880
488880
08ff80
088880
088880
088880
088380
000000
000000
ENDCHAR
STARTCHAR 3234
ENCODING 12852
SWIDTH	-8531 0
DWIDTH	18 0
BBX 18	19 0 -1
BITMAP
000000
040800
240800
240800
240800
3f0800
240800
44ff80
440800
050800
060800
1c0800
640800
040800
040800
040800
05ff80
000000
000000
ENDCHAR
STARTCHAR 3235
ENCODING 12853
SWIDTH	-8531 0
DWIDTH	18 0
BBX 18	19 0 -1
BITMAP
000000
000000
1ffe00
000400
000800
001000
002000
004000
018000
020000
040000
080000
100000
200100
200100
200100
1fff00
000000
000000
ENDCHAR
STARTCHAR 3236
ENCODING 12854
SWIDTH	-8531 0
DWIDTH	18 0
BBX 18	19 0 -1
BITMAP
000000
041000
041000
09ff80
084400
109200
291100
4bff80
091100
091100
09ff00
091100
091100
09ff00
081000
081080
080f80
000000
000000
ENDCHAR
STARTCHAR 3237
ENCODING 12855
SWIDTH	-8531 0
DWIDTH	18 0
BBX 18	19 0 -1
BITMAP
000000
100000
101f80
1f9080
241080
241080
441080
041080
7fd080
041080
041080
279080
241080
241080
249380
271000
781000
000000
000000
ENDCHAR
STARTCHAR 3238
ENCODING 12856
SWIDTH	-8531 0
DWIDTH	18 0
BBX 18	19 0 -1
BITMAP
000000
3ffe00
200200
208200
208200
2ffa00
214200
222200
241200
200200
3ffe00
008000
124200
122100
220480
220480
41fc00
000000
000000
ENDCHAR
STARTCHAR 3239
ENCODING 12857
SWIDTH	-8531 0
DWIDTH	18 0
BBX 18	19 0 -1
BITMAP
000000
000000
21fe00
110200
090200
01fe00
410200
210200
11fe00
000000
000000
0bff00
0a4900
124900
124900
224900
47ff80
000000
000000
ENDCHAR
STARTCHAR 323a
ENCODING 12858
SWIDTH	-8531 0
DWIDTH	18 0
BBX 18	19 0 -1
BITMAP
000000
040600
19f800
680100
092200
089400
7e0000
08ff00
180100
1cff00
2a0100
28ff00
480000
082900
092480
092100
0a3f00
000000
000000
ENDCHAR
STARTCHAR 323b
ENCODING 12859
SWIDTH	-8531 0
DWIDTH	18 0
BBX 18	19 0 -1
BITMAP
000000
008000
008000
3fff00
040800
020800
021000
7fff80
000000
000000
0ffc00
080400
080400
0ffc00
080400
080400
0ffc00
000000
000000
ENDCHAR
STARTCHAR 323c
ENCODING 12860
SWIDTH	-8531 0
DWIDTH	18 0
BBX 18	19 0 -1
BITMAP
000000
000000
7fff80
008000
008000
008000
00c000
00a000
009000
008800
008400
008000
008000
008000
008000
008000
008000
000000
000000
ENDCHAR
STARTCHAR 323d
ENCODING 12861
SWIDTH	-8531 0
DWIDTH	18 0
BBX 18	19 0 -1
BITMAP
000000
044000
044000
084000
084000
104300
284c00
487000
084000
084000
084000
084000
084000
084000
084080
084080
083f80
000000
000000
ENDCHAR
STARTCHAR 323e
ENCODING 12862
SWIDTH	-8531 0
DWIDTH	18 0
BBX 18	19 0 -1
BITMAP
000000
040000
04ff80
088000
088000
108000
28ff00
488100
088100
08c100
08a200
08a200
089400
090800
091400
0a2200
08c180
000000
000000
ENDCHAR
STARTCHAR 323f
ENCODING 12863
SWIDTH	-8531 0
DWIDTH	18 0
BBX 18	19 0 -1
BITMAP
000000
040000
040000
09ff80
080100
100100
280100
49f900
090900
090900
090900
090900
09f900
080100
080100
080100
080f00
000000
000000
ENDCHAR
STARTCHAR 3240
ENCODING 12864
SWIDTH	-8531 0
DWIDTH	18 0
BBX 18	19 0 -1
BITMAP
000000
090000
090000
110f80
110880
37e880
512880
112880
112880
112880
112880
112880
112880
122880
122880
142880
10cf80
000000
000000
ENDCHAR
STARTCHAR 3241
ENCODING 12865
SWIDTH	-8531 0
DWIDTH	18 0
BBX 18	19 0 -1
BITMAP
000000
040000
05ff80
082400
082400
102400
29ff80
492480
092480
092480
092480
092480
092480
092480
092480
092480
09ff80
000000
000000
ENDCHAR
STARTCHAR 3242
ENCODING 12866
SWIDTH	-8531 0
DWIDTH	18 0
BBX 18	19 0 -1
BITMAP
000000
041000
041000
081000
09ff00
101000
281000
481000
0bff80
080000
081000
081000
09ff00
081000
081000
081000
0bff80
000000
000000
ENDCHAR
STARTCHAR 3243
ENCODING 12867
SWIDTH	-8531 0
DWIDTH	18 0
BBX 18	19 0 -1
BITMAP
000000
080000
080000
081f80
7f9080
089080
089080
089080
089080
089080
089080
089080
089080
109080
109080
209080
471f80
000000
000000
ENDCHAR
STARTCHAR 3244
ENCODING 12868
SWIDTH	-8531 0
DWIDTH	18 0
BBX 18	19 0 -1
BITMAP
000000
000000
7fff80
000200
000200
000200
0fc200
084200
084200
084200
084200
084200
0fc200
000200
000200
000200
001e00
000000
000000
ENDCHAR
STARTCHAR 3245
ENCODING 12869
SWIDTH	-8531 0
DWIDTH	18 0
BBX 18	19 0 -1
BITMAP
000000
008000
7fff80
008000
1ffe00
000000
1ffe00
100200
1ffe00
040800
7fff80
080000
083f80
7fa080
08a080
10a080
233f80
000000
000000
ENDCHAR
STARTCHAR 3246
ENCODING 12870
SWIDTH	-8531 0
DWIDTH	18 0
BBX 18	19 0 -1
BITMAP
000000
000000
7fff80
010000
1ffe00
100200
1ffe00
100200
1ffe00
100200
1ffe00
020000
0ffe00
340c00
023000
01c000
7e3f00
000000
000000
ENDCHAR
STARTCHAR 3247
ENCODING 12871
SWIDTH	-8531 0
DWIDTH	18 0
BBX 18	19 0 -1
BITMAP
000000
100800
100800
10ff80
108080
7e8080
247f00
242000
245400
249c80
242d00
244a00
189a00
082a00
144900
228880
403000
000000
000000
ENDCHAR
STARTCHAR 3248
ENCODING 12872
SWIDTH	-8531 0
DWIDTH	18 0
BBX 18	19 0 -1
BITMAP
000000
008000
008000
7fff80
400080
400080
1ffe00
020000
0d8100
314200
026c00
0cd000
315000
024800
184400
604200
038100
000000
000000
ENDCHAR
STARTCHAR 3249
ENCODING 12873
SWIDTH	-8531 0
DWIDTH	18 0
BBX 18	19 0 -1
BITMAP
000000
008000
008000
7fff80
400080
4ffc80
010000
0ffc00
080400
0ffc00
080400
7fff80
080400
17f200
211100
421080
046000
000000
000000
ENDCHAR
STARTCHAR 324a
ENCODING 12874
SWIDTH	-8531 0
DWIDTH	18 0
BBX 18	19 0 -1
BITMAP
000000
020200
0c4200
782200
081200
080200
7f0200
084200
182200
1c1200
2a0200
280200
49ff80
080200
080200
080200
080200
000000
000000
ENDCHAR
STARTCHAR 324b
ENCODING 12875
SWIDTH	-8531 0
DWIDTH	18 0
BBX 18	19 0 -1
BITMAP
000000
01f780
7d1080
451080
451080
45f080
450780
450000
7d0f80
45e080
450880
450880
450500
45e500
450200
3d0500
010880
000000
000000
ENDCHAR
STARTCHAR 324c
ENCODING 12876
SWIDTH	-8531 0
DWIDTH	18 0
BBX 18	19 0 -1
BITMAP
000000
000000
3ffe00
208200
208200
3ffe00
208200
208200
3ffe00
008000
008000
7fff80
02a000
049000
088800
108600
608180
000000
000000
ENDCHAR
STARTCHAR 324d
ENCODING 12877
SWIDTH	-8531 0
DWIDTH	18 0
BBX 18	19 0 -1
BITMAP
000000
080000
083f80
7f2080
092080
112080
112080
212080
463f80
008000
008000
7fff80
02a000
049000
088800
108600
608180
000000
000000
ENDCHAR
STARTCHAR 324e
ENCODING 12878
SWIDTH	-8531 0
DWIDTH	18 0
BBX 18	19 0 -1
BITMAP
000000
001000
7fd000
009000
3c9f80
249480
249480
3da500
000400
7fc400
008400
3c8a00
248a00
248a00
3c9100
009100
03a080
000000
000000
ENDCHAR
STARTCHAR 324f
ENCODING 12879
SWIDTH	-8531 0
DWIDTH	18 0
BBX 18	19 0 -1
BITMAP
000000
000000
23ff80
100200
080200
000200
41f200
211200
111200
011200
011200
091200
09f200
100200
100200
200200
401e00
000000
000000
ENDCHAR
STARTCHAR 3250
ENCODING 12880
SWIDTH	-8531 0
DWIDTH	18 0
BBX 18	19 0 -1
BITMAP
000000
008000
008000
008000
108080
108100
108200
108c00
208000
014000
012000
022000
021000
040800
080400
100200
600180
000000
000000
ENDCHAR
STARTCHAR 3251
ENCODING 12881
SWIDTH	-8531 0
DWIDTH	18 0
BBX 18	19 0 -1
BITMAP
000000
000000
7eff80
080100
080100
087900
084900
084900
3e4900
084900
084900
094900
0a7900
0c0100
180100
600100
000f00
000000
000000
ENDCHAR
STARTCHAR 3252
ENCODING 12882
SWIDTH	-8531 0
DWIDTH	18 0
BBX 18	19 0 -1
BITMAP
000000
107f00
104100
104100
7e4f00
024900
044900
05ff80
090080
190080
357e80
534280
114280
114280
117e80
110080
110380
000000
000000
ENDCHAR
STARTCHAR 3253
ENCODING 12883
SWIDTH	-8531 0
DWIDTH	18 0
BBX 18	19 0 -1
BITMAP
000000
000c00
007000
1f8000
008000
008000
008000
7fff80
01c000
02a000
02a000
049000
088800
108400
208200
408180
008000
000000
000000
ENDCHAR
STARTCHAR 3254
ENCODING 12884
SWIDTH	-8531 0
DWIDTH	18 0
BBX 18	19 0 -1
BITMAP
000000
041000
181000
69ff80
090080
090080
7eff00
082000
185000
1c9c80
2a2d00
284a00
499a00
082900
084900
098880
083000
000000
000000
ENDCHAR
STARTCHAR 3255
ENCODING 12885
SWIDTH	-8531 0
DWIDTH	18 0
BBX 18	19 0 -1
BITMAP
000000
101000
101000
3f3f80
444400
040400
3fff00
200100
208100
27f900
208100
27f900
240900
240900
27f900
200100
3fff00
000000
000000
ENDCHAR
STARTCHAR 3256
ENCODING 12886
SWIDTH	-8531 0
DWIDTH	18 0
BBX 18	19 0 -1
BITMAP
000000
040800
040800
7fff80
040800
000000
044000
044000
084300
084c00
107000
284000
484000
084000
084080
084080
083f80
000000
000000
ENDCHAR
STARTCHAR 3257
ENCODING 12887
SWIDTH	-8531 0
DWIDTH	18 0
BBX 18	19 0 -1
BITMAP
000000
040800
040800
7fff80
040800
040800
000000
7fff80
000400
000400
0fc400
084400
084400
084400
0fc400
000400
003c00
000000
000000
ENDCHAR
STARTCHAR 3258
ENCODING 12888
SWIDTH	-8531 0
DWIDTH	18 0
BBX 18	19 0 -1
BITMAP
000000
020800
020800
7fff80
020800
0a0800
080000
083f00
7f2100
092100
092100
092100
092100
112100
112100
212100
463f00
000000
000000
ENDCHAR
STARTCHAR 3259
ENCODING 12889
SWIDTH	-8531 0
DWIDTH	18 0
BBX 18	19 0 -1
BITMAP
000000
040800
040800
7fff80
040800
080000
0bff80
100200
300200
53f200
121200
121200
121200
13f200
100200
100200
100e00
000000
000000
ENDCHAR
STARTCHAR 325a
ENCODING 12890
SWIDTH	-8531 0
DWIDTH	18 0
BBX 18	19 0 -1
BITMAP
000000
040800
7fff80
040800
000000
3fff00
088400
088400
7fff80
088400
088400
3fff00
008000
008000
3fff00
008000
008000
000000
000000
ENDCHAR
STARTCHAR 325b
ENCODING 12891
SWIDTH	-8531 0
DWIDTH	18 0
BBX 18	19 0 -1
BITMAP
000000
040800
040800
7fff80
040800
000000
1ffe00
108200
1ffe00
108200
1ffe00
008000
7fff80
02a000
049000
188c00
608300
000000
000000
ENDCHAR
STARTCHAR 325c
ENCODING 12892
SWIDTH	-8531 0
DWIDTH	18 0
BBX 18	19 0 -1
BITMAP
000000
100000
11ef00
112100
7d2100
552100
552f00
55e000
550000
551f00
7dc100
111100
110a00
15c400
150a00
7d1100
052080
000000
000000
ENDCHAR
STARTCHAR 325d
ENCODING 12893
SWIDTH	-8531 0
DWIDTH	18 0
BBX 18	19 0 -1
BITMAP
000000
000000
3e7f00
004900
004900
7f7f00
004900
3e4900
007f00
3e0800
000800
3eff80
221c00
222a00
222a00
224900
3e8880
000000
000000
ENDCHAR
STARTCHAR 325e
ENCODING 12894
SWIDTH	-8531 0
DWIDTH	18 0
BBX 18	19 0 -1
BITMAP
000000
004200
01ff80
7c4200
440000
45ff80
441000
449200
47d780
449200
441000
45ff80
441000
441000
7dff00
001000
001000
000000
000000
ENDCHAR
STARTCHAR 325f
ENCODING 12895
SWIDTH	-8531 0
DWIDTH	18 0
BBX 18	19 0 -1
BITMAP
000000
044000
084300
187c00
284080
487f80
000000
1ffe00
100200
1ffe00
100200
1ffe00
100200
1ffe00
040800
080400
100200
000000
000000
ENDCHAR
STARTCHAR 3260
ENCODING 12896
SWIDTH	-8531 0
DWIDTH	18 0
BBX 18	19 0 -1
BITMAP
000000
008000
208000
108780
0bf480
009480
009480
009480
789480
089480
091480
091480
0a1480
08e780
140000
220000
41ff80
000000
000000
ENDCHAR
STARTCHAR 3261
ENCODING 12897
SWIDTH	-8531 0
DWIDTH	18 0
BBX 18	19 0 -1
BITMAP
000000
00fe00
208200
108200
089e00
009200
009200
01ff80
790080
097e80
094280
094280
097e80
090080
150380
220000
41ff80
000000
000000
ENDCHAR
STARTCHAR 3262
ENCODING 12898
SWIDTH	-8531 0
DWIDTH	18 0
BBX 18	19 0 -1
BITMAP
000000
3fff00
008000
7fff80
408080
5c9c80
408080
1c9c00
000000
3f9f00
208100
3f9f00
200000
3f3f00
201200
3f0c00
203380
000000
000000
ENDCHAR
STARTCHAR 3263
ENCODING 12899
SWIDTH	-8531 0
DWIDTH	18 0
BBX 18	19 0 -1
BITMAP
000000
080800
080800
08ff80
084100
7f4100
494100
494100
492200
492200
7f2200
081400
081400
0a0800
0a1400
7e2200
02c180
000000
000000
ENDCHAR
STARTCHAR 3264
ENCODING 12900
SWIDTH	-8531 0
DWIDTH	18 0
BBX 18	19 0 -1
BITMAP
000000
084800
088a00
118900
128880
308800
508800
17ff80
108800
108800
10a880
10c900
178600
108480
108a80
109180
13a080
000000
000000
ENDCHAR
STARTCHAR 3265
ENCODING 12901
SWIDTH	-8531 0
DWIDTH	18 0
BBX 18	19 0 -1
BITMAP
000000
001000
102500
10c480
134400
104400
544400
55ff80
544400
545400
546480
544500
54c600
554480
7c4a80
005180
01c080
000000
000000
ENDCHAR
STARTCHAR 3266
ENCODING 12902
SWIDTH	-8531 0
DWIDTH	18 0
BBX 18	19 0 -1
BITMAP
000000
00d000
3f1200
021100
021080
021000
7fff80
021000
025100
029200
031200
0e1400
720800
020880
021480
026280
1c0180
000000
000000
ENDCHAR
STARTCHAR 3267
ENCODING 12903
SWIDTH	-8531 0
DWIDTH	18 0
BBX 18	19 0 -1
BITMAP
000000
000000
1fff00
000800
040800
040800
080800
080800
1fff80
002800
004800
008800
010800
020800
0c0800
700800
003800
000000
000000
ENDCHAR
STARTCHAR 3268
ENCODING 12904
SWIDTH	-8531 0
DWIDTH	18 0
BBX 18	19 0 -1
BITMAP
000000
000000
7fff00
008000
008000
0ff800
488900
488900
488900
4ff900
488900
488900
488900
4ff900
400100
400100
7fff00
000000
000000
ENDCHAR
STARTCHAR 3269
ENCODING 12905
SWIDTH	-8531 0
DWIDTH	18 0
BBX 18	19 0 -1
BITMAP
000000
001000
7f9000
441000
441000
441000
7f9000
409000
409000
409000
7fa800
442800
444400
444400
7f8200
010100
020080
000000
000000
ENDCHAR
STARTCHAR 326a
ENCODING 12906
SWIDTH	-8531 0
DWIDTH	18 0
BBX 18	19 0 -1
BITMAP
000000
040800
040800
7fff80
040800
000000
3fff00
080800
080800
080800
7fff80
008800
010800
020800
040800
180800
603800
000000
000000
ENDCHAR
STARTCHAR 326b
ENCODING 12907
SWIDTH	-8531 0
DWIDTH	18 0
BBX 18	19 0 -1
BITMAP
000000
101400
102400
11c500
104480
7c4400
544400
55ff80
544400
545400
7c6480
104480
10c500
154200
144280
7c4580
04c880
000000
000000
ENDCHAR
STARTCHAR 326c
ENCODING 12908
SWIDTH	-8531 0
DWIDTH	18 0
BBX 18	19 0 -1
BITMAP
000000
083f00
7fa100
10a100
10a100
23bf00
400000
1ffe00
100200
1ffe00
100200
1ffe00
100200
1ffe00
040800
080400
300200
000000
000000
ENDCHAR
STARTCHAR 326d
ENCODING 12909
SWIDTH	-8531 0
DWIDTH	18 0
BBX 18	19 0 -1
BITMAP
000000
002200
7f2200
124400
12ff80
124400
124400
124400
127f80
7f4400
0a4400
0a4400
127f80
124400
224400
424400
0e7f80
000000
000000
ENDCHAR
STARTCHAR 326e
ENCODING 12910
SWIDTH	-8531 0
DWIDTH	18 0
BBX 18	19 0 -1
BITMAP
000000
081400
142500
226480
48a400
082400
3e2400
22ff80
3e2400
222400
223400
3e2480
206500
28a200
242200
2a2500
716880
000000
000000
ENDCHAR
STARTCHAR 326f
ENCODING 12911
SWIDTH	-8531 0
DWIDTH	18 0
BBX 18	19 0 -1
BITMAP
000000
080000
7f3f80
112080
112080
273f80
400000
1fff00
104000
1ffe00
104000
1ffe00
104000
1fff80
000080
249080
449700
000000
000000
ENDCHAR
STARTCHAR 3270
ENCODING 12912
SWIDTH	-8531 0
DWIDTH	18 0
BBX 18	19 0 -1
BITMAP
000000
008000
00c000
012000
021000
040800
080400
120a00
620980
020800
020800
020800
020800
040800
040800
080800
100800
000000
000000
ENDCHAR
STARTCHAR 3271
ENCODING 12913
SWIDTH	-8531 0
DWIDTH	18 0
BBX 18	19 0 -1
BITMAP
000000
00c000
012000
021000
040800
080400
17fa00
200100
400080
3fff00
020000
040800
040400
080400
100200
3fff00
000100
000000
000000
ENDCHAR
STARTCHAR 3272
ENCODING 12914
SWIDTH	-8531 0
DWIDTH	18 0
BBX 18	19 0 -1
BITMAP
000000
080000
1fbf80
210880
420880
3f8880
249080
24a300
3f8400
249400
249f00
3fa400
208400
20bf80
208400
208400
438400
000000
000000
ENDCHAR
STARTCHAR 3273
ENCODING 12915
SWIDTH	-8531 0
DWIDTH	18 0
BBX 18	19 0 -1
BITMAP
000000
000000
3fff00
200100
200100
23f100
221100
221100
221100
221100
221100
23f100
200100
200100
200100
3fff00
000000
000000
000000
ENDCHAR
STARTCHAR 3274
ENCODING 12916
SWIDTH	-8531 0
DWIDTH	18 0
BBX 18	19 0 -1
BITMAP
000000
102000
104000
11ff00
111100
7d1100
11ff00
111100
111100
11ff00
102000
145200
185200
109480
211780
421000
040f80
000000
000000
ENDCHAR
STARTCHAR 3275
ENCODING 12917
SWIDTH	-8531 0
DWIDTH	18 0
BBX 18	19 0 -1
BITMAP
000000
001000
101000
11ff80
101000
11ff80
7d2480
112480
11ff80
101000
11ff80
102400
144480
18c500
134200
607200
01c180
000000
000000
ENDCHAR
STARTCHAR 3276
ENCODING 12918
SWIDTH	-8531 0
DWIDTH	18 0
BBX 18	19 0 -1
BITMAP
000000
000000
01ff00
7d0100
050100
097d00
114500
214500
7d4500
054500
054500
257d00
150100
090100
15ff00
220000
41ff80
000000
000000
ENDCHAR
STARTCHAR 3277
ENCODING 12919
SWIDTH	-8531 0
DWIDTH	18 0
BBX 18	19 0 -1
BITMAP
000000
101000
101000
101000
11ff00
541100
541100
541100
501100
13ff80
101000
102800
102800
104400
108400
110200
160180
000000
000000
ENDCHAR
STARTCHAR 3278
ENCODING 12920
SWIDTH	-8531 0
DWIDTH	18 0
BBX 18	19 0 -1
BITMAP
000000
100000
11ff00
100100
104200
542400
541800
542800
50c600
131180
101000
101000
11ff00
101000
101000
101000
13ff80
000000
000000
ENDCHAR
STARTCHAR 3279
ENCODING 12921
SWIDTH	-8531 0
DWIDTH	18 0
BBX 18	19 0 -1
BITMAP
000000
108000
108000
10ff80
110000
540000
55ff00
551100
511100
111100
17ff80
111100
111100
111100
11ff80
100100
100700
000000
000000
ENDCHAR
STARTCHAR 327a
ENCODING 12922
SWIDTH	-8531 0
DWIDTH	18 0
BBX 18	19 0 -1
BITMAP
000000
110000
110000
17ff80
110000
550800
550800
552880
512900
114a00
110800
110800
111400
121400
122200
144100
108080
000000
000000
ENDCHAR
STARTCHAR 327b
ENCODING 12923
SWIDTH	-8531 0
DWIDTH	18 0
BBX 18	19 0 -1
BITMAP
000000
101000
101000
13ff80
101000
55ff80
552480
552480
51ff80
101000
13ff80
104800
108880
118500
128400
10b200
13c180
000000
000000
ENDCHAR
STARTCHAR 327c
ENCODING 12924
SWIDTH	-8531 0
DWIDTH	18 0
BBX 18	19 0 -1
BITMAP
000000
001200
001100
001000
7fff80
001000
001000
121000
121100
121100
7fc900
120a00
120a00
220480
220a80
423180
00c080
000000
000000
ENDCHAR
STARTCHAR 327d
ENCODING 12925
SWIDTH	-8531 0
DWIDTH	18 0
BBX 18	19 0 -1
BITMAP
000000
080000
08ff00
088100
088100
7e8100
088100
08ff00
0a0000
0c0000
09ff80
182080
682080
084080
084080
088080
390700
000000
000000
ENDCHAR
STARTCHAR 327e
ENCODING 12926
SWIDTH	-8531 0
DWIDTH	18 0
BBX 18	19 0 -1
BITMAP
000000
002000
7e2000
023f80
024200
024200
028200
022200
7e2200
402200
402200
401400
401400
420800
421400
3e2200
00c180
000000
000000
ENDCHAR
STARTCHAR 3321
ENCODING 13089
SWIDTH	-8531 0
DWIDTH	18 0
BBX 18	19 0 -1
BITMAP
000000
080200
101200
7f0a00
490200
490200
7f2200
491200
490200
7f0200
149f80
150200
154200
15c200
244280
240080
43ff80
000000
000000
ENDCHAR
STARTCHAR 3322
ENCODING 13090
SWIDTH	-8531 0
DWIDTH	18 0
BBX 18	19 0 -1
BITMAP
000000
008000
008000
7cff80
450000
440000
44ff00
448100
7c9100
448900
45ff80
448100
449100
448900
7cff80
000100
000300
000000
000000
ENDCHAR
STARTCHAR 3323
ENCODING 13091
SWIDTH	-8531 0
DWIDTH	18 0
BBX 18	19 0 -1
BITMAP
000000
080500
080480
080400
09ff80
7e0400
080400
08a480
1ca480
1bf500
28a500
292600
492400
0a2400
080a80
081280
086180
000000
000000
ENDCHAR
STARTCHAR 3324
ENCODING 13092
SWIDTH	-8531 0
DWIDTH	18 0
BBX 18	19 0 -1
BITMAP
000000
008000
208000
11ff80
090000
020000
45ff00
211100
111100
011100
0bff80
091100
091100
111100
11ff80
200100
400700
000000
000000
ENDCHAR
STARTCHAR 3325
ENCODING 13093
SWIDTH	-8531 0
DWIDTH	18 0
BBX 18	19 0 -1
BITMAP
000000
000000
1fff80
100000
102000
102000
112100
112200
112400
122000
105000
105000
108800
208800
210400
420200
0c0180
000000
000000
ENDCHAR
STARTCHAR 3326
ENCODING 13094
SWIDTH	-8531 0
DWIDTH	18 0
BBX 18	19 0 -1
BITMAP
000000
1ffe00
108200
108200
1ffe00
108200
108200
108200
1ffe00
021000
040800
0a1400
121200
221100
421080
041000
081000
000000
000000
ENDCHAR
STARTCHAR 3327
ENCODING 13095
SWIDTH	-8531 0
DWIDTH	18 0
BBX 18	19 0 -1
BITMAP
000000
102000
102300
1f3c00
102000
10a080
132080
7c1f80
008000
010000
1ffe00
100200
100200
1ffe00
100200
100200
1ffe00
000000
000000
ENDCHAR
STARTCHAR 3328
ENCODING 13096
SWIDTH	-8531 0
DWIDTH	18 0
BBX 18	19 0 -1
BITMAP
000000
081800
102400
204200
448100
290080
107e00
220000
420000
7eff80
0a1000
081000
4a2200
4a2200
4a4100
48ff00
080100
000000
000000
ENDCHAR
STARTCHAR 3329
ENCODING 13097
SWIDTH	-8531 0
DWIDTH	18 0
BBX 18	19 0 -1
BITMAP
000000
040800
040800
7fff80
040800
048800
00c000
012000
021000
040800
1a1600
621180
021000
021000
041000
041000
081000
000000
000000
ENDCHAR
STARTCHAR 332a
ENCODING 13098
SWIDTH	-8531 0
DWIDTH	18 0
BBX 18	19 0 -1
BITMAP
000000
1f3f80
221080
7fa180
249400
3f9f00
24a400
3f8400
20bf80
418400
004400
1fff00
104100
104100
1fff00
004080
3fff80
000000
000000
ENDCHAR
STARTCHAR 332b
ENCODING 13099
SWIDTH	-8531 0
DWIDTH	18 0
BBX 18	19 0 -1
BITMAP
000000
000000
7f7f00
414100
7f7f00
414100
7f7f00
400100
400100
4ff900
422100
422100
4ff900
422100
422100
422100
442700
000000
000000
ENDCHAR
STARTCHAR 332c
ENCODING 13100
SWIDTH	-8531 0
DWIDTH	18 0
BBX 18	19 0 -1
BITMAP
000000
008400
7c8480
44f700
448400
489400
48a480
50c780
481000
442000
44ff00
448100
448100
5cff00
408100
408100
40ff00
000000
000000
ENDCHAR
STARTCHAR 332d
ENCODING 13101
SWIDTH	-8531 0
DWIDTH	18 0
BBX 18	19 0 -1
BITMAP
000000
1ffe00
100200
100200
100200
1ffe00
100200
100200
100200
1ffe00
100200
100200
100200
1ffe00
040800
080400
300200
000000
000000
ENDCHAR
STARTCHAR 332e
ENCODING 13102
SWIDTH	-8531 0
DWIDTH	18 0
BBX 18	19 0 -1
BITMAP
000000
080000
48be00
48a200
7fa200
002200
7f2200
002200
3f2200
212200
212200
3f2200
002200
212200
124280
004280
7e8380
000000
000000
ENDCHAR
STARTCHAR 332f
ENCODING 13103
SWIDTH	-8531 0
DWIDTH	18 0
BBX 18	19 0 -1
BITMAP
000000
040800
040800
7fc800
080800
107f80
620880
220880
140880
090880
110880
220880
441080
0a1080
112080
204080
408700
000000
000000
ENDCHAR
STARTCHAR 3330
ENCODING 13104
SWIDTH	-8531 0
DWIDTH	18 0
BBX 18	19 0 -1
BITMAP
000000
081000
081000
0f9000
089000
10d000
10b000
209000
491800
051400
021200
021100
041080
041000
081000
101000
601000
000000
000000
ENDCHAR
STARTCHAR 3331
ENCODING 13105
SWIDTH	-8531 0
DWIDTH	18 0
BBX 18	19 0 -1
BITMAP
000000
007e00
000000
7c0000
45ff80
441000
442000
44c200
442400
441880
441100
446200
458400
440c00
7c3200
00c100
030080
000000
000000
ENDCHAR
STARTCHAR 3332
ENCODING 13106
SWIDTH	-8531 0
DWIDTH	18 0
BBX 18	19 0 -1
BITMAP
000000
008000
008000
7fff80
400080
408080
1ffe00
008000
0ffc00
008000
7fff80
000000
1ffe00
100200
100200
100200
1ffe00
000000
000000
ENDCHAR
STARTCHAR 3333
ENCODING 13107
SWIDTH	-8531 0
DWIDTH	18 0
BBX 18	19 0 -1
BITMAP
000000
004000
104080
104080
1fff80
000000
1fff80
100000
102000
17ff00
102000
1fff80
102000
27ff00
202000
402000
0fff80
000000
000000
ENDCHAR
STARTCHAR 3334
ENCODING 13108
SWIDTH	-8531 0
DWIDTH	18 0
BBX 18	19 0 -1
BITMAP
000000
100000
11ef80
112200
112200
55ea00
552a00
552a00
512a00
11ff80
110200
114200
112400
115600
118a80
131280
102380
000000
000000
ENDCHAR
STARTCHAR 3335
ENCODING 13109
SWIDTH	-8531 0
DWIDTH	18 0
BBX 18	19 0 -1
BITMAP
000000
100000
13df80
124200
124a00
7bca00
124a00
124a00
324a00
3bdf80
560400
528600
124600
12aa00
130a00
161280
106380
000000
000000
ENDCHAR
STARTCHAR 3336
ENCODING 13110
SWIDTH	-8531 0
DWIDTH	18 0
BBX 18	19 0 -1
BITMAP
000000
000000
23ff80
120000
0a0800
027f00
420800
220800
120800
02ff80
020000
0a0800
0a7f00
120800
140800
240800
49ff80
000000
000000
ENDCHAR
STARTCHAR 3337
ENCODING 13111
SWIDTH	-8531 0
DWIDTH	18 0
BBX 18	19 0 -1
BITMAP
000000
007f00
7f4100
104100
107f00
104100
104100
1e7f00
320000
327f80
520200
120200
12ff80
120200
124200
1e2200
000e00
000000
000000
ENDCHAR
STARTCHAR 3338
ENCODING 13112
SWIDTH	-8531 0
DWIDTH	18 0
BBX 18	19 0 -1
BITMAP
000000
040800
7fff80
040800
008000
0ffc00
008000
3fff00
021000
040800
0ffc00
000000
1ffe00
112200
112200
112200
7fff80
000000
000000
ENDCHAR
STARTCHAR 3339
ENCODING 13113
SWIDTH	-8531 0
DWIDTH	18 0
BBX 18	19 0 -1
BITMAP
000000
080000
108f80
208000
43e000
088000
108f80
37e200
500200
108200
108200
17e200
108200
108200
108200
17e200
100e00
000000
000000
ENDCHAR
STARTCHAR 333a
ENCODING 13114
SWIDTH	-8531 0
DWIDTH	18 0
BBX 18	19 0 -1
BITMAP
000000
000800
3e0800
00ff80
000800
7e1000
00a200
3e4400
002480
3e0900
001100
3e6200
228400
220c00
221200
226100
3e8080
000000
000000
ENDCHAR
STARTCHAR 333b
ENCODING 13115
SWIDTH	-8531 0
DWIDTH	18 0
BBX 18	19 0 -1
BITMAP
000000
080800
148880
228880
40ff80
000000
7e0000
08ff80
080000
7e7f00
084100
084100
497f00
2a0000
082200
081400
7eff80
000000
000000
ENDCHAR
STARTCHAR 333c
ENCODING 13116
SWIDTH	-8531 0
DWIDTH	18 0
BBX 18	19 0 -1
BITMAP
000000
000000
3f3f00
210000
2f0000
297f80
290800
7f9100
40a200
3f1400
210880
3f1100
212200
3f4400
210a00
211100
232080
000000
000000
ENDCHAR
STARTCHAR 333d
ENCODING 13117
SWIDTH	-8531 0
DWIDTH	18 0
BBX 18	19 0 -1
BITMAP
000000
01ff00
211100
111100
091100
01ff00
411100
211100
111100
01ff00
001000
081000
09ff00
101000
101000
201000
47ff80
000000
000000
ENDCHAR
STARTCHAR 333e
ENCODING 13118
SWIDTH	-8531 0
DWIDTH	18 0
BBX 18	19 0 -1
BITMAP
000000
041e00
7f9280
042380
3f8000
24bf00
3f9200
200c00
47f380
008000
7fff80
088400
1ffe00
280500
4ffc80
080400
0ffc00
000000
000000
ENDCHAR
STARTCHAR 333f
ENCODING 13119
SWIDTH	-8531 0
DWIDTH	18 0
BBX 18	19 0 -1
BITMAP
000000
080800
080800
087f00
080800
7f0800
490800
497f80
490000
490800
7f0800
080800
087f00
090800
090800
7f0800
017f80
000000
000000
ENDCHAR
STARTCHAR 3340
ENCODING 13120
SWIDTH	-8531 0
DWIDTH	18 0
BBX 18	19 0 -1
BITMAP
000000
080000
09ff80
080000
080000
7eff00
088100
088100
088100
08ff00
088100
0a8100
0c8100
08ff00
100000
600000
03ff80
000000
000000
ENDCHAR
STARTCHAR 3341
ENCODING 13121
SWIDTH	-8531 0
DWIDTH	18 0
BBX 18	19 0 -1
BITMAP
000000
081000
081000
09ff80
081000
7e1000
08ff00
189100
1c9100
1a9100
2a9100
289100
489100
089300
081000
081000
081000
000000
000000
ENDCHAR
STARTCHAR 3342
ENCODING 13122
SWIDTH	-8531 0
DWIDTH	18 0
BBX 18	19 0 -1
BITMAP
000000
100000
10ff80
108000
7c8000
548000
54ff80
548800
548800
548f80
7c8880
108880
108880
149080
149080
7d2080
044700
000000
000000
ENDCHAR
STARTCHAR 3343
ENCODING 13123
SWIDTH	-8531 0
DWIDTH	18 0
BBX 18	19 0 -1
BITMAP
000000
082000
142000
223f80
412080
004080
7f4080
089080
081080
7f2080
082480
084280
497e80
2a0280
080080
080080
7f0700
000000
000000
ENDCHAR
STARTCHAR 3344
ENCODING 13124
SWIDTH	-8531 0
DWIDTH	18 0
BBX 18	19 0 -1
BITMAP
000000
020080
3fe080
022480
7ff480
022480
3fe480
020480
7ff480
000480
3fe480
222480
3fe480
222480
3fe080
000080
7ff180
000000
000000
ENDCHAR
STARTCHAR 3345
ENCODING 13125
SWIDTH	-8531 0
DWIDTH	18 0
BBX 18	19 0 -1
BITMAP
000000
008400
008400
788400
4bdf00
488400
488400
4fff80
494a00
494a00
494a00
4b5b00
4d6a80
494a00
7a4a00
025200
04c600
000000
000000
ENDCHAR
STARTCHAR 3346
ENCODING 13126
SWIDTH	-8531 0
DWIDTH	18 0
BBX 18	19 0 -1
BITMAP
000000
010000
03fe00
040400
0a0800
311000
00a000
00c000
033000
0c0c00
700380
0ffc00
080400
080400
080400
080400
0ffc00
000000
000000
ENDCHAR
STARTCHAR 3347
ENCODING 13127
SWIDTH	-8531 0
DWIDTH	18 0
BBX 18	19 0 -1
BITMAP
000000
002000
1fff80
100000
110000
17ef80
100880
17c900
144900
17ca00
100900
17c880
108880
210880
27eb80
410800
030800
000000
000000
ENDCHAR
STARTCHAR 3348
ENCODING 13128
SWIDTH	-8531 0
DWIDTH	18 0
BBX 18	19 0 -1
BITMAP
000000
080800
080800
08ff80
088000
7e8800
088800
088800
0a8800
0c8800
089000
189200
689100
092100
092080
0a7f80
380080
000000
000000
ENDCHAR
STARTCHAR 3349
ENCODING 13129
SWIDTH	-8531 0
DWIDTH	18 0
BBX 18	19 0 -1
BITMAP
000000
089080
084900
080200
09ff80
7f0080
097e80
084200
0a7e00
0c4200
087e00
184200
687e00
082400
082480
084480
398380
000000
000000
ENDCHAR
STARTCHAR 334a
ENCODING 13130
SWIDTH	-8531 0
DWIDTH	18 0
BBX 18	19 0 -1
BITMAP
000000
082000
083f00
084100
08a200
7e1400
080800
081400
1c2200
1ac180
280000
287f00
484100
084100
084100
084100
087f00
000000
000000
ENDCHAR
STARTCHAR 334b
ENCODING 13131
SWIDTH	-8531 0
DWIDTH	18 0
BBX 18	19 0 -1
BITMAP
000000
081000
081000
09ff80
080000
7e1000
082000
094200
188400
1c4880
2a1100
282200
484400
098a00
081100
086080
098080
000000
000000
ENDCHAR
STARTCHAR 334c
ENCODING 13132
SWIDTH	-8531 0
DWIDTH	18 0
BBX 18	19 0 -1
BITMAP
000000
083e00
082200
7f2200
082280
082280
3e4380
004000
7f0000
417f00
410100
1e2100
122200
121400
238800
263600
40c180
000000
000000
ENDCHAR
STARTCHAR 334d
ENCODING 13133
SWIDTH	-8531 0
DWIDTH	18 0
BBX 18	19 0 -1
BITMAP
000000
084200
49ff80
284200
108800
29ff80
488800
04ff00
0c8800
14ff00
148800
24ff80
440000
04ff00
042200
081c00
30e380
000000
000000
ENDCHAR
STARTCHAR 334e
ENCODING 13134
SWIDTH	-8531 0
DWIDTH	18 0
BBX 18	19 0 -1
BITMAP
000000
001000
001000
7eff80
109080
10a280
104400
10ff80
1e4400
324400
327f80
524400
124400
127f80
124400
1e4400
007f80
000000
000000
ENDCHAR
STARTCHAR 334f
ENCODING 13135
SWIDTH	-8531 0
DWIDTH	18 0
BBX 18	19 0 -1
BITMAP
000000
044200
19ff80
684200
084800
08ff80
7f8800
08ff00
188800
1cff00
2a8800
28ff80
480000
08ff00
082200
081c00
09e380
000000
000000
ENDCHAR
STARTCHAR 3350
ENCODING 13136
SWIDTH	-8531 0
DWIDTH	18 0
BBX 18	19 0 -1
BITMAP
000000
110200
088400
044800
7fff80
400080
4ffc80
480480
0ffc00
080400
0ffc00
080400
0ffc00
022000
022100
0c2100
703f00
000000
000000
ENDCHAR
STARTCHAR 3351
ENCODING 13137
SWIDTH	-8531 0
DWIDTH	18 0
BBX 18	19 0 -1
BITMAP
000000
020000
03f800
041000
082000
104000
3fff00
504100
104100
1fff00
104100
104100
1fff00
100100
100100
200100
400700
000000
000000
ENDCHAR
STARTCHAR 3352
ENCODING 13138
SWIDTH	-8531 0
DWIDTH	18 0
BBX 18	19 0 -1
BITMAP
000000
040400
040400
040400
3f3f80
040400
040400
040400
7fbf80
0a0a00
0a0a00
2aaa80
2aaa80
4a0a80
121200
121200
262600
000000
000000
ENDCHAR
STARTCHAR 3353
ENCODING 13139
SWIDTH	-8531 0
DWIDTH	18 0
BBX 18	19 0 -1
BITMAP
000000
080800
080800
7f7f80
080000
7f1200
492100
494080
7f2200
492200
492400
7f1400
080800
7f1400
082200
084100
098080
000000
000000
ENDCHAR
STARTCHAR 3354
ENCODING 13140
SWIDTH	-8531 0
DWIDTH	18 0
BBX 18	19 0 -1
BITMAP
000000
040000
041f80
7fd080
001100
3f9200
209400
209200
3f9100
001100
3f1080
021080
041080
7fd080
041700
041000
1c1000
000000
000000
ENDCHAR
STARTCHAR 3355
ENCODING 13141
SWIDTH	-8531 0
DWIDTH	18 0
BBX 18	19 0 -1
BITMAP
000000
7f7f00
414100
7f7f00
414100
7f7f00
400100
43f100
441100
4a2100
41c100
5e3d00
400100
47f100
441100
441100
47f700
000000
000000
ENDCHAR
STARTCHAR 3356
ENCODING 13142
SWIDTH	-8531 0
DWIDTH	18 0
BBX 18	19 0 -1
BITMAP
000000
000000
7dff80
440000
44ff00
488100
48ff00
500000
49ff80
492880
452980
45ce80
450080
5d7e80
411080
411080
411380
000000
000000
ENDCHAR
STARTCHAR 3357
ENCODING 13143
SWIDTH	-8531 0
DWIDTH	18 0
BBX 18	19 0 -1
BITMAP
000000
041000
041000
7fff00
041000
041000
07f000
008000
1ffe00
108200
108200
1ffe00
008000
008000
7fff80
008000
008000
000000
000000
ENDCHAR
STARTCHAR 3358
ENCODING 13144
SWIDTH	-8531 0
DWIDTH	18 0
BBX 18	19 0 -1
BITMAP
000000
110200
088400
044800
7fff80
400080
400080
47fc80
001000
002000
004000
7fff80
004000
004000
004000
004000
01c000
000000
000000
ENDCHAR
STARTCHAR 3359
ENCODING 13145
SWIDTH	-8531 0
DWIDTH	18 0
BBX 18	19 0 -1
BITMAP
000000
000e00
0ff000
080000
080000
0fff00
080800
080800
080800
080800
7fff80
008000
208100
208100
208100
3fff00
000000
000000
000000
ENDCHAR
STARTCHAR 335a
ENCODING 13146
SWIDTH	-8531 0
DWIDTH	18 0
BBX 18	19 0 -1
BITMAP
000000
008000
210100
13f200
0a1400
021000
0bf400
121200
221100
03f000
008000
7fff80
02a000
049000
088800
108600
608180
000000
000000
ENDCHAR
STARTCHAR 335b
ENCODING 13147
SWIDTH	-8531 0
DWIDTH	18 0
BBX 18	19 0 -1
BITMAP
000000
040000
043f80
7f8400
408800
4ebf80
122080
2a2080
043f80
1a2080
61bf80
002080
3f2080
213f80
210a00
211100
3f2080
000000
000000
ENDCHAR
STARTCHAR 335c
ENCODING 13148
SWIDTH	-8531 0
DWIDTH	18 0
BBX 18	19 0 -1
BITMAP
000000
3bbf80
2a8400
2a8800
2abf80
3ba080
002080
3f3f80
002080
7fa080
103f80
1f2080
012080
013f80
011200
022100
1c4080
000000
000000
ENDCHAR
STARTCHAR 335d
ENCODING 13149
SWIDTH	-8531 0
DWIDTH	18 0
BBX 18	19 0 -1
BITMAP
000000
084400
084400
09f400
084400
7c4400
084400
09f400
080600
0a4500
0c4480
19f400
684400
084400
084400
0bf400
380400
000000
000000
ENDCHAR
STARTCHAR 335e
ENCODING 13150
SWIDTH	-8531 0
DWIDTH	18 0
BBX 18	19 0 -1
BITMAP
000000
101000
1f9f80
242400
224200
420200
008000
008000
3fff00
000800
040800
020800
021000
021000
022000
004000
7fff80
000000
000000
ENDCHAR
STARTCHAR 335f
ENCODING 13151
SWIDTH	-8531 0
DWIDTH	18 0
BBX 18	19 0 -1
BITMAP
000000
100000
11f780
112080
112480
7df480
111500
11f500
312200
392500
55f880
500000
101000
11ff00
101000
101000
13ff80
000000
000000
ENDCHAR
STARTCHAR 3360
ENCODING 13152
SWIDTH	-8531 0
DWIDTH	18 0
BBX 18	19 0 -1
BITMAP
000000
100000
11ff80
100000
11ff00
7d1100
11ff00
111100
33ff80
380000
55ff00
511100
11ff00
111100
11ff00
100000
17ff80
000000
000000
ENDCHAR
STARTCHAR 3361
ENCODING 13153
SWIDTH	-8531 0
DWIDTH	18 0
BBX 18	19 0 -1
BITMAP
000000
080000
08ff80
088080
088080
7eff80
088000
088100
1cbe00
1a8800
28bf00
288800
48bf80
090800
090880
0a0880
080780
000000
000000
ENDCHAR
STARTCHAR 3362
ENCODING 13154
SWIDTH	-8531 0
DWIDTH	18 0
BBX 18	19 0 -1
BITMAP
000000
202400
3c4400
248400
498400
109500
7df500
549500
549500
7dc400
56a400
548400
7c8a00
008a00
549100
549100
54a080
000000
000000
ENDCHAR
STARTCHAR 3363
ENCODING 13155
SWIDTH	-8531 0
DWIDTH	18 0
BBX 18	19 0 -1
BITMAP
000000
004000
438f00
220100
120100
03cf00
420100
220100
13ff00
010000
01ff80
120080
152a80
112580
222480
240080
400700
000000
000000
ENDCHAR
STARTCHAR 3364
ENCODING 13156
SWIDTH	-8531 0
DWIDTH	18 0
BBX 18	19 0 -1
BITMAP
000000
040100
041100
7fd100
405100
445100
1f1100
041100
1f1100
041100
7fd100
001100
3f8100
208100
208100
208100
3f8f00
000000
000000
ENDCHAR
STARTCHAR 3365
ENCODING 13157
SWIDTH	-8531 0
DWIDTH	18 0
BBX 18	19 0 -1
BITMAP
000000
01ff00
010100
790100
49ff00
490100
490100
49ff00
484000
484000
48ff80
490080
4a8880
78f080
008080
008080
007d80
000000
000000
ENDCHAR
STARTCHAR 3366
ENCODING 13158
SWIDTH	-8531 0
DWIDTH	18 0
BBX 18	19 0 -1
BITMAP
000000
101000
102800
104400
108200
550100
540080
55fe00
540000
500000
11ff00
110100
110100
110100
110100
110100
11ff00
000000
000000
ENDCHAR
STARTCHAR 3367
ENCODING 13159
SWIDTH	-8531 0
DWIDTH	18 0
BBX 18	19 0 -1
BITMAP
000000
080300
08fc00
080800
080800
7e0800
09ff80
080800
0a0800
0c0800
08ff00
188100
688100
088100
088100
088100
38ff00
000000
000000
ENDCHAR
STARTCHAR 3368
ENCODING 13160
SWIDTH	-8531 0
DWIDTH	18 0
BBX 18	19 0 -1
BITMAP
000000
000300
21fc00
101000
081000
001000
43ff80
201000
101000
001000
001000
09ff00
090100
110100
110100
210100
41ff00
000000
000000
ENDCHAR
STARTCHAR 3369
ENCODING 13161
SWIDTH	-8531 0
DWIDTH	18 0
BBX 18	19 0 -1
BITMAP
000000
01ff00
210100
110100
09ff00
010100
410100
21ff00
108000
00ff80
010080
0a8880
08f080
108080
108480
20fc80
400300
000000
000000
ENDCHAR
STARTCHAR 336a
ENCODING 13162
SWIDTH	-8531 0
DWIDTH	18 0
BBX 18	19 0 -1
BITMAP
000000
000000
21fe00
110200
093e00
012200
412200
27ff80
140080
05fe80
010200
09fe00
090200
11fe00
110200
210200
410e00
000000
000000
ENDCHAR
STARTCHAR 336b
ENCODING 13163
SWIDTH	-8531 0
DWIDTH	18 0
BBX 18	19 0 -1
BITMAP
000000
040800
040800
7fff80
040800
1ffe00
100200
1ffe00
100200
1ffe00
040000
0fff00
104100
28a100
4b1900
080100
0fe700
000000
000000
ENDCHAR
STARTCHAR 336c
ENCODING 13164
SWIDTH	-8531 0
DWIDTH	18 0
BBX 18	19 0 -1
BITMAP
000000
08ff00
088100
088100
7eff00
028100
048100
08ff00
1a2000
2c7f80
4a8080
098c80
0af080
088080
088480
087c80
080180
000000
000000
ENDCHAR
STARTCHAR 336d
ENCODING 13165
SWIDTH	-8531 0
DWIDTH	18 0
BBX 18	19 0 -1
BITMAP
000000
080800
080800
7eff80
088080
7f0880
497f00
490800
7f7f00
490800
49ff80
7f0000
087f00
7f4100
084100
084100
087f00
000000
000000
ENDCHAR
STARTCHAR 336e
ENCODING 13166
SWIDTH	-8531 0
DWIDTH	18 0
BBX 18	19 0 -1
BITMAP
000000
000000
0ffc00
080400
080400
080400
0ffc00
080400
080400
080400
0ffc00
080400
080400
080400
080400
7fff80
000000
000000
000000
ENDCHAR
STARTCHAR 336f
ENCODING 13167
SWIDTH	-8531 0
DWIDTH	18 0
BBX 18	19 0 -1
BITMAP
000000
100000
1e7b80
225080
445280
087a80
7f4a80
497a80
495280
7f5100
497a80
490000
7f0800
007f00
550800
550800
547f80
000000
000000
ENDCHAR
STARTCHAR 3370
ENCODING 13168
SWIDTH	-8531 0
DWIDTH	18 0
BBX 18	19 0 -1
BITMAP
000000
000800
000800
7c0800
440800
440800
440800
45ff80
440800
440800
440800
440800
440800
7c0800
000800
000800
000800
000000
000000
ENDCHAR
STARTCHAR 3371
ENCODING 13169
SWIDTH	-8531 0
DWIDTH	18 0
BBX 18	19 0 -1
BITMAP
000000
084200
084200
09ff80
084200
7e4200
080000
182800
1c4900
2aca00
294c00
484800
085800
084800
084880
084880
084f80
000000
000000
ENDCHAR
STARTCHAR 3372
ENCODING 13170
SWIDTH	-8531 0
DWIDTH	18 0
BBX 18	19 0 -1
BITMAP
000000
104400
104400
13ff80
104400
7dff00
109200
109200
33ff80
389200
349200
51ff00
501000
101000
11ff00
101000
101000
000000
000000
ENDCHAR
STARTCHAR 3373
ENCODING 13171
SWIDTH	-8531 0
DWIDTH	18 0
BBX 18	19 0 -1
BITMAP
000000
222000
222000
7f3f80
224080
224080
3ebc80
082480
7f2480
492480
493c80
7f2080
082300
7f2000
082000
082080
081f80
000000
000000
ENDCHAR
STARTCHAR 3374
ENCODING 13172
SWIDTH	-8531 0
DWIDTH	18 0
BBX 18	19 0 -1
BITMAP
000000
081000
089000
089000
08ff00
7e9000
091000
081000
19ff80
1c3800
2a5400
285400
489200
091100
0a1080
081000
081000
000000
000000
ENDCHAR
STARTCHAR 3375
ENCODING 13173
SWIDTH	-8531 0
DWIDTH	18 0
BBX 18	19 0 -1
BITMAP
000000
004000
088000
73f780
421080
421080
43f080
421080
421080
7bf780
000000
022000
022000
022000
042080
182080
601f80
000000
000000
ENDCHAR
STARTCHAR 3376
ENCODING 13174
SWIDTH	-8531 0
DWIDTH	18 0
BBX 18	19 0 -1
BITMAP
000000
008000
7fff80
448880
5bee80
008000
1ffe00
000000
1ffc00
108400
3ffe00
208200
3ffe00
208200
3ffe80
008080
007f80
000000
000000
ENDCHAR
STARTCHAR 3377
ENCODING 13175
SWIDTH	-8531 0
DWIDTH	18 0
BBX 18	19 0 -1
BITMAP
000000
040800
040800
7fff80
040800
202200
102100
0bff80
402000
23ff00
122100
03ff00
0a2100
13ff00
122100
222100
422700
000000
000000
ENDCHAR
STARTCHAR 3378
ENCODING 13176
SWIDTH	-8531 0
DWIDTH	18 0
BBX 18	19 0 -1
BITMAP
000000
040800
040400
091200
12a100
644080
00a000
011000
060800
1bf600
608180
008000
3fff00
008000
088800
049000
1ffe00
000000
000000
ENDCHAR
STARTCHAR 3379
ENCODING 13177
SWIDTH	-8531 0
DWIDTH	18 0
BBX 18	19 0 -1
BITMAP
000000
084100
142200
22ff80
411400
007f00
7f1500
081500
08ff80
7f1500
081500
087f00
491400
2a3600
085500
089480
7e1400
000000
000000
ENDCHAR
STARTCHAR 337a
ENCODING 13178
SWIDTH	-8531 0
DWIDTH	18 0
BBX 18	19 0 -1
BITMAP
000000
001000
009000
009f00
789000
4bff80
480000
4a4480
4a4480
4aaa80
4a0080
4bff80
4a4480
7a4480
02aa80
020080
03ff80
000000
000000
ENDCHAR
STARTCHAR 337b
ENCODING 13179
SWIDTH	-8531 0
DWIDTH	18 0
BBX 18	19 0 -1
BITMAP
000000
000800
001000
7f7f00
494100
497f00
494100
7f7f00
494000
497f80
494000
7f7f80
080080
08aa80
08aa80
08a880
090300
000000
000000
ENDCHAR
STARTCHAR 337c
ENCODING 13180
SWIDTH	-8531 0
DWIDTH	18 0
BBX 18	19 0 -1
BITMAP
000000
080000
09ff80
080800
081000
7eff00
088100
188100
1c8100
2a8100
28ff00
488100
088100
088100
088100
088100
08ff00
000000
000000
ENDCHAR
STARTCHAR 337d
ENCODING 13181
SWIDTH	-8531 0
DWIDTH	18 0
BBX 18	19 0 -1
BITMAP
000000
040800
7fff80
040800
000000
0ffc00
000800
011000
00a000
7fff80
014080
014100
024200
044000
084000
304000
01c000
000000
000000
ENDCHAR
STARTCHAR 337e
ENCODING 13182
SWIDTH	-8531 0
DWIDTH	18 0
BBX 18	19 0 -1
BITMAP
000000
040800
040800
7fff80
040800
008000
3fff00
200100
2ffd00
000000
0ffc00
080400
0ffc00
080400
0ffc00
000000
3fff00
000000
000000
ENDCHAR
STARTCHAR 3421
ENCODING 13345
SWIDTH	-8531 0
DWIDTH	18 0
BBX 18	19 0 -1
BITMAP
000000
004000
7c4780
055080
055080
055080
7c4f80
404800
43f800
404800
7cef80
055080
064880
044080
044080
044080
384700
000000
000000
ENDCHAR
STARTCHAR 3422
ENCODING 13346
SWIDTH	-8531 0
DWIDTH	18 0
BBX 18	19 0 -1
BITMAP
000000
020080
020080
021080
021080
021080
121080
0a1080
061080
021080
051080
049080
084080
084080
100080
200080
400380
000000
000000
ENDCHAR
STARTCHAR 3423
ENCODING 13347
SWIDTH	-8531 0
DWIDTH	18 0
BBX 18	19 0 -1
BITMAP
000000
040800
040800
7fff80
040800
000100
022100
222100
122100
0c2100
042100
0a2100
092100
112100
202100
400100
000700
000000
000000
ENDCHAR
STARTCHAR 3424
ENCODING 13348
SWIDTH	-8531 0
DWIDTH	18 0
BBX 18	19 0 -1
BITMAP
000000
000000
7fff00
040000
040000
040000
07f800
040800
040800
050800
048800
044800
080800
080800
083880
09c880
7e0780
000000
000000
ENDCHAR
STARTCHAR 3425
ENCODING 13349
SWIDTH	-8531 0
DWIDTH	18 0
BBX 18	19 0 -1
BITMAP
000000
081000
081000
7fbf80
082000
084000
7f0000
413f00
7f0100
410200
7f0400
081800
082000
7f4000
088080
088080
087f80
000000
000000
ENDCHAR
ENDFONT
